<svg viewBox="0 0 614 400" xmlns="http://www.w3.org/2000/svg"><g><g><g><g><g><line x1="30" y1="378" x2="25" y2="378" style="visibility: inherit;" fill="rgb(0, 0, 0)" stroke="rgb(204, 204, 204)" stroke-width="1px"></line><line x1="30" y1="330.75" x2="25" y2="330.75" style="visibility: inherit;" fill="rgb(0, 0, 0)" stroke="rgb(204, 204, 204)" stroke-width="1px"></line><line x1="30" y1="283.5" x2="25" y2="283.5" style="visibility: inherit;" fill="rgb(0, 0, 0)" stroke="rgb(204, 204, 204)" stroke-width="1px"></line><line x1="30" y1="236.25" x2="25" y2="236.25" style="visibility: inherit;" fill="rgb(0, 0, 0)" stroke="rgb(204, 204, 204)" stroke-width="1px"></line><line x1="30" y1="189" x2="25" y2="189" style="visibility: inherit;" fill="rgb(0, 0, 0)" stroke="rgb(204, 204, 204)" stroke-width="1px"></line><line x1="30" y1="141.75" x2="25" y2="141.75" style="visibility: inherit;" fill="rgb(0, 0, 0)" stroke="rgb(204, 204, 204)" stroke-width="1px"></line><line x1="30" y1="94.5" x2="25" y2="94.5" style="visibility: inherit;" fill="rgb(0, 0, 0)" stroke="rgb(204, 204, 204)" stroke-width="1px"></line><line x1="30" y1="47.25" x2="25" y2="47.25" style="visibility: inherit;" fill="rgb(0, 0, 0)" stroke="rgb(204, 204, 204)" stroke-width="1px"></line><line x1="30" y1="0" x2="25" y2="0" style="visibility: inherit;" fill="rgb(0, 0, 0)" stroke="rgb(204, 204, 204)" stroke-width="1px"></line></g><g transform="translate(20, 0)"><text x="0" y="378" dx="0em" dy="0.3em" style="text-anchor: end; visibility: hidden; font-family: &quot;Helvetica Neue&quot;, sans-serif; font-size: 12px; font-weight: 200;" fill="rgb(50, 49, 63)" stroke="none" stroke-width="1px">-1</text><text x="0" y="330.75" dx="0em" dy="0.3em" style="text-anchor: end; visibility: inherit; font-family: &quot;Helvetica Neue&quot;, sans-serif; font-size: 12px; font-weight: 200;" fill="rgb(50, 49, 63)" stroke="none" stroke-width="1px">0</text><text x="0" y="283.5" dx="0em" dy="0.3em" style="text-anchor: end; visibility: inherit; font-family: &quot;Helvetica Neue&quot;, sans-serif; font-size: 12px; font-weight: 200;" fill="rgb(50, 49, 63)" stroke="none" stroke-width="1px">1</text><text x="0" y="236.25" dx="0em" dy="0.3em" style="text-anchor: end; visibility: inherit; font-family: &quot;Helvetica Neue&quot;, sans-serif; font-size: 12px; font-weight: 200;" fill="rgb(50, 49, 63)" stroke="none" stroke-width="1px">2</text><text x="0" y="189" dx="0em" dy="0.3em" style="text-anchor: end; visibility: inherit; font-family: &quot;Helvetica Neue&quot;, sans-serif; font-size: 12px; font-weight: 200;" fill="rgb(50, 49, 63)" stroke="none" stroke-width="1px">3</text><text x="0" y="141.75" dx="0em" dy="0.3em" style="text-anchor: end; visibility: inherit; font-family: &quot;Helvetica Neue&quot;, sans-serif; font-size: 12px; font-weight: 200;" fill="rgb(50, 49, 63)" stroke="none" stroke-width="1px">4</text><text x="0" y="94.5" dx="0em" dy="0.3em" style="text-anchor: end; visibility: inherit; font-family: &quot;Helvetica Neue&quot;, sans-serif; font-size: 12px; font-weight: 200;" fill="rgb(50, 49, 63)" stroke="none" stroke-width="1px">5</text><text x="0" y="47.25" dx="0em" dy="0.3em" style="text-anchor: end; visibility: inherit; font-family: &quot;Helvetica Neue&quot;, sans-serif; font-size: 12px; font-weight: 200;" fill="rgb(50, 49, 63)" stroke="none" stroke-width="1px">6</text><text x="0" y="0" dx="0em" dy="0.3em" style="text-anchor: end; visibility: hidden; font-family: &quot;Helvetica Neue&quot;, sans-serif; font-size: 12px; font-weight: 200;" fill="rgb(50, 49, 63)" stroke="none" stroke-width="1px">7</text></g><line x1="30" y1="0" x2="30" y2="378" fill="rgb(0, 0, 0)" stroke="rgb(204, 204, 204)" stroke-width="1px"></line></g></g><g transform="translate(30, 0)" clip-path="url(#clip_0)"><clipPath id="clip_0"><rect width="584" height="378"></rect></clipPath><g><g><g><line x1="0" y1="0" x2="0" y2="378" fill="rgb(0, 0, 0)" stroke="rgb(60, 60, 60)" stroke-width="1px" opacity="0.25"></line><line x1="64.88888888888889" y1="0" x2="64.88888888888889" y2="378" fill="rgb(0, 0, 0)" stroke="rgb(60, 60, 60)" stroke-width="1px" opacity="0.25"></line><line x1="129.77777777777777" y1="0" x2="129.77777777777777" y2="378" fill="rgb(0, 0, 0)" stroke="rgb(60, 60, 60)" stroke-width="1px" opacity="0.25"></line><line x1="194.66666666666666" y1="0" x2="194.66666666666666" y2="378" fill="rgb(0, 0, 0)" stroke="rgb(60, 60, 60)" stroke-width="1px" opacity="0.25"></line><line x1="259.55555555555554" y1="0" x2="259.55555555555554" y2="378" fill="rgb(0, 0, 0)" stroke="rgb(60, 60, 60)" stroke-width="1px" opacity="0.25"></line><line x1="324.44444444444446" y1="0" x2="324.44444444444446" y2="378" fill="rgb(0, 0, 0)" stroke="rgb(60, 60, 60)" stroke-width="1px" opacity="0.25"></line><line x1="389.3333333333333" y1="0" x2="389.3333333333333" y2="378" fill="rgb(0, 0, 0)" stroke="rgb(60, 60, 60)" stroke-width="1px" opacity="0.25"></line><line x1="454.22222222222223" y1="0" x2="454.22222222222223" y2="378" fill="rgb(0, 0, 0)" stroke="rgb(60, 60, 60)" stroke-width="1px" opacity="0.25"></line><line x1="519.1111111111111" y1="0" x2="519.1111111111111" y2="378" fill="rgb(0, 0, 0)" stroke="rgb(60, 60, 60)" stroke-width="1px" opacity="0.25"></line><line x1="584" y1="0" x2="584" y2="378" fill="rgb(0, 0, 0)" stroke="rgb(60, 60, 60)" stroke-width="1px" opacity="0.25"></line></g><g><line x1="0" y1="378" x2="584" y2="378" fill="rgb(0, 0, 0)" stroke="rgb(60, 60, 60)" stroke-width="1px" opacity="0.25"></line><line x1="0" y1="330.75" x2="584" y2="330.75" fill="rgb(0, 0, 0)" stroke="rgb(60, 60, 60)" stroke-width="1px" opacity="0.25"></line><line x1="0" y1="283.5" x2="584" y2="283.5" fill="rgb(0, 0, 0)" stroke="rgb(60, 60, 60)" stroke-width="1px" opacity="0.25"></line><line x1="0" y1="236.25" x2="584" y2="236.25" fill="rgb(0, 0, 0)" stroke="rgb(60, 60, 60)" stroke-width="1px" opacity="0.25"></line><line x1="0" y1="189" x2="584" y2="189" fill="rgb(0, 0, 0)" stroke="rgb(60, 60, 60)" stroke-width="1px" opacity="0.25"></line><line x1="0" y1="141.75" x2="584" y2="141.75" fill="rgb(0, 0, 0)" stroke="rgb(60, 60, 60)" stroke-width="1px" opacity="0.25"></line><line x1="0" y1="94.5" x2="584" y2="94.5" fill="rgb(0, 0, 0)" stroke="rgb(60, 60, 60)" stroke-width="1px" opacity="0.25"></line><line x1="0" y1="47.25" x2="584" y2="47.25" fill="rgb(0, 0, 0)" stroke="rgb(60, 60, 60)" stroke-width="1px" opacity="0.25"></line><line x1="0" y1="0" x2="584" y2="0" fill="rgb(0, 0, 0)" stroke="rgb(60, 60, 60)" stroke-width="1px" opacity="0.25"></line></g></g></g><g><g><line x1="0" y1="330.75" x2="584" y2="330.75" fill="rgb(0, 0, 0)" stroke="rgb(153, 153, 153)" stroke-width="1.5px"></line></g></g><g><g><line x1="64.88888888888889" y1="0" x2="64.88888888888889" y2="378" fill="rgb(0, 0, 0)" stroke="rgb(153, 153, 153)" stroke-width="1.5px"></line></g></g><g><g><g><g><g><path style="fill: none;" stroke="rgb(0, 119, 187)" stroke-width="2px" d="M66.38392888888889,-30.736419541495252L66.86151111111111,2.2561774626374245L68.37731555555555,-8.360199311720976L69.66471111111112,0.7353394273528124L69.76853333333334,18.953617555830363L70.20458666666667,16.7271658030935L70.57834666666666,23.889646672590004L71.30510222222222,14.852610228700314L71.34663111111111,21.19687394146854L71.51274666666667,13.255449772757004L74.752,5.883357261473577L76.03939555555556,9.798992578920604L76.93226666666668,22.83149319652796L77.07761777777777,12.28621114289649L78.07431111111111,15.38427892096604L78.34424888888888,19.78530895486449L79.73546666666667,19.3790176994396L79.90158222222223,26.702224323358735L81.56273777777777,24.658297183702018L81.68732444444444,23.844221106642067L82.26872888888889,19.050934173429255L85.07192888888889,25.883619937575986L85.9648,35.78270035387163L87.04455111111112,41.13840795841105L87.8336,33.72175540774589L89.41169777777777,38.05072405489767L91.09361777777778,37.72268103524408L92.23566222222223,44.18724087914944L92.29795555555555,63.45565424466707L92.58865777777778,65.86795145460707L92.67171555555555,47.061016985880826L93.66840888888889,37.462295703714744L93.81376,47.37392104774062L94.72739555555556,48.01681574715292L95.3503288888889,52.171752338690226L97.13607111111111,55.476877728505485L97.80053333333335,60.78654445365083L100.0223288888889,52.11004292493544L100.9152,44.29434663339731L100.97749333333333,41.358148563189616L103.1992888888889,44.16048945763163L103.88451555555557,37.24377430425528L104.71509333333333,53.51766694325357L105.33802666666666,61.379864864471074L107.17211111111111,61.61011529739915L108.41797777777778,73.81627107156629L110.30754222222222,78.32973733248423L110.55671555555556,69.16420520955131L111.22117777777777,63.49427555566547L111.86487555555556,65.05125702957082L112.79927555555557,72.44609178031641L114.50196,85.34177434997218L115.47788888888888,71.091199997395L115.83088444444444,77.22181956966733L115.87241333333333,83.73896923661391L115.97623555555556,73.6741861760612L116.49534666666668,76.69553772568702L116.5161111111111,80.31036052680031L116.76528444444445,66.4844161604401L116.86910666666667,84.04875449744242L117.47127555555555,89.89090821985832L120.64823555555554,90.31731890347265L121.79028000000001,98.7411496562163L126.5038088888889,93.9599683238506L127.97808444444445,90.03487386425968L128.0403777777778,90.05026596856504L130.5321111111111,90.8710608605885L131.96485777777778,95.08960505273001L132.29708888888888,96.7285395857457L132.31785333333335,99.23190171699304L133.5221911111111,98.20348524558887L137.15596888888888,79.28733429615704L140.02146222222223,91.76038089576366L140.06299111111113,96.79936418046361L141.10121333333333,97.09500680631282L142.57548888888888,96.8402382985704L144.09129333333334,104.27526281213477L144.23664444444444,118.79217823705505L146.45844,120.32979717470067L147.03984444444444,112.2825667775682L148.701,107.03432206612894L149.97444444444446,99.03022973717492L152.00936000000002,98.28554545033717L152.75688000000002,104.70199276321381L154.52185777777777,112.71713004895003L156.2453066666667,101.54072906010117L158.15563555555556,108.4300601090954L158.5086311111111,102.36717636620796L158.94468444444445,106.2699544861066L161.72712,124.09787717069074L161.81017777777777,125.13614653709465L161.97629333333333,125.3969069431003L164.30191111111114,126.39003086744404L164.59261333333333,123.52787046825085L165.38166222222222,121.09803188559533L166.50294222222223,118.1078707022495L168.10180444444447,129.55340445298114L169.74219555555555,137.05135495816566L169.78372444444446,141.83446988674936L170.90500444444444,146.35394502409062L171.4864088888889,157.48087377981997L175.86770666666666,151.2943728186885L176.1584088888889,141.38899370540375L177.42504000000002,132.89313538378L180.1036533333333,136.33213252726506L182.80303111111112,144.1043770963151L183.71666666666667,150.5436092766642L185.48164444444444,148.98481887295958L186.64445333333333,145.77484170028634L186.78980444444443,135.32414927142304L187.53732444444444,143.60217326913738L189.26077333333333,123.45812455436266L192.17460888888888,146.17170676958963L193.60735555555553,161.13496275766138L194.00188,148.97439749254852L195.4553911111111,162.9106828165893L195.9329733333333,148.12419155793455L197.2618977777778,158.279454753143L200.2519777777778,156.7492324145689L201.37325777777778,154.92445142460193L201.97542666666666,149.48233914013105L203.90652,163.7641659714901L203.96881333333334,173.66838675368567L204.21798666666666,159.74868424909556L207.18730222222223,150.21011529074454L209.51292,147.96093326631993L212.58605777777777,142.74855126037482L213.4374,150.7807406252282L216.67665333333335,161.54936464224204L218.1509288888889,169.80796370264258L219.5629111111111,163.3878601155064L219.77055555555555,162.14836009510648L219.8328488888889,157.465498829891L220.14431555555555,156.1728049427329L220.82954222222222,157.52683531701913L224.60867111111114,149.63916957056733L226.58129333333335,168.97484528825407L226.7889377777778,160.77756092432574L227.51569333333333,156.58567455699108L230.79647555555556,156.38763014847078L232.35380888888886,159.30767078622603L234.70700444444444,169.7541104520823L235.55834666666667,160.8777638176361L238.50689777777777,170.18713793154237L238.61072,168.65181804296776L238.7976,157.79308290837648L240.72869333333333,154.63769743179344L241.3100977777778,148.81253269514482L241.51774222222224,155.17792255402227L243.44883555555555,162.6806049270667L244.15482666666668,165.6292552425407L249.20058666666668,160.6244445964064L249.80275555555554,172.8630420639733L250.23880888888888,159.77710129467366L250.38416,178.36764937429257L251.58849777777777,174.8873458730497L252.87589333333332,164.16714911623703L257.13260444444444,170.16018643953743L258.29541333333333,169.20043410645928L258.9598755555556,168.04036089054947L260.7663822222222,171.6049712197316L261.45160888888887,174.53029263593749L263.2373511111111,177.5172354732632L263.50728888888887,186.93244797913312L265.3760888888889,186.0364400322919L265.8536711111111,176.390876136761L266.2274311111111,184.70011344107454L269.23827555555556,177.63892366023342L270.5672,182.49889913518118L273.70263111111115,167.80459651541045L274.24250666666666,181.72581573242744L278.2153288888889,167.68356239744904L278.36068,166.08681628673602L280.7693555555556,170.3488550518115L282.4305111111111,179.894867440114L283.3233822222222,171.39367190602397L285.08836,170.92710687877522L285.7320577777778,173.6949842820274L286.0642888888889,180.16863396464032L287.24786222222224,183.79570507227328L288.20302666666663,179.45088843833773L288.2237911111111,168.16945512492282L288.6806088888889,177.6344238006998L289.94724,175.9762889792877L290.13412,172.4962247044061L291.21387111111113,182.77857874811974L291.2761644444444,177.34060484755807L292.0652133333333,190.50830937974914L292.54279555555553,182.18603075476446L292.7089111111111,181.52701528627847L293.66407555555554,166.03714303826794L295.36676,184.1570660868615L295.76128444444447,181.2600475668508L297.36014666666665,165.96105995891085L298.6475422222222,181.9655565447664L301.9490888888889,180.1008730427656L303.04960444444447,168.77693784810504L303.46489333333335,166.6259710584724L304.10859111111114,186.34578307835127L304.2954711111111,189.05863514165796L305.0014622222222,190.9604396022601L306.70414666666665,195.25055046065108L307.4724311111111,199.14696232785855L309.00899999999996,186.8297779340152L311.37614666666667,180.7639620648983L313.3695333333333,170.2299512593247L313.47335555555554,175.59837906171663L314.22087555555555,163.77222385769954L314.86457333333334,171.6955523894183L316.8787244444444,185.17005517518237L317.4186,182.21283790132827L317.8338888888889,184.08538439668078L320.0209688888889,187.28820320842777L322.40887999999995,197.02879941986868L323.50939555555556,207.26084769086162L327.9322222222222,213.65254504869057L332.20969777777776,192.1392282926421L333.49709333333334,204.73378605147485L335.11672,199.11309711039235L335.4697155555556,195.7584648603211L336.03035555555556,193.41539657557072L336.4664088888889,195.04657538201846L336.7155822222222,191.15339245478174L337.0270488888889,194.5208405380241L339.72642666666667,188.31191125659893L343.1110311111111,196.2560973116681L343.19408888888887,193.72323159867076L345.22900444444446,197.6742915898177L346.10111111111115,206.309260212756L347.1600977777778,191.25815382205056L347.63768,189.8475582516349L348.8627822222223,203.96580676532724L351.5829244444445,202.7379915016707L353.1194933333333,178.81401246177055L357.1893244444444,182.60842476717767L360.10316,180.95264302749715L361.47361333333333,189.1867253009038L361.6189644444445,186.29550843379243L362.15884,176.32293572986924L362.5326,180.8605983672428L363.75770222222224,189.66274647819327L364.7959244444445,198.9703132445057L368.63734666666664,202.3514640888238L368.76193333333333,204.6653734064498L369.38486666666665,203.2884177217721L369.5717466666667,203.3679816633367L369.7793911111111,182.2893316215219L371.68972,179.86874281561026L371.8766,193.8293489408234L372.31265333333334,192.15904942701692L373.6415777777778,178.46570958823222L374.0361022222222,178.95259245711722L378.14746222222226,187.96119036959504L380.0162622222222,193.98700284175214L381.80200444444444,205.09763116366946L383.00634222222226,196.73218013481667L386.10024444444446,199.13472691557627L386.14177333333333,202.0777272664417L386.8062355555556,198.1943781544512L387.4499333333334,201.4448088270274L391.6443511111111,194.82066771160643L392.14269777777776,197.3854785726731L392.3295777777778,190.88410196103246L393.4716222222222,188.44501789449208L396.89775555555553,194.9325690271768L399.0157288888889,204.14496946348626L399.4517822222222,190.2975467205875L402.1995022222222,192.94241286282735L403.6945422222222,185.01902275660632L404.15136,195.02252071725724L404.50435555555555,193.1112259246552L405.45952,195.50670752630495L407.5152,184.36009532037892L411.5019733333333,182.41535972251603L413.8068266666667,176.00482892211744L413.8275911111111,180.7131101084737L414.82428444444446,168.8495083208673L415.69639111111115,180.15880939696984L419.1640533333333,196.5504186471388L419.8077511111111,184.68246590614828L420.5137422222222,191.1342722625763L422.7563022222222,187.81849632568543L423.4415288888889,193.37551873867147L423.8568177777778,198.2615782853629L424.3551644444445,194.88507297257576L424.3759288888889,198.51575869691368L424.83274666666665,189.1775999687433L426.2032,192.26664165391443L427.01301333333333,196.07812516530703L427.2206577777778,188.8637177028677L429.06869333333333,197.4728302883161L429.3593955555556,207.31596564811784L429.96156444444443,205.377302167191L430.12768,208.8387980445468L430.7298488888889,203.79417443181538L432.7855288888889,203.8349309200374L437.58211555555556,191.93625527824923L438.16351999999995,184.89162415388802L438.9318044444445,187.7088479883884L439.65855999999997,195.73919505401938L439.90773333333334,185.91311885431105L441.2366577777778,195.91828666636167L444.0398577777778,198.55565578048714L445.1471866666667,194.8304731268006L447.90885777777777,189.9623166214417L447.92962222222224,191.5633413011426L450.83664444444446,202.7242236146089L453.3491422222222,207.2460767274354L453.4944933333333,194.24557694466435L456.0900488888889,199.32359853191093L458.4364311111111,193.0050452637846L459.41236,193.42069249678698L460.3052311111111,196.67200251417785L461.71721333333335,201.18624305723566L462.81772888888884,197.32865796088254L464.9357022222222,192.7506106710379L470.20987111111106,204.65103626346257L470.3344577777778,210.56772923526566L472.59778222222224,210.70275263820528L472.88848444444443,204.92550676366352L474.48734666666667,198.01832881749073L474.61193333333335,209.02166614043952L476.39767555555557,220.29175184433606L476.8752577777778,203.1299534694251L478.3287688888889,211.7180763754783L478.7855866666667,204.46571625909434L479.47081333333335,209.39452794576422L479.96916,206.65021450152835L480.79973777777775,198.03589886922146L481.1734977777778,193.53753944932524L481.29808444444444,204.57855790078105L481.3603777777778,204.42981701624072L482.93847555555556,198.2239952417116L482.95923999999997,201.00332524370555L483.93516888888894,195.7063860058272L484.57886666666667,207.44446422812248L485.13950666666665,200.52777086589876L485.20180000000005,199.0191200428852L485.3056222222222,205.10340360722833L486.7659466666667,207.2408666844481L488.01181333333335,204.19626118155202L489.19538666666665,207.5172161663287L490.1297866666667,215.49613528279738L490.9811288888889,201.42773225801156L491.25106666666665,198.23662986097912L491.2718311111111,194.7172025545727L491.72864888888887,198.3344266238386L492.06088,209.0369923962697L494.36573333333337,196.76864281019834L494.8017866666667,204.2559316797332L496.23453333333333,185.00852984447934L496.2968266666667,186.66797365104946L496.31759111111114,200.63475573871014L497.31428444444447,209.9350630093424L497.8126311111111,208.12867677502683L500.5535377777778,210.06382234271078L502.48463111111107,209.43706502542324L503.8135555555555,198.00209463849916L505.16324444444444,200.55410822162185L505.6408266666666,198.99957652049753L507.38504,205.26158492062982L507.44733333333335,205.29922051605283L507.5511555555555,204.87142057047308L508.94237333333336,216.51110383764518L509.3161333333333,223.19373884734875L510.8734666666667,217.4438040908418L511.68328,192.44908043481362L514.9640622222222,191.96996753655347L515.8569333333334,186.6527424886374L517.3312088888889,198.92150043455052L517.8710844444445,206.37089022998387L518.3071377777778,203.53998418452963L518.4317244444444,208.40586216332093L521.7125066666667,212.2090959255789L526.6752088888888,205.83822582393256L526.9451466666667,206.219346703466L527.6511377777778,204.56695214591994L528.4401866666667,194.06711621095283L529.0076399999999,202.06346508866275L531.3747866666666,209.34688137177065L532.1015422222222,200.89306603791377L532.8698266666667,195.99651066614425L534.7593911111111,195.70046534629603L537.4587688888889,189.4719329744097L539.0161022222222,195.41685123857954L540.8849022222222,202.30714478264508L540.9471955555556,208.79844511848842L544.0826266666667,207.32808266462177L545.2039066666666,197.1712069891768L545.4115511111111,191.45457203286153L546.1175422222223,189.30753948150434L546.3251866666667,193.45986786996338L546.8650622222223,192.9037594051064L547.7994622222222,193.892966893369L548.2770444444444,208.9415507001007L549.8343777777777,214.82333105101134L550.2289022222222,213.87365823563306L551.2048311111112,220.48123343930467L553.5512133333334,211.05525646296633L554.5686711111111,215.1006877046078L556.2505911111111,216.29321792252358L556.479,222.01876560764012L556.8942888888889,228.48609418819245L558.4100933333334,222.0786115118855L561.8154622222222,215.65675700837335L564.743248888889,208.31710389336325L565.5530622222223,208.02664348530993L566.1552311111111,208.75503142504826L567.9617377777778,213.46395668881496L568.9584311111112,214.9776730149827L568.99996,222.58132157384406L569.7890088888889,220.75011855160625L570.2665911111111,205.32611793157716L571.7269155555556,205.1158611409501L574.6547022222222,207.04793641761754L575.9836266666666,199.0340100157011L578.0185422222222,210.1739215628951L578.1846577777778,199.70106209377343L581.7976711111112,218.9530546966785L582.4828977777778,220.24038350007496L584.0194666666666,213.727322813401" fill="none"></path></g></g></g></g><g opacity="0.2"><g><g><g><path style="fill: none;" stroke="rgb(0, 119, 187)" stroke-width="2px" d="M66.38392888888889,-28.298468112945557L66.86151111111111,41.055471539497375L68.37731555555555,-22.220940828323364L69.66471111111112,13.31774389743805L69.76853333333334,45.006046772003174L70.20458666666667,13.480977773666382L70.57834666666666,34.45291471481323L71.30510222222222,1.433664321899414L71.34663111111111,30.6557275056839L71.51274666666667,1.3865303993225098L74.752,-5.150710344314575L76.03939555555556,15.664774417877197L76.93226666666668,42.364924907684326L77.07761777777777,-3.5242745876312256L78.07431111111111,20.030069589614868L78.34424888888888,26.38573658466339L79.73546666666667,18.76964271068573L79.90158222222223,37.6863648891449L81.56273777777777,21.59251856803894L81.68732444444444,22.623133778572083L82.26872888888889,11.861098408699036L85.07192888888889,36.13256764411926L85.9648,50.631250619888306L87.04455111111112,49.17194652557373L87.8336,22.596795558929443L89.41169777777777,44.54417037963867L91.09361777777778,37.23061680793762L92.23566222222223,53.884077072143555L92.29795555555555,92.35826790332794L92.58865777777778,69.48639678955078L92.67171555555555,18.85061752796173L93.66840888888889,23.06421446800232L93.81376,62.24135863780975L94.72739555555556,48.9811577796936L95.3503288888889,58.40415716171265L97.13607111111111,60.434565782547L97.80053333333335,68.75104451179504L100.0223288888889,39.095290660858154L100.9152,32.570802211761475L100.97749333333333,36.95385146141052L103.1992888888889,48.36400079727173L103.88451555555557,26.868701577186584L104.71509333333333,77.92850589752197L105.33802666666666,73.17316174507141L107.17211111111111,61.955490946769714L108.41797777777778,92.12550473213196L110.30754222222222,85.0999367237091L110.55671555555556,55.41590702533722L111.22117777777777,54.989381074905396L111.86487555555556,67.38672924041748L112.79927555555557,83.53834390640259L114.50196,104.685298204422L115.47788888888888,49.715338468551636L115.83088444444444,86.41774892807007L115.87241333333333,93.51469373703003L115.97623555555556,58.577011585235596L116.49534666666668,81.22756505012512L116.5161111111111,85.73259472846985L116.76528444444445,45.74549961090088L116.86910666666667,110.39526200294495L117.47127555555555,98.65413880348206L120.64823555555554,90.95693492889404L121.79028000000001,111.37689578533173L126.5038088888889,86.78819632530212L127.97808444444445,84.14723217487335L128.0403777777778,90.07335412502289L130.5321111111111,92.10225319862366L131.96485777777778,101.41742134094238L132.29708888888888,99.18694138526917L132.31785333333335,102.98694491386414L133.5221911111111,96.66086053848267L137.15596888888888,50.91310787200928L140.02146222222223,110.46995079517365L140.06299111111113,104.35783910751343L141.10121333333333,97.53847074508667L142.57548888888888,96.45808553695679L144.09129333333334,115.42779958248138L144.23664444444444,140.56755137443542L146.45844,122.63622558116913L147.03984444444444,100.2117211818695L148.701,99.16195499897003L149.97444444444446,87.0240912437439L152.00936000000002,97.16851902008057L152.75688000000002,114.32666373252869L154.52185777777777,124.73983597755432L156.2453066666667,84.776127576828L158.15563555555556,118.76405668258667L158.5086311111111,93.27285075187683L158.94468444444445,112.12412166595459L161.72712,150.839761197567L161.81017777777777,126.69355058670044L161.97629333333333,125.78804755210876L164.30191111111114,127.87971675395966L164.59261333333333,119.23462986946106L165.38166222222222,117.45327401161194L166.50294222222223,113.62262892723083L168.10180444444447,146.72170507907867L169.74219555555555,148.29828071594238L169.78372444444446,149.00914227962494L170.90500444444444,153.13315773010254L171.4864088888889,174.171266913414L175.86770666666666,142.01462137699127L176.1584088888889,126.53092503547668L177.42504000000002,120.1493479013443L180.1036533333333,141.49062824249268L182.80303111111112,155.76274394989014L183.71666666666667,160.2024575471878L185.48164444444444,146.64663326740265L186.64445333333333,140.95987594127655L186.78980444444443,119.64811062812805L187.53732444444444,156.01920926570892L189.26077333333333,93.24205148220062L192.17460888888888,180.24208009243011L193.60735555555553,183.57984673976898L194.00188,130.73354959487915L195.4553911111111,183.81511080265045L195.9329733333333,125.94445466995239L197.2618977777778,173.51234954595566L200.2519777777778,154.45389890670776L201.37325777777778,152.1872799396515L201.97542666666666,141.31917071342468L203.90652,185.18690621852875L203.96881333333334,188.52471792697906L204.21798666666666,138.8691304922104L207.18730222222223,135.90226185321808L209.51292,144.58716022968292L212.58605777777777,134.92997825145721L213.4374,162.82902467250824L216.67665333333335,177.70230066776276L218.1509288888889,182.1958622932434L219.5629111111111,153.75770473480225L219.77055555555555,160.28911006450653L219.8328488888889,150.44120693206787L220.14431555555555,154.2337641119957L220.82954222222222,159.5578808784485L224.60867111111114,137.8076709508896L226.58129333333335,197.97835886478424L226.7889377777778,148.48163437843323L227.51569333333333,150.29784500598907L230.79647555555556,156.0905635356903L232.35380888888886,163.6877317428589L234.70700444444444,185.4237699508667L235.55834666666667,147.5632438659668L238.50689777777777,184.15119910240173L238.61072,166.3488382101059L238.7976,141.50498020648956L240.72869333333333,149.90461921691895L241.3100977777778,140.0747855901718L241.51774222222224,164.72600734233856L243.44883555555555,173.9346284866333L244.15482666666668,170.05223071575165L249.20058666666668,153.1172286272049L249.80275555555554,191.22093826532364L250.23880888888888,140.14819014072418L250.38416,206.253471493721L251.58849777777777,169.6668906211853L252.87589333333332,148.08685398101807L257.13260444444444,179.14974242448807L258.29541333333333,167.76080560684204L258.9598755555556,166.30025106668472L260.7663822222222,176.9518867135048L261.45160888888887,178.91827476024628L263.2373511111111,181.99764972925186L263.50728888888887,201.05526673793793L265.3760888888889,184.69242811203003L265.8536711111111,161.92253029346466L266.2274311111111,197.16396939754486L269.23827555555556,167.0471389889717L270.5672,189.78886234760284L273.70263111111115,145.7631425857544L274.24250666666666,202.60764455795288L278.2153288888889,146.62018239498138L278.36068,163.6916971206665L280.7693555555556,176.74191319942474L282.4305111111111,194.21388602256775L283.3233822222222,158.64187860488892L285.08836,170.22725933790207L285.7320577777778,177.84680038690567L286.0642888888889,189.87910848855972L287.24786222222224,189.2363117337227L288.20302666666663,172.9336634874344L288.2237911111111,151.24730515480042L288.6806088888889,191.8318768143654L289.94724,173.4890867471695L290.13412,167.27612829208374L291.21387111111113,198.20210981369019L291.2761644444444,169.18364399671555L292.0652133333333,210.25986617803574L292.54279555555553,169.70261281728745L292.7089111111111,180.5384920835495L293.66407555555554,142.80233466625214L295.36676,211.3369506597519L295.76128444444447,176.91451978683472L297.36014666666665,143.01257854700089L298.6475422222222,205.97230142354965L301.9490888888889,177.3038477897644L303.04960444444447,151.7910350561142L303.46489333333335,163.39952087402344L304.10859111111114,215.92550110816956L304.2954711111111,193.12791323661804L305.0014622222222,193.8131462931633L306.70414666666665,201.6857167482376L307.4724311111111,204.99158012866974L309.00899999999996,168.35400134325027L311.37614666666667,171.66523826122284L313.3695333333333,154.42893505096436L313.47335555555554,183.65102076530457L314.22087555555555,146.0329910516739L314.86457333333334,183.58054518699646L316.8787244444444,205.38180935382843L317.4186,177.77701199054718L317.8338888888889,186.89420413970947L320.0209688888889,192.09243142604828L322.40887999999995,211.63969373703003L323.50939555555556,222.60892009735107L327.9322222222222,223.24009108543396L332.20969777777776,159.86925315856934L333.49709333333334,223.62562268972397L335.11672,190.68206369876862L335.4697155555556,190.72651648521423L336.03035555555556,189.90079414844513L336.4664088888889,197.49334359169006L336.7155822222222,185.3136180639267L337.0270488888889,199.57201266288757L339.72642666666667,178.9985173344612L343.1110311111111,208.17237639427185L343.19408888888887,189.9239330291748L345.22900444444446,203.6008815765381L346.10111111111115,219.2617131471634L347.1600977777778,168.68149423599243L347.63768,187.73166489601135L348.8627822222223,225.14317953586578L351.5829244444445,200.8962686061859L353.1194933333333,142.92804390192032L357.1893244444444,188.3000432252884L360.10316,178.46897041797638L361.47361333333333,201.5378487110138L361.6189644444445,181.9586831331253L362.15884,161.36407667398453L362.5326,187.66709232330322L363.75770222222224,202.865968644619L364.7959244444445,212.9316633939743L368.63734666666664,207.4231903553009L368.76193333333333,208.1362373828888L369.38486666666665,201.22298419475555L369.5717466666667,203.4873275756836L369.7793911111111,150.67135655879974L371.68972,176.23785960674286L371.8766,214.77025812864304L372.31265333333334,189.65360015630722L373.6415777777778,157.92569983005524L374.0361022222222,179.68291676044464L378.14746222222226,201.47408723831177L380.0162622222222,203.0257215499878L381.80200444444444,221.7635736465454L383.00634222222226,184.18400359153748L386.10024444444446,202.7385470867157L386.14177333333333,206.49222779273987L386.8062355555556,192.36935448646545L387.4499333333334,206.32045483589172L391.6443511111111,184.88445603847504L392.14269777777776,201.23269486427307L392.3295777777778,181.13203704357147L393.4716222222222,184.78639179468155L396.89775555555553,204.66389572620392L399.0157288888889,217.96357011795044L399.4517822222222,169.52641260623932L402.1995022222222,196.90971207618713L403.6945422222222,173.13393759727478L404.15136,210.02776765823364L404.50435555555555,190.2442837357521L405.45952,199.0999299287796L407.5152,167.64017701148987L411.5019733333333,179.49825632572174L413.8068266666667,166.38903272151947L413.8275911111111,187.77553188800812L414.82428444444446,151.0541056394577L415.69639111111115,197.12276101112366L419.1640533333333,221.13783252239227L419.8077511111111,166.88053679466248L420.5137422222222,200.81198179721832L422.7563022222222,182.84483242034912L423.4415288888889,201.71105235815048L423.8568177777778,205.59066760540009L424.3551644444445,189.82031500339508L424.3759288888889,203.96178728342056L424.83274666666665,175.17036187648773L426.2032,196.90020418167114L427.01301333333333,201.79535043239594L427.2206577777778,178.04210650920868L429.06869333333333,210.38649916648865L429.3593955555556,222.08066868782043L429.96156444444443,202.46930694580078L430.12768,214.03104186058044L430.7298488888889,196.2272390127182L432.7855288888889,203.89606565237045L437.58211555555556,174.08824181556702L438.16351999999995,174.3246774673462L438.9318044444445,191.934683740139L439.65855999999997,207.78471565246582L439.90773333333334,171.17400455474854L441.2366577777778,210.92603838443756L444.0398577777778,202.51170945167542L445.1471866666667,189.24269914627075L447.90885777777777,182.66008186340332L447.92962222222224,193.96487832069397L450.83664444444446,219.46554708480835L453.3491422222222,214.0288563966751L453.4944933333333,174.7448272705078L456.0900488888889,206.94063091278076L458.4364311111111,183.52721536159515L459.41236,194.0441633462906L460.3052311111111,201.54896754026413L461.71721333333335,207.95760387182236L462.81772888888884,191.54228031635284L464.9357022222222,185.8835397362709L470.20987111111106,222.5016746520996L470.3344577777778,219.44276869297028L472.59778222222224,210.90528774261475L472.88848444444443,196.2596379518509L474.48734666666667,187.6575618982315L474.61193333333335,225.52667212486267L476.39767555555557,237.19688040018082L476.8752577777778,177.38725590705872L478.3287688888889,224.6002607345581L478.7855866666667,193.58717608451843L479.47081333333335,216.78774547576904L479.96916,202.53374433517456L480.79973777777775,185.1144254207611L481.1734977777778,186.7900003194809L481.29808444444444,221.14008557796478L481.3603777777778,204.20670568943024L482.93847555555556,188.9152625799179L482.95923999999997,205.17232024669647L483.93516888888894,187.7609771490097L484.57886666666667,225.0515815615654L485.13950666666665,190.15273082256317L485.20180000000005,196.75614380836487L485.3056222222222,214.22982895374298L486.7659466666667,210.4470613002777L488.01181333333335,199.62935292720795L489.19538666666665,212.49864864349365L490.1297866666667,227.46451395750046L490.9811288888889,180.32512772083282L491.25106666666665,193.44997626543045L491.2718311111111,189.43806159496307L491.72864888888887,203.76026272773743L492.06088,225.09084105491638L494.36573333333337,178.3661184310913L494.8017866666667,215.4868649840355L496.23453333333333,156.1374270915985L496.2968266666667,189.1571393609047L496.31759111111114,221.5849288702011L497.31428444444447,223.88552391529083L497.8126311111111,205.41909742355347L500.5535377777778,212.96654069423676L502.48463111111107,208.49692904949188L503.8135555555555,180.8496390581131L505.16324444444444,204.38212859630585L505.6408266666666,196.66777896881104L507.38504,214.65459752082825L507.44733333333335,205.35567390918732L507.5511555555555,204.22972065210342L508.94237333333336,233.97062873840332L509.3161333333333,233.21769136190414L510.8734666666667,208.8189019560814L511.68328,154.95699495077133L514.9640622222222,191.2512981891632L515.8569333333334,178.6769049167633L517.3312088888889,217.32463735342026L517.8710844444445,217.54497492313385L518.3071377777778,199.29362511634827L518.4317244444444,215.70467913150787L521.7125066666667,217.9139465689659L526.6752088888888,196.281920671463L526.9451466666667,206.7910280227661L527.6511377777778,202.08836030960083L528.4401866666667,178.3173623085022L529.0076399999999,214.05798840522766L531.3747866666666,220.2720057964325L532.1015422222222,188.21234303712845L532.8698266666667,188.65167760849L534.7593911111111,195.25639736652374L537.4587688888889,180.1291344165802L539.0161022222222,204.3342286348343L540.8849022222222,212.64258509874344L540.9471955555556,218.53539562225342L544.0826266666667,205.12253898382187L545.2039066666666,181.93589347600937L545.4115511111111,182.87961959838867L546.1175422222223,186.08699065446854L546.3251866666667,199.68836045265198L546.8650622222223,192.0695967078209L547.7994622222222,195.37677812576294L548.2770444444444,231.5144264101982L549.8343777777777,223.64600157737732L550.2289022222222,212.4491490125656L551.2048311111112,230.392596244812L553.5512133333334,196.91629099845886L554.5686711111111,221.16883456707L556.2505911111111,218.08201324939728L556.479,230.60708713531494L556.8942888888889,238.187087059021L558.4100933333334,212.46738749742508L561.8154622222222,206.02397525310516L564.743248888889,197.30762422084808L565.5530622222223,207.59095287322998L566.1552311111111,209.84761333465576L567.9617377777778,220.52734458446503L568.9584311111112,217.2482475042343L568.99996,233.98679441213608L569.7890088888889,218.0033140182495L570.2665911111111,182.1901170015335L571.7269155555556,204.80047595500946L574.6547022222222,209.9460493326187L575.9836266666666,187.01312041282654L578.0185422222222,226.88378888368607L578.1846577777778,183.99177289009094L581.7976711111112,247.83104360103607L582.4828977777778,222.17137670516968L584.0194666666666,203.95773178339005" fill="none"></path></g></g></g></g></g></g><g transform="translate(30, 378)" clip-path="url(#clip_1)"><clipPath id="clip_1"><rect width="584" height="22"></rect></clipPath><g><g><line x1="0" y1="0" x2="0" y2="5" style="visibility: inherit;" fill="rgb(0, 0, 0)" stroke="rgb(204, 204, 204)" stroke-width="1px"></line><line x1="64.88888888888889" y1="0" x2="64.88888888888889" y2="5" style="visibility: inherit;" fill="rgb(0, 0, 0)" stroke="rgb(204, 204, 204)" stroke-width="1px"></line><line x1="129.77777777777777" y1="0" x2="129.77777777777777" y2="5" style="visibility: inherit;" fill="rgb(0, 0, 0)" stroke="rgb(204, 204, 204)" stroke-width="1px"></line><line x1="194.66666666666666" y1="0" x2="194.66666666666666" y2="5" style="visibility: inherit;" fill="rgb(0, 0, 0)" stroke="rgb(204, 204, 204)" stroke-width="1px"></line><line x1="259.55555555555554" y1="0" x2="259.55555555555554" y2="5" style="visibility: inherit;" fill="rgb(0, 0, 0)" stroke="rgb(204, 204, 204)" stroke-width="1px"></line><line x1="324.44444444444446" y1="0" x2="324.44444444444446" y2="5" style="visibility: inherit;" fill="rgb(0, 0, 0)" stroke="rgb(204, 204, 204)" stroke-width="1px"></line><line x1="389.3333333333333" y1="0" x2="389.3333333333333" y2="5" style="visibility: inherit;" fill="rgb(0, 0, 0)" stroke="rgb(204, 204, 204)" stroke-width="1px"></line><line x1="454.22222222222223" y1="0" x2="454.22222222222223" y2="5" style="visibility: inherit;" fill="rgb(0, 0, 0)" stroke="rgb(204, 204, 204)" stroke-width="1px"></line><line x1="519.1111111111111" y1="0" x2="519.1111111111111" y2="5" style="visibility: inherit;" fill="rgb(0, 0, 0)" stroke="rgb(204, 204, 204)" stroke-width="1px"></line><line x1="584" y1="0" x2="584" y2="5" style="visibility: inherit;" fill="rgb(0, 0, 0)" stroke="rgb(204, 204, 204)" stroke-width="1px"></line></g><g transform="translate(0, 8)"><text x="0" y="0" dx="0em" dy="0.95em" style="text-anchor: middle; visibility: hidden; font-family: &quot;Helvetica Neue&quot;, sans-serif; font-size: 12px; font-weight: 200;" fill="rgb(50, 49, 63)" stroke="none" stroke-width="1px">-200k</text><text x="64.88888888888889" y="0" dx="0em" dy="0.95em" style="text-anchor: middle; visibility: inherit; font-family: &quot;Helvetica Neue&quot;, sans-serif; font-size: 12px; font-weight: 200;" fill="rgb(50, 49, 63)" stroke="none" stroke-width="1px">0</text><text x="129.77777777777777" y="0" dx="0em" dy="0.95em" style="text-anchor: middle; visibility: inherit; font-family: &quot;Helvetica Neue&quot;, sans-serif; font-size: 12px; font-weight: 200;" fill="rgb(50, 49, 63)" stroke="none" stroke-width="1px">200k</text><text x="194.66666666666666" y="0" dx="0em" dy="0.95em" style="text-anchor: middle; visibility: inherit; font-family: &quot;Helvetica Neue&quot;, sans-serif; font-size: 12px; font-weight: 200;" fill="rgb(50, 49, 63)" stroke="none" stroke-width="1px">400k</text><text x="259.55555555555554" y="0" dx="0em" dy="0.95em" style="text-anchor: middle; visibility: inherit; font-family: &quot;Helvetica Neue&quot;, sans-serif; font-size: 12px; font-weight: 200;" fill="rgb(50, 49, 63)" stroke="none" stroke-width="1px">600k</text><text x="324.44444444444446" y="0" dx="0em" dy="0.95em" style="text-anchor: middle; visibility: inherit; font-family: &quot;Helvetica Neue&quot;, sans-serif; font-size: 12px; font-weight: 200;" fill="rgb(50, 49, 63)" stroke="none" stroke-width="1px">800k</text><text x="389.3333333333333" y="0" dx="0em" dy="0.95em" style="text-anchor: middle; visibility: inherit; font-family: &quot;Helvetica Neue&quot;, sans-serif; font-size: 12px; font-weight: 200;" fill="rgb(50, 49, 63)" stroke="none" stroke-width="1px">1M</text><text x="454.22222222222223" y="0" dx="0em" dy="0.95em" style="text-anchor: middle; visibility: inherit; font-family: &quot;Helvetica Neue&quot;, sans-serif; font-size: 12px; font-weight: 200;" fill="rgb(50, 49, 63)" stroke="none" stroke-width="1px">1.2M</text><text x="519.1111111111111" y="0" dx="0em" dy="0.95em" style="text-anchor: middle; visibility: inherit; font-family: &quot;Helvetica Neue&quot;, sans-serif; font-size: 12px; font-weight: 200;" fill="rgb(50, 49, 63)" stroke="none" stroke-width="1px">1.4M</text><text x="584" y="0" dx="0em" dy="0.95em" style="text-anchor: middle; visibility: hidden; font-family: &quot;Helvetica Neue&quot;, sans-serif; font-size: 12px; font-weight: 200;" fill="rgb(50, 49, 63)" stroke="none" stroke-width="1px">1.6M</text></g><line x1="0" y1="0" x2="584" y2="0" fill="rgb(0, 0, 0)" stroke="rgb(204, 204, 204)" stroke-width="1px"></line></g></g></g></g></svg>