<svg viewBox="0 0 330 200" xmlns="http://www.w3.org/2000/svg"><g><g><g><g><g><line x1="30" y1="159.58849886089314" x2="25" y2="159.58849886089314" style="visibility: inherit;" fill="rgb(0, 0, 0)" stroke="rgb(204, 204, 204)" stroke-width="1px"></line><line x1="30" y1="137.33849886089314" x2="25" y2="137.33849886089314" style="visibility: inherit;" fill="rgb(0, 0, 0)" stroke="rgb(204, 204, 204)" stroke-width="1px"></line><line x1="30" y1="115.08849886089314" x2="25" y2="115.08849886089314" style="visibility: inherit;" fill="rgb(0, 0, 0)" stroke="rgb(204, 204, 204)" stroke-width="1px"></line><line x1="30" y1="92.83849886089315" x2="25" y2="92.83849886089315" style="visibility: inherit;" fill="rgb(0, 0, 0)" stroke="rgb(204, 204, 204)" stroke-width="1px"></line><line x1="30" y1="70.58849886089315" x2="25" y2="70.58849886089315" style="visibility: inherit;" fill="rgb(0, 0, 0)" stroke="rgb(204, 204, 204)" stroke-width="1px"></line><line x1="30" y1="48.33849886089317" x2="25" y2="48.33849886089317" style="visibility: inherit;" fill="rgb(0, 0, 0)" stroke="rgb(204, 204, 204)" stroke-width="1px"></line><line x1="30" y1="26.088498860893168" x2="25" y2="26.088498860893168" style="visibility: inherit;" fill="rgb(0, 0, 0)" stroke="rgb(204, 204, 204)" stroke-width="1px"></line><line x1="30" y1="3.8384988608931963" x2="25" y2="3.8384988608931963" style="visibility: inherit;" fill="rgb(0, 0, 0)" stroke="rgb(204, 204, 204)" stroke-width="1px"></line></g><g transform="translate(20, 0)"><text x="0" y="159.58849886089314" dx="0em" dy="0.3em" style="text-anchor: end; visibility: inherit; font-family: &quot;Helvetica Neue&quot;, sans-serif; font-size: 12px; font-weight: 200;" fill="rgb(50, 49, 63)" stroke="none" stroke-width="1px">-3</text><text x="0" y="137.33849886089314" dx="0em" dy="0.3em" style="text-anchor: end; visibility: hidden; font-family: &quot;Helvetica Neue&quot;, sans-serif; font-size: 12px; font-weight: 200;" fill="rgb(50, 49, 63)" stroke="none" stroke-width="1px">-2</text><text x="0" y="115.08849886089314" dx="0em" dy="0.3em" style="text-anchor: end; visibility: inherit; font-family: &quot;Helvetica Neue&quot;, sans-serif; font-size: 12px; font-weight: 200;" fill="rgb(50, 49, 63)" stroke="none" stroke-width="1px">-1</text><text x="0" y="92.83849886089315" dx="0em" dy="0.3em" style="text-anchor: end; visibility: hidden; font-family: &quot;Helvetica Neue&quot;, sans-serif; font-size: 12px; font-weight: 200;" fill="rgb(50, 49, 63)" stroke="none" stroke-width="1px">0</text><text x="0" y="70.58849886089315" dx="0em" dy="0.3em" style="text-anchor: end; visibility: inherit; font-family: &quot;Helvetica Neue&quot;, sans-serif; font-size: 12px; font-weight: 200;" fill="rgb(50, 49, 63)" stroke="none" stroke-width="1px">1</text><text x="0" y="48.33849886089317" dx="0em" dy="0.3em" style="text-anchor: end; visibility: hidden; font-family: &quot;Helvetica Neue&quot;, sans-serif; font-size: 12px; font-weight: 200;" fill="rgb(50, 49, 63)" stroke="none" stroke-width="1px">2</text><text x="0" y="26.088498860893168" dx="0em" dy="0.3em" style="text-anchor: end; visibility: inherit; font-family: &quot;Helvetica Neue&quot;, sans-serif; font-size: 12px; font-weight: 200;" fill="rgb(50, 49, 63)" stroke="none" stroke-width="1px">3</text><text x="0" y="3.8384988608931963" dx="0em" dy="0.3em" style="text-anchor: end; visibility: hidden; font-family: &quot;Helvetica Neue&quot;, sans-serif; font-size: 12px; font-weight: 200;" fill="rgb(50, 49, 63)" stroke="none" stroke-width="1px">4</text></g><line x1="30" y1="0" x2="30" y2="178" fill="rgb(0, 0, 0)" stroke="rgb(204, 204, 204)" stroke-width="1px"></line></g></g><g transform="translate(30, 0)" clip-path="url(#clip_0)"><clipPath id="clip_0"><rect width="300" height="178"></rect></clipPath><g><g><g><line x1="11.712486662906972" y1="0" x2="11.712486662906972" y2="178" fill="rgb(0, 0, 0)" stroke="rgb(60, 60, 60)" stroke-width="1px" opacity="0.25"></line><line x1="45.04581999624032" y1="0" x2="45.04581999624032" y2="178" fill="rgb(0, 0, 0)" stroke="rgb(60, 60, 60)" stroke-width="1px" opacity="0.25"></line><line x1="78.37915332957365" y1="0" x2="78.37915332957365" y2="178" fill="rgb(0, 0, 0)" stroke="rgb(60, 60, 60)" stroke-width="1px" opacity="0.25"></line><line x1="111.71248666290701" y1="0" x2="111.71248666290701" y2="178" fill="rgb(0, 0, 0)" stroke="rgb(60, 60, 60)" stroke-width="1px" opacity="0.25"></line><line x1="145.04581999624037" y1="0" x2="145.04581999624037" y2="178" fill="rgb(0, 0, 0)" stroke="rgb(60, 60, 60)" stroke-width="1px" opacity="0.25"></line><line x1="178.3791533295737" y1="0" x2="178.3791533295737" y2="178" fill="rgb(0, 0, 0)" stroke="rgb(60, 60, 60)" stroke-width="1px" opacity="0.25"></line><line x1="211.71248666290705" y1="0" x2="211.71248666290705" y2="178" fill="rgb(0, 0, 0)" stroke="rgb(60, 60, 60)" stroke-width="1px" opacity="0.25"></line><line x1="245.0458199962404" y1="0" x2="245.0458199962404" y2="178" fill="rgb(0, 0, 0)" stroke="rgb(60, 60, 60)" stroke-width="1px" opacity="0.25"></line><line x1="278.37915332957374" y1="0" x2="278.37915332957374" y2="178" fill="rgb(0, 0, 0)" stroke="rgb(60, 60, 60)" stroke-width="1px" opacity="0.25"></line></g><g><line x1="0" y1="159.58849886089314" x2="300" y2="159.58849886089314" fill="rgb(0, 0, 0)" stroke="rgb(60, 60, 60)" stroke-width="1px" opacity="0.25"></line><line x1="0" y1="137.33849886089314" x2="300" y2="137.33849886089314" fill="rgb(0, 0, 0)" stroke="rgb(60, 60, 60)" stroke-width="1px" opacity="0.25"></line><line x1="0" y1="115.08849886089314" x2="300" y2="115.08849886089314" fill="rgb(0, 0, 0)" stroke="rgb(60, 60, 60)" stroke-width="1px" opacity="0.25"></line><line x1="0" y1="92.83849886089315" x2="300" y2="92.83849886089315" fill="rgb(0, 0, 0)" stroke="rgb(60, 60, 60)" stroke-width="1px" opacity="0.25"></line><line x1="0" y1="70.58849886089315" x2="300" y2="70.58849886089315" fill="rgb(0, 0, 0)" stroke="rgb(60, 60, 60)" stroke-width="1px" opacity="0.25"></line><line x1="0" y1="48.33849886089317" x2="300" y2="48.33849886089317" fill="rgb(0, 0, 0)" stroke="rgb(60, 60, 60)" stroke-width="1px" opacity="0.25"></line><line x1="0" y1="26.088498860893168" x2="300" y2="26.088498860893168" fill="rgb(0, 0, 0)" stroke="rgb(60, 60, 60)" stroke-width="1px" opacity="0.25"></line><line x1="0" y1="3.8384988608931963" x2="300" y2="3.8384988608931963" fill="rgb(0, 0, 0)" stroke="rgb(60, 60, 60)" stroke-width="1px" opacity="0.25"></line></g></g></g><g><g><line x1="0" y1="92.83849886089315" x2="300" y2="92.83849886089315" fill="rgb(0, 0, 0)" stroke="rgb(153, 153, 153)" stroke-width="1.5px"></line></g></g><g><g><line x1="111.71248666290701" y1="0" x2="111.71248666290701" y2="178" fill="rgb(0, 0, 0)" stroke="rgb(153, 153, 153)" stroke-width="1.5px"></line></g></g><g><g><g><g><g><path stroke="rgb(0, 119, 187)" stroke-width="2px" d="M111.80421999624035,81.71349886089315L111.81061999624033,81.71349886089315L111.86608666290701,81.71349886089315L111.91515332957368,81.71349886089315L112.07088666290701,81.71349886089315L112.20315332957368,81.71349886089315L112.21381999624035,81.71349886089315L112.25861999624034,81.71349886089315L112.29701999624035,81.71349886089315L112.37168666290701,81.71349886089315L112.37595332957368,81.71349886089315L112.39301999624034,81.71349886089315L112.72581999624035,81.71349886089315L112.85808666290701,81.71349886089315L112.94981999624035,81.71349886089315L112.96475332957368,81.71349886089315L113.06715332957369,81.71349886089315L113.094886662907,81.71349886089315L113.23781999624035,81.71349886089315L113.25488666290701,81.71349886089315L113.42555332957367,81.71349886089315L113.43835332957369,81.71349886089315L113.49808666290701,81.71349886089315L113.78608666290701,81.71349886089315L113.87781999624035,81.71349886089315L113.98875332957368,81.71349886089315L114.06981999624034,81.71349886089315L114.23195332957368,81.71349886089315L114.4047533295737,81.71349886089315L114.52208666290701,81.71349886089315L114.52848666290701,81.71349886089315L114.55835332957368,81.71349886089315L114.56688666290701,81.71349886089315L114.66928666290701,81.71349886089315L114.68421999624034,81.71349886089315L114.77808666290701,81.71349886089315L114.84208666290702,81.71349886089315L115.02555332957368,81.71349886089315L115.09381999624034,81.71349886089315L115.32208666290703,81.71349886089315L115.41381999624033,81.71349886089315L115.42021999624035,81.71349886089315L115.64848666290702,81.71349886089315L115.71888666290701,81.71349886089315L115.80421999624035,81.71349886089315L115.86821999624034,81.71349886089315L116.05665332957369,81.71349886089315L116.18465332957368,81.71349886089315L116.378786662907,81.71349886089315L116.40438666290703,81.71349886089315L116.47265332957369,81.71349886089315L116.53878666290703,81.71349886089315L116.63478666290702,81.71349886089315L116.80971999624035,81.71349886089315L116.90998666290702,81.71349886089315L116.94625332957368,81.71349886089315L116.95051999624035,81.71349886089315L116.96118666290701,81.71349886089315L117.01451999624035,81.71349886089315L117.01665332957369,81.71349886089315L117.04225332957368,81.71349886089315L117.05291999624035,81.71349886089315L117.11478666290702,81.71349886089315L117.44118666290701,81.71349886089315L117.55851999624035,81.71349886089315L118.04278666290702,81.71349886089315L118.19425332957368,81.71349886089315L118.20065332957368,81.71349886089315L118.45665332957367,81.71349886089315L118.60385332957368,81.71349886089315L118.63798666290701,81.71349886089315L118.64011999624034,81.71349886089315L118.76385332957368,81.71349886089315L119.13718666290701,81.71349886089315L119.43158666290701,81.71349886089315L119.43585332957369,81.71349886089315L119.54251999624036,81.71349886089315L119.69398666290702,81.71349886089315L119.84971999624034,81.71349886089315L119.86465332957368,81.71349886089315L120.09291999624035,81.71349886089315L120.15265332957368,81.71349886089315L120.32331999624034,81.71349886089315L120.45415332957369,81.71349886089315L120.66321999624034,81.71349886089315L120.74001999624035,81.71349886089315L120.92135332957368,81.71349886089315L121.09841999624035,81.71349886089315L121.29468666290703,81.71349886089315L121.33095332957367,81.71349886089315L121.37575332957368,81.71349886089315L121.66161999624035,81.71349886089315L121.67015332957368,81.71349886089315L121.68721999624036,81.71349886089315L121.9261533295737,81.71349886089315L121.95601999624034,81.71349886089315L122.03708666290702,81.71349886089315L122.15228666290702,81.71349886089315L122.31655332957368,81.71349886089315L122.48508666290702,81.71349886089315L122.48935332957369,81.71349886089315L122.60455332957369,81.71349886089315L122.66428666290702,81.71349886089315L123.11441999624036,81.71349886089315L123.14428666290702,81.71349886089315L123.27441999624035,81.71349886089315L123.54961999624035,81.71349886089315L123.8269533295737,81.71349886089315L123.92081999624035,81.71349886089315L124.1021533295737,81.71349886089315L124.22161999624035,81.71349886089315L124.2365533295737,81.71349886089315L124.31335332957369,81.71349886089315L124.49041999624035,81.71349886089315L124.78978666290702,81.71349886089315L124.93698666290702,81.71349886089315L124.97751999624036,81.71349886089315L125.12685332957368,81.71349886089315L125.17591999624035,81.71349886089315L125.31245332957369,81.71349886089315L125.6196533295737,81.71349886089315L125.73485332957368,81.71349886089315L125.79671999624036,81.71349886089315L125.99511999624036,81.71349886089315L126.00151999624035,81.71349886089315L126.02711999624034,81.71349886089315L126.33218666290702,81.71349886089315L126.57111999624036,81.71349886089315L126.8868533295737,81.71349886089315L126.97431999624035,81.71349886089315L127.30711999624036,81.71349886089315L127.45858666290702,81.71349886089315L127.60365332957367,81.71349886089315L127.62498666290702,81.71349886089315L127.63138666290702,81.71349886089315L127.66338666290703,81.71349886089315L127.73378666290702,81.71349886089315L128.12205332957367,81.71349886089315L128.32471999624036,81.71349886089315L128.3460533295737,81.71349886089315L128.42071999624036,81.71349886089315L128.75778666290702,81.71349886089315L128.91778666290702,81.71349886089315L129.1595533295737,81.71349886089315L129.24701999624034,81.71349886089315L129.54995332957367,81.71349886089315L129.56061999624035,81.71349886089315L129.57981999624036,81.71349886089315L129.77821999624035,81.71349886089315L129.83795332957368,81.71349886089315L129.85928666290704,81.71349886089315L130.057686662907,81.71349886089315L130.13021999624036,81.71349886089315L130.64861999624034,81.71349886089315L130.71048666290702,81.71349886089315L130.75528666290703,81.71349886089315L130.77021999624037,81.71349886089315L130.8939533295737,81.71349886089315L131.02621999624034,81.71349886089315L131.4635533295737,81.71349886089315L131.58301999624035,81.71349886089315L131.651286662907,81.71349886089315L131.83688666290703,81.71349886089315L131.907286662907,81.71349886089315L132.0907533295737,81.71349886089315L132.118486662907,81.71349886089315L132.310486662907,81.71349886089315L132.35955332957369,81.71349886089315L132.39795332957368,81.71349886089315L132.70728666290702,81.71349886089315L132.84381999624034,81.71349886089315L133.16595332957368,81.71349886089315L133.22141999624037,81.71349886089315L133.62958666290703,81.71349886089315L133.64451999624038,81.71349886089315L133.89198666290702,81.71349886089315L134.0626533295737,81.71349886089315L134.15438666290703,81.71349886089315L134.33571999624036,81.71349886089315L134.4018533295737,81.71349886089315L134.43598666290703,81.71349886089315L134.55758666290703,81.71349886089315L134.65571999624035,81.71349886089315L134.6578533295737,81.71349886089315L134.70478666290703,81.71349886089315L134.83491999624036,81.71349886089315L134.85411999624037,81.71349886089315L134.9650533295737,81.71349886089315L134.9714533295737,81.71349886089315L135.05251999624036,81.71349886089315L135.101586662907,81.71349886089315L135.11865332957368,81.71349886089315L135.21678666290703,81.71349886089315L135.39171999624037,81.71349886089315L135.43225332957368,81.71349886089315L135.59651999624037,81.71349886089315L135.72878666290703,81.71349886089315L136.06798666290703,81.71349886089315L136.1810533295737,81.71349886089315L136.22371999624036,81.71349886089315L136.2898533295737,81.71349886089315L136.3090533295737,81.71349886089315L136.38158666290704,81.71349886089315L136.55651999624035,81.71349886089315L136.6354533295737,81.71349886089315L136.79331999624037,81.71349886089315L137.03651999624034,81.71349886089315L137.24131999624035,81.71349886089315L137.25198666290703,81.71349886089315L137.32878666290702,81.71349886089315L137.39491999624036,81.71349886089315L137.6018533295737,81.71349886089315L137.65731999624037,81.71349886089315L137.69998666290704,81.71349886089315L137.92468666290702,81.71349886089315L138.17001999624034,81.71349886089315L138.28308666290704,81.71349886089315L138.73748666290703,81.71349886089315L139.1769533295737,81.71349886089315L139.30921999624036,81.71349886089315L139.47561999624037,81.71349886089315L139.51188666290702,81.71349886089315L139.56948666290702,81.71349886089315L139.614286662907,81.71349886089315L139.63988666290703,81.71349886089315L139.671886662907,81.71349886089315L139.94921999624037,81.71349886089315L140.29695332957368,81.71349886089315L140.30548666290701,81.71349886089315L140.5145533295737,81.71349886089315L140.6041533295737,81.71349886089315L140.71295332957368,81.71349886089315L140.76201999624035,81.71349886089315L140.88788666290702,81.71349886089315L141.1673533295737,81.71349886089315L141.32521999624038,81.71349886089315L141.7433533295737,81.71349886089315L142.04271999624035,81.71349886089315L142.18351999624036,81.71349886089315L142.19845332957368,81.71349886089315L142.25391999624037,81.71349886089315L142.29231999624037,81.71349886089315L142.41818666290703,81.71349886089315L142.5248533295737,81.71349886089315L142.91951999624035,81.71349886089315L142.93231999624035,81.71349886089315L142.99631999624037,81.71349886089315L143.01551999624036,81.71349886089315L143.0368533295737,81.71349886089315L143.23311999624036,81.71349886089315L143.25231999624037,81.71349886089315L143.29711999624035,81.71349886089315L143.43365332957367,81.71349886089315L143.47418666290702,81.71349886089315L143.89658666290703,81.71349886089315L144.08858666290703,81.71349886089315L144.2720533295737,81.71349886089315L144.39578666290703,81.71349886089315L144.7136533295737,81.71349886089315L144.71791999624037,81.71349886089315L144.78618666290703,81.71349886089315L144.85231999624034,81.71349886089315L145.28325332957368,81.71349886089315L145.33445332957368,81.71349886089315L145.3536533295737,81.71349886089315L145.47098666290702,81.71349886089315L145.82298666290703,81.71349886089315L146.04058666290703,81.71349886089315L146.085386662907,81.71349886089315L146.36768666290703,81.71349886089315L146.52128666290704,81.71349886089315L146.56821999624034,81.71349886089315L146.60448666290702,81.71349886089315L146.70261999624034,81.71349886089315L146.91381999624036,81.71349886089315L147.32341999624037,81.71349886089315L147.56021999624036,81.71349886089315L147.5623533295737,81.71349886089315L147.6647533295737,81.71349886089315L147.7543533295737,81.71349886089315L148.11061999624036,81.71349886089315L148.1767533295737,81.71349886089315L148.24928666290702,81.71349886089315L148.47968666290703,81.71349886089315L148.55008666290703,81.71349886089315L148.5927533295737,81.71349886089315L148.6439533295737,81.71349886089315L148.646086662907,81.71349886089315L148.69301999624037,81.71349886089315L148.83381999624035,81.71349886089315L148.91701999624036,81.71349886089315L148.93835332957372,81.71349886089315L149.12821999624035,81.71349886089315L149.15808666290704,81.71349886089315L149.21995332957368,81.71349886089315L149.23701999624035,81.71349886089315L149.29888666290702,81.71349886089315L149.510086662907,81.71349886089315L150.00288666290703,81.71349886089315L150.06261999624036,81.71349886089315L150.1415533295737,81.71349886089315L150.21621999624037,81.71349886089315L150.24181999624037,81.71349886089315L150.3783533295737,81.71349886089315L150.6663533295737,81.71349886089315L150.78011999624036,81.71349886089315L151.0638533295737,81.71349886089315L151.06598666290702,81.71349886089315L151.36465332957368,81.71349886089315L151.622786662907,81.71349886089315L151.63771999624035,81.71349886089315L151.90438666290703,81.71349886089315L152.1454533295737,81.71349886089315L152.24571999624035,81.71349886089315L152.3374533295737,81.71349886089315L152.48251999624037,81.71349886089315L152.59558666290704,81.71349886089315L152.81318666290704,81.71349886089315L153.35505332957368,81.71349886089315L153.3678533295737,81.71349886089315L153.60038666290703,81.71349886089315L153.6302533295737,81.71349886089315L153.79451999624038,81.71349886089315L153.80731999624035,81.71349886089315L153.99078666290706,81.71349886089315L154.03985332957367,81.71349886089315L154.18918666290702,81.71349886089315L154.23611999624035,81.71349886089315L154.30651999624035,81.71349886089315L154.35771999624035,81.71349886089315L154.4430533295737,81.71349886089315L154.4814533295737,81.71349886089315L154.4942533295737,81.71349886089315L154.5006533295737,81.71349886089315L154.66278666290702,81.71349886089315L154.66491999624037,81.71349886089315L154.76518666290704,81.71349886089315L154.83131999624038,81.71349886089315L154.88891999624036,81.71349886089315L154.89531999624037,81.71349886089315L154.90598666290703,81.71349886089315L155.05601999624037,81.71349886089315L155.18401999624035,81.71349886089315L155.30561999624035,81.71349886089315L155.40161999624036,81.71349886089315L155.48908666290703,81.71349886089315L155.51681999624037,81.71349886089315L155.5189533295737,81.71349886089315L155.56588666290702,81.71349886089315L155.60001999624038,81.71349886089315L155.83681999624037,81.71349886089315L155.88161999624037,81.71349886089315L156.02881999624037,81.71349886089315L156.03521999624036,81.71349886089315L156.0373533295737,81.71349886089315L156.1397533295737,81.71349886089315L156.1909533295737,81.71349886089315L156.47255332957369,81.71349886089315L156.6709533295737,81.71349886089315L156.80748666290702,81.71349886089315L156.94615332957372,81.71349886089315L156.99521999624037,81.71349886089315L157.17441999624035,81.71349886089315L157.18081999624036,81.71349886089315L157.191486662907,81.71349886089315L157.33441999624037,81.71349886089315L157.37281999624037,81.71349886089315L157.53281999624036,81.71349886089315L157.61601999624037,81.71349886089315L157.95308666290703,81.71349886089315L158.0448199962404,81.71349886089315L158.19628666290706,81.71349886089315L158.2517533295737,81.71349886089315L158.2965533295737,81.71349886089315L158.3093533295737,81.71349886089315L158.64641999624038,81.71349886089315L159.15628666290704,81.71349886089315L159.18401999624038,81.71349886089315L159.2565533295737,81.71349886089315L159.33761999624036,81.71349886089315L159.39591999624037,81.71349886089315L159.63911999624037,81.71349886089315L159.71378666290704,81.71349886089315L159.79271999624035,81.71349886089315L159.9868533295737,81.71349886089315L160.26418666290704,81.71349886089315L160.42418666290703,81.71349886089315L160.61618666290704,81.71349886089315L160.62258666290703,81.71349886089315L160.9447199962404,81.71349886089315L161.05991999624035,81.71349886089315L161.0812533295737,81.71349886089315L161.15378666290704,81.71349886089315L161.17511999624037,81.71349886089315L161.23058666290706,81.71349886089315L161.32658666290703,81.71349886089315L161.37565332957368,81.71349886089315L161.5356533295737,81.71349886089315L161.57618666290702,81.71349886089315L161.6764533295737,81.71349886089315L161.91751999624037,81.71349886089315L162.0220533295737,81.71349886089315L162.19485332957368,81.71349886089315L162.21831999624038,81.71349886089315L162.26098666290702,81.71349886089315L162.41671999624037,81.71349886089315L162.76658666290703,81.71349886089315L163.06738666290704,81.71349886089315L163.15058666290705,81.71349886089315L163.2124533295737,81.71349886089315L163.3980533295737,81.71349886089315L163.5004533295737,81.71349886089315L163.50471999624037,81.71349886089315L163.58578666290705,81.71349886089315L163.6348533295737,81.71349886089315L163.78488666290704,81.71349886089315L164.08568666290705,81.71349886089315L164.22221999624037,81.71349886089315L164.43128666290704,81.71349886089315L164.4483533295737,81.71349886089315L164.8195533295737,81.71349886089315L164.8899533295737,81.71349886089315L165.04781999624038,81.71349886089315L165.13101999624038,81.71349886089315L165.31448666290706,81.71349886089315L165.5235533295737,81.71349886089315L165.55128666290705,81.71349886089315L165.57048666290703,81.71349886089315L165.73901999624036,81.71349886089315L165.86488666290705,81.71349886089315L166.10808666290703,81.71349886089315L166.14008666290704,81.71349886089315L166.30861999624037,81.71349886089315L166.49421999624036,81.71349886089315L166.76301999624036,81.71349886089315L166.83768666290703,81.71349886089315L166.99555332957368,81.71349886089315L167.26008666290704,81.71349886089315L167.30488666290705,81.71349886089315L167.35821999624036,81.71349886089315L167.49475332957368,81.71349886089315L167.52461999624038,81.71349886089315L167.7870199962404,81.71349886089315L167.81048666290704,81.71349886089315L168.02238666290705,81.71349886089315L168.16531999624036,81.71349886089315L168.59198666290703,81.71349886089315L168.86291999624035,81.71349886089315L168.8650533295737,81.71349886089315L168.92691999624037,81.71349886089315L168.93118666290704,81.71349886089315L169.14238666290703,81.71349886089315L169.59891999624037,81.71349886089315L169.61171999624037,81.71349886089315L169.62451999624037,81.71349886089315L169.63305332957373,81.71349886089315L169.63518666290705,81.71349886089315L169.88051999624037,81.71349886089315L170.37331999624038,81.71349886089315L170.58238666290703,81.71349886089315L170.6037199962404,81.71349886089315L170.61865332957368,81.71349886089315L170.6570533295737,81.71349886089315L170.87251999624038,81.71349886089315L171.05598666290703,81.71349886089315L171.25011999624036,81.71349886089315L171.25438666290705,81.71349886089315L171.3226533295737,81.71349886089315L171.3610533295737,81.71349886089315L171.96478666290704,81.71349886089315L172.02025332957368,81.71349886089315L172.11411999624036,81.71349886089315L172.36228666290702,81.71349886089315L172.39001999624037,81.71349886089315L172.58628666290704,81.71349886089315L172.6481533295737,81.71349886089315L172.7313533295737,81.71349886089315L173.49721999624037,81.71349886089315L173.55268666290706,81.71349886089315L173.59961999624036,81.71349886089315L173.6401533295737,81.71349886089315L173.69348666290705,81.71349886089315L173.72761999624038,81.71349886089315L173.75321999624035,81.71349886089315L173.9900199962404,81.71349886089315L174.12228666290704,81.71349886089315L174.56601999624036,81.71349886089315L174.5809533295737,81.71349886089315L174.6001533295737,81.71349886089315L174.70681999624037,81.71349886089315L174.71321999624038,81.71349886089315L174.7580199962404,81.71349886089315L174.8241533295737,81.71349886089315L174.86468666290705,81.71349886089315L175.15481999624035,81.71349886089315L175.32761999624037,81.71349886089315L175.3297533295737,81.71349886089315L175.40228666290702,81.71349886089315L175.69455332957372,81.71349886089315L175.70521999624034,81.71349886089315L175.76068666290703,81.71349886089315L175.85881999624038,81.71349886089315L175.8908199962404,81.71349886089315L176.0657533295737,81.71349886089315L176.2129533295737,81.71349886089315L176.30041999624038,81.71349886089315L176.39215332957372,81.71349886089315L176.6737533295737,81.71349886089315L176.69578666290704,81.71349886089315L176.91338666290704,81.71349886089315L176.99871999624037,81.71349886089315L177.1992533295737,81.71349886089315L177.22911999624037,81.71349886089315L177.26751999624037,81.71349886089315L177.93738666290702,81.71349886089315L178.0504533295737,81.71349886089315L178.69258666290705,81.71349886089315L178.77151999624036,81.71349886089315L179.3112533295737,81.71349886089315L179.36671999624036,81.71349886089315L179.55018666290704,81.71349886089315L179.6888533295737,81.71349886089315L179.70378666290702,81.71349886089315L179.72085332957369,81.71349886089315L179.82325332957373,81.71349886089315L179.84245332957371,81.71349886089315L179.96831999624038,81.71349886089315L179.99605332957373,81.71349886089315L180.33098666290704,81.71349886089315L180.40138666290704,81.71349886089315L180.49098666290706,81.71349886089315L180.88778666290705,81.71349886089315L181.08688666290703,81.71349886089315L181.11461999624038,81.71349886089315L181.26181999624038,81.71349886089315L181.35995332957373,81.71349886089315L181.46448666290703,81.71349886089315L181.58395332957372,81.71349886089315L181.86555332957371,81.71349886089315L181.88261999624038,81.71349886089315L182.09595332957372,81.71349886089315L182.1215533295737,81.71349886089315L182.16421999624038,81.71349886089315L182.4159533295737,81.71349886089315L182.4735533295737,81.71349886089315L182.47781999624038,81.71349886089315L182.66981999624036,81.71349886089315L182.8191533295737,81.71349886089315L182.87675332957372,81.71349886089315L182.89168666290706,81.71349886089315L182.95141999624036,81.71349886089315L183.2415533295737,81.71349886089315L183.43781999624036,81.71349886089315L183.64475332957372,81.71349886089315L183.66395332957373,81.71349886089315L183.6895533295737,81.71349886089315L183.73008666290704,81.71349886089315L183.76635332957372,81.71349886089315L183.8815533295737,81.71349886089315L183.9071533295737,81.71349886089315L183.96048666290704,81.71349886089315L184.03941999624035,81.71349886089315L184.26128666290705,81.71349886089315L184.30181999624037,81.71349886089315L184.31675332957371,81.71349886089315L184.41488666290704,81.71349886089315L184.52581999624036,81.71349886089315L184.53221999624037,81.71349886089315L184.60688666290704,81.71349886089315L184.99515332957372,81.71349886089315L184.99728666290704,81.71349886089315L185.04208666290702,81.71349886089315L185.15941999624036,81.71349886089315L185.34501999624038,81.71349886089315L185.34571999624038,81.71349886089315L185.42678666290706,81.71349886089315L185.5014533295737,81.71349886089315L185.52065332957372,81.71349886089315L185.89398666290705,81.71349886089315L186.0966533295737,81.71349886089315L186.5254533295737,81.71349886089315L186.6022533295737,81.71349886089315L186.73451999624038,81.71349886089315L186.89878666290704,81.71349886089315L187.06731999624037,81.71349886089315L187.11211999624038,81.71349886089315L187.12918666290705,81.71349886089315L187.15691999624036,81.71349886089315L187.16118666290703,81.71349886089315L187.38305332957373,81.71349886089315L187.38731999624036,81.71349886089315L187.57291999624036,81.71349886089315L187.5793199962404,81.71349886089315L188.00171999624038,81.71349886089315L188.01665332957373,81.71349886089315L188.1574533295737,81.71349886089315L188.1681199962404,81.71349886089315L188.38998666290703,81.71349886089315L188.4262533295737,81.71349886089315L188.56918666290704,81.71349886089315L188.61185332957373,81.71349886089315L188.84011999624036,81.71349886089315L188.98305332957372,81.71349886089315L189.01505332957373,81.71349886089315L189.04918666290706,81.71349886089315L189.07691999624038,81.71349886089315L189.15158666290705,81.71349886089315L189.2070533295737,81.71349886089315L189.70268666290704,81.71349886089315L189.83068666290706,81.71349886089315L189.89468666290702,81.71349886089315L189.9352199962404,81.71349886089315L190.12508666290705,81.71349886089315L190.20828666290703,81.71349886089315L190.2168199962404,81.71349886089315L190.23601999624037,81.71349886089315L190.3021533295737,81.71349886089315L190.4237533295737,81.71349886089315L190.73521999624037,81.71349886089315L190.98268666290704,81.71349886089315L191.05308666290705,81.71349886089315L191.28561999624037,81.71349886089315L191.59281999624037,81.71349886089315L191.66535332957372,81.71349886089315L192.2520199962404,81.71349886089315L192.3437533295737,81.71349886089315L192.4909533295737,81.71349886089315L193.16508666290707,81.71349886089315L193.2824199962404,81.71349886089315L193.31441999624036,81.71349886089315L193.5341533295737,81.71349886089315L193.6920199962404,81.71349886089315L193.72615332957372,81.71349886089315L193.7496199962404,81.71349886089315L193.82215332957372,81.71349886089315L193.99281999624037,81.71349886089315L194.12151999624038,81.71349886089315L194.1236533295737,81.71349886089315L194.24738666290708,81.71349886089315L194.2900533295737,81.71349886089315L194.38178666290707,81.71349886089315L194.5460533295737,81.71349886089315L194.8468533295737,81.71349886089315L194.89591999624037,81.71349886089315L194.89805332957374,81.71349886089315L195.18818666290704,81.71349886089315L195.39298666290705,81.71349886089315L195.51885332957372,81.71349886089315L195.54231999624037,81.71349886089315L196.14818666290705,81.71349886089315L196.38498666290707,81.71349886089315L196.44471999624037,81.71349886089315L196.5535199962404,81.71349886089315L196.76045332957372,81.71349886089315L196.82658666290703,81.71349886089315L196.8372533295737,81.71349886089315L196.8735199962404,81.71349886089315L197.06338666290705,81.71349886089315L197.49858666290703,81.71349886089315L197.65218666290707,81.71349886089315L198.06178666290705,81.71349886089315L198.08738666290705,81.71349886089315L198.1556533295737,81.71349886089315L198.21538666290704,81.71349886089315L198.3995533295737,81.71349886089315L198.42088666290707,81.71349886089315L198.43368666290704,81.71349886089315L198.4422199962404,81.71349886089315L198.5083533295737,81.71349886089315L198.51261999624037,81.71349886089315L198.54248666290704,81.71349886089315L198.55528666290706,81.71349886089315L198.71101999624037,81.71349886089315L199.2379533295737,81.71349886089315L199.42568666290705,81.71349886089315L199.48115332957371,81.71349886089315L199.67315332957372,81.71349886089315L199.7307533295737,81.71349886089315L199.88008666290705,81.71349886089315L200.02515332957373,81.71349886089315L200.20008666290704,81.71349886089315L200.30248666290703,81.71349886089315L200.33661999624036,81.71349886089315L200.45181999624037,81.71349886089315L200.7995533295737,81.71349886089315L200.81661999624038,81.71349886089315L200.9531533295737,81.71349886089315L201.01075332957373,81.71349886089315L201.2987533295737,81.71349886089315L201.31368666290706,81.71349886089315L201.5718199962404,81.71349886089315L201.6230199962404,81.71349886089315L201.64435332957373,81.71349886089315L201.6742199962404,81.71349886089315L201.80648666290705,81.71349886089315L202.00915332957373,81.71349886089315L202.24595332957372,81.71349886089315L202.28435332957372,81.71349886089315L202.30568666290705,81.71349886089315L202.35048666290703,81.71349886089315L202.58301999624038,81.71349886089315L202.73091999624037,81.71349886089315L202.93998666290705,81.71349886089315L203.2706533295737,81.71349886089315L203.34105332957373,81.71349886089315L203.37731999624037,81.71349886089315L203.46051999624038,81.71349886089315L204.01091999624037,81.71349886089315L204.42905332957372,81.71349886089315L204.5229199962404,81.71349886089315L204.59758666290705,81.71349886089315L204.66158666290704,81.71349886089315L204.71278666290706,81.71349886089315L204.78105332957372,81.71349886089315L204.9346533295737,81.71349886089315L204.9922533295737,81.71349886089315L205.00078666290705,81.71349886089315L205.03278666290706,81.71349886089315L205.08825332957375,81.71349886089315L205.13518666290705,81.71349886089315L205.49998666290705,81.71349886089315L205.5085199962404,81.71349886089315L205.5362533295737,81.71349886089315L205.7069199962404,81.71349886089315L205.7154533295737,81.71349886089315L205.79225332957373,81.71349886089315L205.97785332957372,81.71349886089315L205.99278666290706,81.71349886089315L206.08665332957372,81.71349886089315L206.1997199962404,81.71349886089315L206.2829199962404,81.71349886089315L206.41305332957373,81.71349886089315L206.61998666290705,81.71349886089315L206.7010533295737,81.71349886089315L206.79918666290706,81.71349886089315L206.80131999624038,81.71349886089315L206.92718666290705,81.71349886089315L207.1049533295737,81.71349886089315L207.1561533295737,81.71349886089315L207.26068666290706,81.71349886089315L207.29055332957373,81.71349886089315L207.60628666290708,81.71349886089315L207.67028666290705,81.71349886089315L207.7961533295737,81.71349886089315L207.90495332957371,81.71349886089315L208.3444199962404,81.71349886089315L208.3636199962404,81.71349886089315L208.47668666290707,81.71349886089315L208.76468666290705,81.71349886089315L208.84148666290707,81.71349886089315L209.0612199962404,81.71349886089315L209.0868199962404,81.71349886089315L209.32788666290708,81.71349886089315L209.4729533295737,81.71349886089315L209.5476199962404,81.71349886089315L209.8676199962404,81.71349886089315L209.88681999624038,81.71349886089315L209.94441999624038,81.71349886089315L210.0084199962404,81.71349886089315L210.08095332957373,81.71349886089315L210.17695332957373,81.71349886089315L210.1940199962404,81.71349886089315L210.25375332957373,81.71349886089315L210.4948199962404,81.71349886089315L210.52895332957374,81.71349886089315L210.6612199962404,81.71349886089315L210.69748666290707,81.71349886089315L210.8809533295737,81.71349886089315L210.90015332957373,81.71349886089315L211.30121999624038,81.71349886089315L211.4107199962404,81.71349886089315L212.02511999624036,81.71349886089315L212.06991999624037,81.71349886089315L212.37071999624038,81.71349886089315L212.46245332957372,81.71349886089315L212.57551999624042,81.71349886089315L212.5904533295737,81.71349886089315L212.6331199962404,81.71349886089315L212.68858666290706,81.71349886089315L212.88058666290706,81.71349886089315L212.99151999624038,81.71349886089315L213.1195199962404,81.71349886089315L213.13445332957372,81.71349886089315L213.1963199962404,81.71349886089315L213.30938666290703,81.71349886089315L213.3179199962404,81.71349886089315L213.34565332957374,81.71349886089315L213.37551999624037,81.71349886089315L213.42671999624037,81.71349886089315L213.4523199962404,81.71349886089315L213.52058666290705,81.71349886089315L213.5355199962404,81.71349886089315L213.56538666290706,81.71349886089315L213.8064533295737,81.71349886089315L213.8299199962404,81.71349886089315L213.84271999624042,81.71349886089315L213.93018666290706,81.71349886089315L213.9387199962404,81.71349886089315L213.96858666290706,81.71349886089315L214.01765332957373,81.71349886089315L214.24378666290704,81.71349886089315L214.33551999624038,81.71349886089315L214.46778666290706,81.71349886089315L214.5019199962404,81.71349886089315L214.56591999624038,81.71349886089315L214.97978666290706,81.71349886089315L215.07578666290703,81.71349886089315L215.17818666290708,81.71349886089315L215.19525332957375,81.71349886089315L215.42565332957372,81.71349886089315L215.46831999624038,81.71349886089315L215.88075332957374,81.71349886089315L216.1751533295737,81.71349886089315L216.7938199962404,81.71349886089315L216.90901999624037,81.71349886089315L216.96235332957374,81.71349886089315L217.23115332957374,81.71349886089315L217.40395332957374,81.71349886089315L217.53408666290707,81.71349886089315L217.5746199962404,81.71349886089315L217.70048666290705,81.71349886089315L217.94795332957375,81.71349886089315L218.11648666290708,81.71349886089315L218.35968666290705,81.71349886089315L218.46635332957374,81.71349886089315L218.54528666290705,81.71349886089315L218.66475332957373,81.71349886089315L218.69888666290706,81.71349886089315L218.76288666290705,81.71349886089315L218.9186199962404,81.71349886089315L219.16181999624038,81.71349886089315L219.34955332957372,81.71349886089315L219.49461999624037,81.71349886089315L219.68875332957373,81.71349886089315L219.6930199962404,81.71349886089315L219.7058199962404,81.71349886089315L220.09265332957372,81.71349886089315L220.43398666290707,81.71349886089315L220.51078666290704,81.71349886089315L220.7561199962404,81.71349886089315L220.76465332957375,81.71349886089315L220.9630533295737,81.71349886089315L221.08038666290705,81.71349886089315L221.20838666290706,81.71349886089315L221.41105332957372,81.71349886089315L221.84625332957373,81.71349886089315L222.07878666290705,81.71349886089315L222.17265332957373,81.71349886089315L222.18118666290704,81.71349886089315L222.1982533295737,81.71349886089315L222.51398666290706,81.71349886089315L222.61425332957373,81.71349886089315L222.75505332957374,81.71349886089315L222.75931999624038,81.71349886089315L223.1177199962404,81.71349886089315L223.23505332957373,81.71349886089315L223.29478666290706,81.71349886089315L223.36518666290704,81.71349886089315L223.4163866629071,81.71349886089315L223.4377199962404,81.71349886089315L223.70011999624037,81.71349886089315L223.7385199962404,81.71349886089315L223.8985199962404,81.71349886089315L223.97958666290705,81.71349886089315L224.06705332957375,81.71349886089315L224.28251999624038,81.71349886089315L224.32305332957372,81.71349886089315L224.54348666290704,81.71349886089315L224.61388666290705,81.71349886089315L224.75041999624037,81.71349886089315L224.77175332957373,81.71349886089315L224.94028666290706,81.71349886089315L224.97228666290707,81.71349886089315L225.0512199962404,81.71349886089315L225.59948666290705,81.71349886089315L225.61655332957372,81.71349886089315L225.7424199962404,81.71349886089315L225.77228666290708,81.71349886089315L226.1264199962404,81.71349886089315L226.25015332957372,81.71349886089315L226.26508666290704,81.71349886089315L226.2736199962404,81.71349886089315L226.28215332957373,81.71349886089315L226.50188666290708,81.71349886089315L226.5829533295737,81.71349886089315L226.65335332957375,81.71349886089315L226.6768199962404,81.71349886089315L226.92641999624038,81.71349886089315L227.03095332957372,81.71349886089315L227.06295332957373,81.71349886089315L227.10775332957374,81.71349886089315L227.13975332957372,81.71349886089315L227.2677533295737,81.71349886089315L227.39148666290706,81.71349886089315L227.6624199962404,81.71349886089315L227.87148666290707,81.71349886089315L228.13388666290706,81.71349886089315L228.21068666290705,81.71349886089315L228.2576199962404,81.71349886089315L228.35148666290706,81.71349886089315L228.4112199962404,81.71349886089315L228.59895332957373,81.71349886089315L228.71698666290706,81.71349886089315L228.87485332957374,81.71349886089315L228.97085332957374,81.71349886089315L229.42098666290707,81.71349886089315L229.6471199962404,81.71349886089315L229.65351999624042,81.71349886089315L229.70898666290708,81.71349886089315L229.7751199962404,81.71349886089315L230.15698666290706,81.71349886089315L230.1676533295737,81.71349886089315L230.18471999624037,81.71349886089315L230.5303199962404,81.71349886089315L230.64338666290706,81.71349886089315L230.70525332957374,81.71349886089315L230.86525332957373,81.71349886089315L231.06365332957373,81.71349886089315L231.0700533295737,81.71349886089315L231.3367199962404,81.71349886089315L231.7911199962404,81.71349886089315L231.8615199962404,81.71349886089315L231.95111999624038,81.71349886089315L232.01938666290707,81.71349886089315L232.06418666290708,81.71349886089315L232.19858666290705,81.71349886089315L232.22418666290707,81.71349886089315L232.2540533295737,81.71349886089315L232.26898666290705,81.71349886089315L232.4396533295737,81.71349886089315L232.8215199962404,81.71349886089315L232.8919199962404,81.71349886089315L232.9687199962404,81.71349886089315L233.27235332957375,81.71349886089315L233.35128666290706,81.71349886089315L233.78008666290705,81.71349886089315L233.83128666290708,81.71349886089315L233.91235332957373,81.71349886089315L233.92515332957373,81.71349886089315L233.9720866629071,81.71349886089315L234.12355332957375,81.71349886089315L234.27501999624042,81.71349886089315L234.30701999624037,81.71349886089315L234.37955332957372,81.71349886089315L234.50115332957373,81.71349886089315L234.7379533295737,81.71349886089315L234.8958199962404,81.71349886089315L235.13048666290706,81.71349886089315L235.5998199962404,81.71349886089315L236.03715332957373,81.71349886089315L236.14595332957373,81.71349886089315L236.34648666290707,81.71349886089315L236.59395332957374,81.71349886089315L236.71128666290707,81.71349886089315L236.7752866629071,81.71349886089315L236.7838199962404,81.71349886089315L236.8734199962404,81.71349886089315L236.94168666290705,81.71349886089315L236.99928666290705,81.71349886089315L237.03555332957373,81.71349886089315L237.06755332957374,81.71349886089315L237.08888666290704,81.71349886089315L237.26808666290705,81.71349886089315L237.56958666290706,81.71349886089315L237.6037199962404,81.71349886089315L237.6101199962404,81.71349886089315L237.61651999624038,81.71349886089315L237.66345332957374,81.71349886089315L237.9087866629071,81.71349886089315L238.1029199962404,81.71349886089315L238.20318666290706,81.71349886089315L238.4613199962404,81.71349886089315L238.7685199962404,81.71349886089315L238.8709199962404,81.71349886089315L238.90505332957372,81.71349886089315L238.96905332957374,81.71349886089315L239.07358666290705,81.71349886089315L239.11198666290707,81.71349886089315L239.1418533295737,81.71349886089315L239.28478666290707,81.71349886089315L239.37865332957375,81.71349886089315L239.43625332957373,81.71349886089315L239.69011999624038,81.71349886089315L239.8565199962404,81.71349886089315L240.0549199962404,81.71349886089315L240.0677199962404,81.71349886089315L240.11465332957374,81.71349886089315L240.30665332957372,81.71349886089315L240.5221199962404,81.71349886089315L240.6501199962404,81.71349886089315L240.68638666290707,81.71349886089315L240.70985332957372,81.71349886089315L240.74611999624042,81.71349886089315L240.94451999624042,81.71349886089315L241.0341199962404,81.71349886089315L241.10451999624038,81.71349886089315L241.20478666290705,81.71349886089315L241.24318666290705,81.71349886089315L241.5311866629071,81.71349886089315L241.65348666290706,81.71349886089315" style="fill: none;" fill="none"></path></g></g></g></g><g opacity="0.2"><g><g><g><path stroke="rgb(0, 119, 187)" stroke-width="2px" d="M111.80421999624035,81.71349886089315L111.81061999624033,81.71349886089315L111.86608666290701,81.71349886089315L111.91515332957368,81.71349886089315L112.07088666290701,81.71349886089315L112.20315332957368,81.71349886089315L112.21381999624035,81.71349886089315L112.25861999624034,81.71349886089315L112.29701999624035,81.71349886089315L112.37168666290701,81.71349886089315L112.37595332957368,81.71349886089315L112.39301999624034,81.71349886089315L112.72581999624035,81.71349886089315L112.85808666290701,81.71349886089315L112.94981999624035,81.71349886089315L112.96475332957368,81.71349886089315L113.06715332957369,81.71349886089315L113.094886662907,81.71349886089315L113.23781999624035,81.71349886089315L113.25488666290701,81.71349886089315L113.42555332957367,81.71349886089315L113.43835332957369,81.71349886089315L113.49808666290701,81.71349886089315L113.78608666290701,81.71349886089315L113.87781999624035,81.71349886089315L113.98875332957368,81.71349886089315L114.06981999624034,81.71349886089315L114.23195332957368,81.71349886089315L114.4047533295737,81.71349886089315L114.52208666290701,81.71349886089315L114.52848666290701,81.71349886089315L114.55835332957368,81.71349886089315L114.56688666290701,81.71349886089315L114.66928666290701,81.71349886089315L114.68421999624034,81.71349886089315L114.77808666290701,81.71349886089315L114.84208666290702,81.71349886089315L115.02555332957368,81.71349886089315L115.09381999624034,81.71349886089315L115.32208666290703,81.71349886089315L115.41381999624033,81.71349886089315L115.42021999624035,81.71349886089315L115.64848666290702,81.71349886089315L115.71888666290701,81.71349886089315L115.80421999624035,81.71349886089315L115.86821999624034,81.71349886089315L116.05665332957369,81.71349886089315L116.18465332957368,81.71349886089315L116.378786662907,81.71349886089315L116.40438666290703,81.71349886089315L116.47265332957369,81.71349886089315L116.53878666290703,81.71349886089315L116.63478666290702,81.71349886089315L116.80971999624035,81.71349886089315L116.90998666290702,81.71349886089315L116.94625332957368,81.71349886089315L116.95051999624035,81.71349886089315L116.96118666290701,81.71349886089315L117.01451999624035,81.71349886089315L117.01665332957369,81.71349886089315L117.04225332957368,81.71349886089315L117.05291999624035,81.71349886089315L117.11478666290702,81.71349886089315L117.44118666290701,81.71349886089315L117.55851999624035,81.71349886089315L118.04278666290702,81.71349886089315L118.19425332957368,81.71349886089315L118.20065332957368,81.71349886089315L118.45665332957367,81.71349886089315L118.60385332957368,81.71349886089315L118.63798666290701,81.71349886089315L118.64011999624034,81.71349886089315L118.76385332957368,81.71349886089315L119.13718666290701,81.71349886089315L119.43158666290701,81.71349886089315L119.43585332957369,81.71349886089315L119.54251999624036,81.71349886089315L119.69398666290702,81.71349886089315L119.84971999624034,81.71349886089315L119.86465332957368,81.71349886089315L120.09291999624035,81.71349886089315L120.15265332957368,81.71349886089315L120.32331999624034,81.71349886089315L120.45415332957369,81.71349886089315L120.66321999624034,81.71349886089315L120.74001999624035,81.71349886089315L120.92135332957368,81.71349886089315L121.09841999624035,81.71349886089315L121.29468666290703,81.71349886089315L121.33095332957367,81.71349886089315L121.37575332957368,81.71349886089315L121.66161999624035,81.71349886089315L121.67015332957368,81.71349886089315L121.68721999624036,81.71349886089315L121.9261533295737,81.71349886089315L121.95601999624034,81.71349886089315L122.03708666290702,81.71349886089315L122.15228666290702,81.71349886089315L122.31655332957368,81.71349886089315L122.48508666290702,81.71349886089315L122.48935332957369,81.71349886089315L122.60455332957369,81.71349886089315L122.66428666290702,81.71349886089315L123.11441999624036,81.71349886089315L123.14428666290702,81.71349886089315L123.27441999624035,81.71349886089315L123.54961999624035,81.71349886089315L123.8269533295737,81.71349886089315L123.92081999624035,81.71349886089315L124.1021533295737,81.71349886089315L124.22161999624035,81.71349886089315L124.2365533295737,81.71349886089315L124.31335332957369,81.71349886089315L124.49041999624035,81.71349886089315L124.78978666290702,81.71349886089315L124.93698666290702,81.71349886089315L124.97751999624036,81.71349886089315L125.12685332957368,81.71349886089315L125.17591999624035,81.71349886089315L125.31245332957369,81.71349886089315L125.6196533295737,81.71349886089315L125.73485332957368,81.71349886089315L125.79671999624036,81.71349886089315L125.99511999624036,81.71349886089315L126.00151999624035,81.71349886089315L126.02711999624034,81.71349886089315L126.33218666290702,81.71349886089315L126.57111999624036,81.71349886089315L126.8868533295737,81.71349886089315L126.97431999624035,81.71349886089315L127.30711999624036,81.71349886089315L127.45858666290702,81.71349886089315L127.60365332957367,81.71349886089315L127.62498666290702,81.71349886089315L127.63138666290702,81.71349886089315L127.66338666290703,81.71349886089315L127.73378666290702,81.71349886089315L128.12205332957367,81.71349886089315L128.32471999624036,81.71349886089315L128.3460533295737,81.71349886089315L128.42071999624036,81.71349886089315L128.75778666290702,81.71349886089315L128.91778666290702,81.71349886089315L129.1595533295737,81.71349886089315L129.24701999624034,81.71349886089315L129.54995332957367,81.71349886089315L129.56061999624035,81.71349886089315L129.57981999624036,81.71349886089315L129.77821999624035,81.71349886089315L129.83795332957368,81.71349886089315L129.85928666290704,81.71349886089315L130.057686662907,81.71349886089315L130.13021999624036,81.71349886089315L130.64861999624034,81.71349886089315L130.71048666290702,81.71349886089315L130.75528666290703,81.71349886089315L130.77021999624037,81.71349886089315L130.8939533295737,81.71349886089315L131.02621999624034,81.71349886089315L131.4635533295737,81.71349886089315L131.58301999624035,81.71349886089315L131.651286662907,81.71349886089315L131.83688666290703,81.71349886089315L131.907286662907,81.71349886089315L132.0907533295737,81.71349886089315L132.118486662907,81.71349886089315L132.310486662907,81.71349886089315L132.35955332957369,81.71349886089315L132.39795332957368,81.71349886089315L132.70728666290702,81.71349886089315L132.84381999624034,81.71349886089315L133.16595332957368,81.71349886089315L133.22141999624037,81.71349886089315L133.62958666290703,81.71349886089315L133.64451999624038,81.71349886089315L133.89198666290702,81.71349886089315L134.0626533295737,81.71349886089315L134.15438666290703,81.71349886089315L134.33571999624036,81.71349886089315L134.4018533295737,81.71349886089315L134.43598666290703,81.71349886089315L134.55758666290703,81.71349886089315L134.65571999624035,81.71349886089315L134.6578533295737,81.71349886089315L134.70478666290703,81.71349886089315L134.83491999624036,81.71349886089315L134.85411999624037,81.71349886089315L134.9650533295737,81.71349886089315L134.9714533295737,81.71349886089315L135.05251999624036,81.71349886089315L135.101586662907,81.71349886089315L135.11865332957368,81.71349886089315L135.21678666290703,81.71349886089315L135.39171999624037,81.71349886089315L135.43225332957368,81.71349886089315L135.59651999624037,81.71349886089315L135.72878666290703,81.71349886089315L136.06798666290703,81.71349886089315L136.1810533295737,81.71349886089315L136.22371999624036,81.71349886089315L136.2898533295737,81.71349886089315L136.3090533295737,81.71349886089315L136.38158666290704,81.71349886089315L136.55651999624035,81.71349886089315L136.6354533295737,81.71349886089315L136.79331999624037,81.71349886089315L137.03651999624034,81.71349886089315L137.24131999624035,81.71349886089315L137.25198666290703,81.71349886089315L137.32878666290702,81.71349886089315L137.39491999624036,81.71349886089315L137.6018533295737,81.71349886089315L137.65731999624037,81.71349886089315L137.69998666290704,81.71349886089315L137.92468666290702,81.71349886089315L138.17001999624034,81.71349886089315L138.28308666290704,81.71349886089315L138.73748666290703,81.71349886089315L139.1769533295737,81.71349886089315L139.30921999624036,81.71349886089315L139.47561999624037,81.71349886089315L139.51188666290702,81.71349886089315L139.56948666290702,81.71349886089315L139.614286662907,81.71349886089315L139.63988666290703,81.71349886089315L139.671886662907,81.71349886089315L139.94921999624037,81.71349886089315L140.29695332957368,81.71349886089315L140.30548666290701,81.71349886089315L140.5145533295737,81.71349886089315L140.6041533295737,81.71349886089315L140.71295332957368,81.71349886089315L140.76201999624035,81.71349886089315L140.88788666290702,81.71349886089315L141.1673533295737,81.71349886089315L141.32521999624038,81.71349886089315L141.7433533295737,81.71349886089315L142.04271999624035,81.71349886089315L142.18351999624036,81.71349886089315L142.19845332957368,81.71349886089315L142.25391999624037,81.71349886089315L142.29231999624037,81.71349886089315L142.41818666290703,81.71349886089315L142.5248533295737,81.71349886089315L142.91951999624035,81.71349886089315L142.93231999624035,81.71349886089315L142.99631999624037,81.71349886089315L143.01551999624036,81.71349886089315L143.0368533295737,81.71349886089315L143.23311999624036,81.71349886089315L143.25231999624037,81.71349886089315L143.29711999624035,81.71349886089315L143.43365332957367,81.71349886089315L143.47418666290702,81.71349886089315L143.89658666290703,81.71349886089315L144.08858666290703,81.71349886089315L144.2720533295737,81.71349886089315L144.39578666290703,81.71349886089315L144.7136533295737,81.71349886089315L144.71791999624037,81.71349886089315L144.78618666290703,81.71349886089315L144.85231999624034,81.71349886089315L145.28325332957368,81.71349886089315L145.33445332957368,81.71349886089315L145.3536533295737,81.71349886089315L145.47098666290702,81.71349886089315L145.82298666290703,81.71349886089315L146.04058666290703,81.71349886089315L146.085386662907,81.71349886089315L146.36768666290703,81.71349886089315L146.52128666290704,81.71349886089315L146.56821999624034,81.71349886089315L146.60448666290702,81.71349886089315L146.70261999624034,81.71349886089315L146.91381999624036,81.71349886089315L147.32341999624037,81.71349886089315L147.56021999624036,81.71349886089315L147.5623533295737,81.71349886089315L147.6647533295737,81.71349886089315L147.7543533295737,81.71349886089315L148.11061999624036,81.71349886089315L148.1767533295737,81.71349886089315L148.24928666290702,81.71349886089315L148.47968666290703,81.71349886089315L148.55008666290703,81.71349886089315L148.5927533295737,81.71349886089315L148.6439533295737,81.71349886089315L148.646086662907,81.71349886089315L148.69301999624037,81.71349886089315L148.83381999624035,81.71349886089315L148.91701999624036,81.71349886089315L148.93835332957372,81.71349886089315L149.12821999624035,81.71349886089315L149.15808666290704,81.71349886089315L149.21995332957368,81.71349886089315L149.23701999624035,81.71349886089315L149.29888666290702,81.71349886089315L149.510086662907,81.71349886089315L150.00288666290703,81.71349886089315L150.06261999624036,81.71349886089315L150.1415533295737,81.71349886089315L150.21621999624037,81.71349886089315L150.24181999624037,81.71349886089315L150.3783533295737,81.71349886089315L150.6663533295737,81.71349886089315L150.78011999624036,81.71349886089315L151.0638533295737,81.71349886089315L151.06598666290702,81.71349886089315L151.36465332957368,81.71349886089315L151.622786662907,81.71349886089315L151.63771999624035,81.71349886089315L151.90438666290703,81.71349886089315L152.1454533295737,81.71349886089315L152.24571999624035,81.71349886089315L152.3374533295737,81.71349886089315L152.48251999624037,81.71349886089315L152.59558666290704,81.71349886089315L152.81318666290704,81.71349886089315L153.35505332957368,81.71349886089315L153.3678533295737,81.71349886089315L153.60038666290703,81.71349886089315L153.6302533295737,81.71349886089315L153.79451999624038,81.71349886089315L153.80731999624035,81.71349886089315L153.99078666290706,81.71349886089315L154.03985332957367,81.71349886089315L154.18918666290702,81.71349886089315L154.23611999624035,81.71349886089315L154.30651999624035,81.71349886089315L154.35771999624035,81.71349886089315L154.4430533295737,81.71349886089315L154.4814533295737,81.71349886089315L154.4942533295737,81.71349886089315L154.5006533295737,81.71349886089315L154.66278666290702,81.71349886089315L154.66491999624037,81.71349886089315L154.76518666290704,81.71349886089315L154.83131999624038,81.71349886089315L154.88891999624036,81.71349886089315L154.89531999624037,81.71349886089315L154.90598666290703,81.71349886089315L155.05601999624037,81.71349886089315L155.18401999624035,81.71349886089315L155.30561999624035,81.71349886089315L155.40161999624036,81.71349886089315L155.48908666290703,81.71349886089315L155.51681999624037,81.71349886089315L155.5189533295737,81.71349886089315L155.56588666290702,81.71349886089315L155.60001999624038,81.71349886089315L155.83681999624037,81.71349886089315L155.88161999624037,81.71349886089315L156.02881999624037,81.71349886089315L156.03521999624036,81.71349886089315L156.0373533295737,81.71349886089315L156.1397533295737,81.71349886089315L156.1909533295737,81.71349886089315L156.47255332957369,81.71349886089315L156.6709533295737,81.71349886089315L156.80748666290702,81.71349886089315L156.94615332957372,81.71349886089315L156.99521999624037,81.71349886089315L157.17441999624035,81.71349886089315L157.18081999624036,81.71349886089315L157.191486662907,81.71349886089315L157.33441999624037,81.71349886089315L157.37281999624037,81.71349886089315L157.53281999624036,81.71349886089315L157.61601999624037,81.71349886089315L157.95308666290703,81.71349886089315L158.0448199962404,81.71349886089315L158.19628666290706,81.71349886089315L158.2517533295737,81.71349886089315L158.2965533295737,81.71349886089315L158.3093533295737,81.71349886089315L158.64641999624038,81.71349886089315L159.15628666290704,81.71349886089315L159.18401999624038,81.71349886089315L159.2565533295737,81.71349886089315L159.33761999624036,81.71349886089315L159.39591999624037,81.71349886089315L159.63911999624037,81.71349886089315L159.71378666290704,81.71349886089315L159.79271999624035,81.71349886089315L159.9868533295737,81.71349886089315L160.26418666290704,81.71349886089315L160.42418666290703,81.71349886089315L160.61618666290704,81.71349886089315L160.62258666290703,81.71349886089315L160.9447199962404,81.71349886089315L161.05991999624035,81.71349886089315L161.0812533295737,81.71349886089315L161.15378666290704,81.71349886089315L161.17511999624037,81.71349886089315L161.23058666290706,81.71349886089315L161.32658666290703,81.71349886089315L161.37565332957368,81.71349886089315L161.5356533295737,81.71349886089315L161.57618666290702,81.71349886089315L161.6764533295737,81.71349886089315L161.91751999624037,81.71349886089315L162.0220533295737,81.71349886089315L162.19485332957368,81.71349886089315L162.21831999624038,81.71349886089315L162.26098666290702,81.71349886089315L162.41671999624037,81.71349886089315L162.76658666290703,81.71349886089315L163.06738666290704,81.71349886089315L163.15058666290705,81.71349886089315L163.2124533295737,81.71349886089315L163.3980533295737,81.71349886089315L163.5004533295737,81.71349886089315L163.50471999624037,81.71349886089315L163.58578666290705,81.71349886089315L163.6348533295737,81.71349886089315L163.78488666290704,81.71349886089315L164.08568666290705,81.71349886089315L164.22221999624037,81.71349886089315L164.43128666290704,81.71349886089315L164.4483533295737,81.71349886089315L164.8195533295737,81.71349886089315L164.8899533295737,81.71349886089315L165.04781999624038,81.71349886089315L165.13101999624038,81.71349886089315L165.31448666290706,81.71349886089315L165.5235533295737,81.71349886089315L165.55128666290705,81.71349886089315L165.57048666290703,81.71349886089315L165.73901999624036,81.71349886089315L165.86488666290705,81.71349886089315L166.10808666290703,81.71349886089315L166.14008666290704,81.71349886089315L166.30861999624037,81.71349886089315L166.49421999624036,81.71349886089315L166.76301999624036,81.71349886089315L166.83768666290703,81.71349886089315L166.99555332957368,81.71349886089315L167.26008666290704,81.71349886089315L167.30488666290705,81.71349886089315L167.35821999624036,81.71349886089315L167.49475332957368,81.71349886089315L167.52461999624038,81.71349886089315L167.7870199962404,81.71349886089315L167.81048666290704,81.71349886089315L168.02238666290705,81.71349886089315L168.16531999624036,81.71349886089315L168.59198666290703,81.71349886089315L168.86291999624035,81.71349886089315L168.8650533295737,81.71349886089315L168.92691999624037,81.71349886089315L168.93118666290704,81.71349886089315L169.14238666290703,81.71349886089315L169.59891999624037,81.71349886089315L169.61171999624037,81.71349886089315L169.62451999624037,81.71349886089315L169.63305332957373,81.71349886089315L169.63518666290705,81.71349886089315L169.88051999624037,81.71349886089315L170.37331999624038,81.71349886089315L170.58238666290703,81.71349886089315L170.6037199962404,81.71349886089315L170.61865332957368,81.71349886089315L170.6570533295737,81.71349886089315L170.87251999624038,81.71349886089315L171.05598666290703,81.71349886089315L171.25011999624036,81.71349886089315L171.25438666290705,81.71349886089315L171.3226533295737,81.71349886089315L171.3610533295737,81.71349886089315L171.96478666290704,81.71349886089315L172.02025332957368,81.71349886089315L172.11411999624036,81.71349886089315L172.36228666290702,81.71349886089315L172.39001999624037,81.71349886089315L172.58628666290704,81.71349886089315L172.6481533295737,81.71349886089315L172.7313533295737,81.71349886089315L173.49721999624037,81.71349886089315L173.55268666290706,81.71349886089315L173.59961999624036,81.71349886089315L173.6401533295737,81.71349886089315L173.69348666290705,81.71349886089315L173.72761999624038,81.71349886089315L173.75321999624035,81.71349886089315L173.9900199962404,81.71349886089315L174.12228666290704,81.71349886089315L174.56601999624036,81.71349886089315L174.5809533295737,81.71349886089315L174.6001533295737,81.71349886089315L174.70681999624037,81.71349886089315L174.71321999624038,81.71349886089315L174.7580199962404,81.71349886089315L174.8241533295737,81.71349886089315L174.86468666290705,81.71349886089315L175.15481999624035,81.71349886089315L175.32761999624037,81.71349886089315L175.3297533295737,81.71349886089315L175.40228666290702,81.71349886089315L175.69455332957372,81.71349886089315L175.70521999624034,81.71349886089315L175.76068666290703,81.71349886089315L175.85881999624038,81.71349886089315L175.8908199962404,81.71349886089315L176.0657533295737,81.71349886089315L176.2129533295737,81.71349886089315L176.30041999624038,81.71349886089315L176.39215332957372,81.71349886089315L176.6737533295737,81.71349886089315L176.69578666290704,81.71349886089315L176.91338666290704,81.71349886089315L176.99871999624037,81.71349886089315L177.1992533295737,81.71349886089315L177.22911999624037,81.71349886089315L177.26751999624037,81.71349886089315L177.93738666290702,81.71349886089315L178.0504533295737,81.71349886089315L178.69258666290705,81.71349886089315L178.77151999624036,81.71349886089315L179.3112533295737,81.71349886089315L179.36671999624036,81.71349886089315L179.55018666290704,81.71349886089315L179.6888533295737,81.71349886089315L179.70378666290702,81.71349886089315L179.72085332957369,81.71349886089315L179.82325332957373,81.71349886089315L179.84245332957371,81.71349886089315L179.96831999624038,81.71349886089315L179.99605332957373,81.71349886089315L180.33098666290704,81.71349886089315L180.40138666290704,81.71349886089315L180.49098666290706,81.71349886089315L180.88778666290705,81.71349886089315L181.08688666290703,81.71349886089315L181.11461999624038,81.71349886089315L181.26181999624038,81.71349886089315L181.35995332957373,81.71349886089315L181.46448666290703,81.71349886089315L181.58395332957372,81.71349886089315L181.86555332957371,81.71349886089315L181.88261999624038,81.71349886089315L182.09595332957372,81.71349886089315L182.1215533295737,81.71349886089315L182.16421999624038,81.71349886089315L182.4159533295737,81.71349886089315L182.4735533295737,81.71349886089315L182.47781999624038,81.71349886089315L182.66981999624036,81.71349886089315L182.8191533295737,81.71349886089315L182.87675332957372,81.71349886089315L182.89168666290706,81.71349886089315L182.95141999624036,81.71349886089315L183.2415533295737,81.71349886089315L183.43781999624036,81.71349886089315L183.64475332957372,81.71349886089315L183.66395332957373,81.71349886089315L183.6895533295737,81.71349886089315L183.73008666290704,81.71349886089315L183.76635332957372,81.71349886089315L183.8815533295737,81.71349886089315L183.9071533295737,81.71349886089315L183.96048666290704,81.71349886089315L184.03941999624035,81.71349886089315L184.26128666290705,81.71349886089315L184.30181999624037,81.71349886089315L184.31675332957371,81.71349886089315L184.41488666290704,81.71349886089315L184.52581999624036,81.71349886089315L184.53221999624037,81.71349886089315L184.60688666290704,81.71349886089315L184.99515332957372,81.71349886089315L184.99728666290704,81.71349886089315L185.04208666290702,81.71349886089315L185.15941999624036,81.71349886089315L185.34501999624038,81.71349886089315L185.34571999624038,81.71349886089315L185.42678666290706,81.71349886089315L185.5014533295737,81.71349886089315L185.52065332957372,81.71349886089315L185.89398666290705,81.71349886089315L186.0966533295737,81.71349886089315L186.5254533295737,81.71349886089315L186.6022533295737,81.71349886089315L186.73451999624038,81.71349886089315L186.89878666290704,81.71349886089315L187.06731999624037,81.71349886089315L187.11211999624038,81.71349886089315L187.12918666290705,81.71349886089315L187.15691999624036,81.71349886089315L187.16118666290703,81.71349886089315L187.38305332957373,81.71349886089315L187.38731999624036,81.71349886089315L187.57291999624036,81.71349886089315L187.5793199962404,81.71349886089315L188.00171999624038,81.71349886089315L188.01665332957373,81.71349886089315L188.1574533295737,81.71349886089315L188.1681199962404,81.71349886089315L188.38998666290703,81.71349886089315L188.4262533295737,81.71349886089315L188.56918666290704,81.71349886089315L188.61185332957373,81.71349886089315L188.84011999624036,81.71349886089315L188.98305332957372,81.71349886089315L189.01505332957373,81.71349886089315L189.04918666290706,81.71349886089315L189.07691999624038,81.71349886089315L189.15158666290705,81.71349886089315L189.2070533295737,81.71349886089315L189.70268666290704,81.71349886089315L189.83068666290706,81.71349886089315L189.89468666290702,81.71349886089315L189.9352199962404,81.71349886089315L190.12508666290705,81.71349886089315L190.20828666290703,81.71349886089315L190.2168199962404,81.71349886089315L190.23601999624037,81.71349886089315L190.3021533295737,81.71349886089315L190.4237533295737,81.71349886089315L190.73521999624037,81.71349886089315L190.98268666290704,81.71349886089315L191.05308666290705,81.71349886089315L191.28561999624037,81.71349886089315L191.59281999624037,81.71349886089315L191.66535332957372,81.71349886089315L192.2520199962404,81.71349886089315L192.3437533295737,81.71349886089315L192.4909533295737,81.71349886089315L193.16508666290707,81.71349886089315L193.2824199962404,81.71349886089315L193.31441999624036,81.71349886089315L193.5341533295737,81.71349886089315L193.6920199962404,81.71349886089315L193.72615332957372,81.71349886089315L193.7496199962404,81.71349886089315L193.82215332957372,81.71349886089315L193.99281999624037,81.71349886089315L194.12151999624038,81.71349886089315L194.1236533295737,81.71349886089315L194.24738666290708,81.71349886089315L194.2900533295737,81.71349886089315L194.38178666290707,81.71349886089315L194.5460533295737,81.71349886089315L194.8468533295737,81.71349886089315L194.89591999624037,81.71349886089315L194.89805332957374,81.71349886089315L195.18818666290704,81.71349886089315L195.39298666290705,81.71349886089315L195.51885332957372,81.71349886089315L195.54231999624037,81.71349886089315L196.14818666290705,81.71349886089315L196.38498666290707,81.71349886089315L196.44471999624037,81.71349886089315L196.5535199962404,81.71349886089315L196.76045332957372,81.71349886089315L196.82658666290703,81.71349886089315L196.8372533295737,81.71349886089315L196.8735199962404,81.71349886089315L197.06338666290705,81.71349886089315L197.49858666290703,81.71349886089315L197.65218666290707,81.71349886089315L198.06178666290705,81.71349886089315L198.08738666290705,81.71349886089315L198.1556533295737,81.71349886089315L198.21538666290704,81.71349886089315L198.3995533295737,81.71349886089315L198.42088666290707,81.71349886089315L198.43368666290704,81.71349886089315L198.4422199962404,81.71349886089315L198.5083533295737,81.71349886089315L198.51261999624037,81.71349886089315L198.54248666290704,81.71349886089315L198.55528666290706,81.71349886089315L198.71101999624037,81.71349886089315L199.2379533295737,81.71349886089315L199.42568666290705,81.71349886089315L199.48115332957371,81.71349886089315L199.67315332957372,81.71349886089315L199.7307533295737,81.71349886089315L199.88008666290705,81.71349886089315L200.02515332957373,81.71349886089315L200.20008666290704,81.71349886089315L200.30248666290703,81.71349886089315L200.33661999624036,81.71349886089315L200.45181999624037,81.71349886089315L200.7995533295737,81.71349886089315L200.81661999624038,81.71349886089315L200.9531533295737,81.71349886089315L201.01075332957373,81.71349886089315L201.2987533295737,81.71349886089315L201.31368666290706,81.71349886089315L201.5718199962404,81.71349886089315L201.6230199962404,81.71349886089315L201.64435332957373,81.71349886089315L201.6742199962404,81.71349886089315L201.80648666290705,81.71349886089315L202.00915332957373,81.71349886089315L202.24595332957372,81.71349886089315L202.28435332957372,81.71349886089315L202.30568666290705,81.71349886089315L202.35048666290703,81.71349886089315L202.58301999624038,81.71349886089315L202.73091999624037,81.71349886089315L202.93998666290705,81.71349886089315L203.2706533295737,81.71349886089315L203.34105332957373,81.71349886089315L203.37731999624037,81.71349886089315L203.46051999624038,81.71349886089315L204.01091999624037,81.71349886089315L204.42905332957372,81.71349886089315L204.5229199962404,81.71349886089315L204.59758666290705,81.71349886089315L204.66158666290704,81.71349886089315L204.71278666290706,81.71349886089315L204.78105332957372,81.71349886089315L204.9346533295737,81.71349886089315L204.9922533295737,81.71349886089315L205.00078666290705,81.71349886089315L205.03278666290706,81.71349886089315L205.08825332957375,81.71349886089315L205.13518666290705,81.71349886089315L205.49998666290705,81.71349886089315L205.5085199962404,81.71349886089315L205.5362533295737,81.71349886089315L205.7069199962404,81.71349886089315L205.7154533295737,81.71349886089315L205.79225332957373,81.71349886089315L205.97785332957372,81.71349886089315L205.99278666290706,81.71349886089315L206.08665332957372,81.71349886089315L206.1997199962404,81.71349886089315L206.2829199962404,81.71349886089315L206.41305332957373,81.71349886089315L206.61998666290705,81.71349886089315L206.7010533295737,81.71349886089315L206.79918666290706,81.71349886089315L206.80131999624038,81.71349886089315L206.92718666290705,81.71349886089315L207.1049533295737,81.71349886089315L207.1561533295737,81.71349886089315L207.26068666290706,81.71349886089315L207.29055332957373,81.71349886089315L207.60628666290708,81.71349886089315L207.67028666290705,81.71349886089315L207.7961533295737,81.71349886089315L207.90495332957371,81.71349886089315L208.3444199962404,81.71349886089315L208.3636199962404,81.71349886089315L208.47668666290707,81.71349886089315L208.76468666290705,81.71349886089315L208.84148666290707,81.71349886089315L209.0612199962404,81.71349886089315L209.0868199962404,81.71349886089315L209.32788666290708,81.71349886089315L209.4729533295737,81.71349886089315L209.5476199962404,81.71349886089315L209.8676199962404,81.71349886089315L209.88681999624038,81.71349886089315L209.94441999624038,81.71349886089315L210.0084199962404,81.71349886089315L210.08095332957373,81.71349886089315L210.17695332957373,81.71349886089315L210.1940199962404,81.71349886089315L210.25375332957373,81.71349886089315L210.4948199962404,81.71349886089315L210.52895332957374,81.71349886089315L210.6612199962404,81.71349886089315L210.69748666290707,81.71349886089315L210.8809533295737,81.71349886089315L210.90015332957373,81.71349886089315L211.30121999624038,81.71349886089315L211.4107199962404,81.71349886089315L212.02511999624036,81.71349886089315L212.06991999624037,81.71349886089315L212.37071999624038,81.71349886089315L212.46245332957372,81.71349886089315L212.57551999624042,81.71349886089315L212.5904533295737,81.71349886089315L212.6331199962404,81.71349886089315L212.68858666290706,81.71349886089315L212.88058666290706,81.71349886089315L212.99151999624038,81.71349886089315L213.1195199962404,81.71349886089315L213.13445332957372,81.71349886089315L213.1963199962404,81.71349886089315L213.30938666290703,81.71349886089315L213.3179199962404,81.71349886089315L213.34565332957374,81.71349886089315L213.37551999624037,81.71349886089315L213.42671999624037,81.71349886089315L213.4523199962404,81.71349886089315L213.52058666290705,81.71349886089315L213.5355199962404,81.71349886089315L213.56538666290706,81.71349886089315L213.8064533295737,81.71349886089315L213.8299199962404,81.71349886089315L213.84271999624042,81.71349886089315L213.93018666290706,81.71349886089315L213.9387199962404,81.71349886089315L213.96858666290706,81.71349886089315L214.01765332957373,81.71349886089315L214.24378666290704,81.71349886089315L214.33551999624038,81.71349886089315L214.46778666290706,81.71349886089315L214.5019199962404,81.71349886089315L214.56591999624038,81.71349886089315L214.97978666290706,81.71349886089315L215.07578666290703,81.71349886089315L215.17818666290708,81.71349886089315L215.19525332957375,81.71349886089315L215.42565332957372,81.71349886089315L215.46831999624038,81.71349886089315L215.88075332957374,81.71349886089315L216.1751533295737,81.71349886089315L216.7938199962404,81.71349886089315L216.90901999624037,81.71349886089315L216.96235332957374,81.71349886089315L217.23115332957374,81.71349886089315L217.40395332957374,81.71349886089315L217.53408666290707,81.71349886089315L217.5746199962404,81.71349886089315L217.70048666290705,81.71349886089315L217.94795332957375,81.71349886089315L218.11648666290708,81.71349886089315L218.35968666290705,81.71349886089315L218.46635332957374,81.71349886089315L218.54528666290705,81.71349886089315L218.66475332957373,81.71349886089315L218.69888666290706,81.71349886089315L218.76288666290705,81.71349886089315L218.9186199962404,81.71349886089315L219.16181999624038,81.71349886089315L219.34955332957372,81.71349886089315L219.49461999624037,81.71349886089315L219.68875332957373,81.71349886089315L219.6930199962404,81.71349886089315L219.7058199962404,81.71349886089315L220.09265332957372,81.71349886089315L220.43398666290707,81.71349886089315L220.51078666290704,81.71349886089315L220.7561199962404,81.71349886089315L220.76465332957375,81.71349886089315L220.9630533295737,81.71349886089315L221.08038666290705,81.71349886089315L221.20838666290706,81.71349886089315L221.41105332957372,81.71349886089315L221.84625332957373,81.71349886089315L222.07878666290705,81.71349886089315L222.17265332957373,81.71349886089315L222.18118666290704,81.71349886089315L222.1982533295737,81.71349886089315L222.51398666290706,81.71349886089315L222.61425332957373,81.71349886089315L222.75505332957374,81.71349886089315L222.75931999624038,81.71349886089315L223.1177199962404,81.71349886089315L223.23505332957373,81.71349886089315L223.29478666290706,81.71349886089315L223.36518666290704,81.71349886089315L223.4163866629071,81.71349886089315L223.4377199962404,81.71349886089315L223.70011999624037,81.71349886089315L223.7385199962404,81.71349886089315L223.8985199962404,81.71349886089315L223.97958666290705,81.71349886089315L224.06705332957375,81.71349886089315L224.28251999624038,81.71349886089315L224.32305332957372,81.71349886089315L224.54348666290704,81.71349886089315L224.61388666290705,81.71349886089315L224.75041999624037,81.71349886089315L224.77175332957373,81.71349886089315L224.94028666290706,81.71349886089315L224.97228666290707,81.71349886089315L225.0512199962404,81.71349886089315L225.59948666290705,81.71349886089315L225.61655332957372,81.71349886089315L225.7424199962404,81.71349886089315L225.77228666290708,81.71349886089315L226.1264199962404,81.71349886089315L226.25015332957372,81.71349886089315L226.26508666290704,81.71349886089315L226.2736199962404,81.71349886089315L226.28215332957373,81.71349886089315L226.50188666290708,81.71349886089315L226.5829533295737,81.71349886089315L226.65335332957375,81.71349886089315L226.6768199962404,81.71349886089315L226.92641999624038,81.71349886089315L227.03095332957372,81.71349886089315L227.06295332957373,81.71349886089315L227.10775332957374,81.71349886089315L227.13975332957372,81.71349886089315L227.2677533295737,81.71349886089315L227.39148666290706,81.71349886089315L227.6624199962404,81.71349886089315L227.87148666290707,81.71349886089315L228.13388666290706,81.71349886089315L228.21068666290705,81.71349886089315L228.2576199962404,81.71349886089315L228.35148666290706,81.71349886089315L228.4112199962404,81.71349886089315L228.59895332957373,81.71349886089315L228.71698666290706,81.71349886089315L228.87485332957374,81.71349886089315L228.97085332957374,81.71349886089315L229.42098666290707,81.71349886089315L229.6471199962404,81.71349886089315L229.65351999624042,81.71349886089315L229.70898666290708,81.71349886089315L229.7751199962404,81.71349886089315L230.15698666290706,81.71349886089315L230.1676533295737,81.71349886089315L230.18471999624037,81.71349886089315L230.5303199962404,81.71349886089315L230.64338666290706,81.71349886089315L230.70525332957374,81.71349886089315L230.86525332957373,81.71349886089315L231.06365332957373,81.71349886089315L231.0700533295737,81.71349886089315L231.3367199962404,81.71349886089315L231.7911199962404,81.71349886089315L231.8615199962404,81.71349886089315L231.95111999624038,81.71349886089315L232.01938666290707,81.71349886089315L232.06418666290708,81.71349886089315L232.19858666290705,81.71349886089315L232.22418666290707,81.71349886089315L232.2540533295737,81.71349886089315L232.26898666290705,81.71349886089315L232.4396533295737,81.71349886089315L232.8215199962404,81.71349886089315L232.8919199962404,81.71349886089315L232.9687199962404,81.71349886089315L233.27235332957375,81.71349886089315L233.35128666290706,81.71349886089315L233.78008666290705,81.71349886089315L233.83128666290708,81.71349886089315L233.91235332957373,81.71349886089315L233.92515332957373,81.71349886089315L233.9720866629071,81.71349886089315L234.12355332957375,81.71349886089315L234.27501999624042,81.71349886089315L234.30701999624037,81.71349886089315L234.37955332957372,81.71349886089315L234.50115332957373,81.71349886089315L234.7379533295737,81.71349886089315L234.8958199962404,81.71349886089315L235.13048666290706,81.71349886089315L235.5998199962404,81.71349886089315L236.03715332957373,81.71349886089315L236.14595332957373,81.71349886089315L236.34648666290707,81.71349886089315L236.59395332957374,81.71349886089315L236.71128666290707,81.71349886089315L236.7752866629071,81.71349886089315L236.7838199962404,81.71349886089315L236.8734199962404,81.71349886089315L236.94168666290705,81.71349886089315L236.99928666290705,81.71349886089315L237.03555332957373,81.71349886089315L237.06755332957374,81.71349886089315L237.08888666290704,81.71349886089315L237.26808666290705,81.71349886089315L237.56958666290706,81.71349886089315L237.6037199962404,81.71349886089315L237.6101199962404,81.71349886089315L237.61651999624038,81.71349886089315L237.66345332957374,81.71349886089315L237.9087866629071,81.71349886089315L238.1029199962404,81.71349886089315L238.20318666290706,81.71349886089315L238.4613199962404,81.71349886089315L238.7685199962404,81.71349886089315L238.8709199962404,81.71349886089315L238.90505332957372,81.71349886089315L238.96905332957374,81.71349886089315L239.07358666290705,81.71349886089315L239.11198666290707,81.71349886089315L239.1418533295737,81.71349886089315L239.28478666290707,81.71349886089315L239.37865332957375,81.71349886089315L239.43625332957373,81.71349886089315L239.69011999624038,81.71349886089315L239.8565199962404,81.71349886089315L240.0549199962404,81.71349886089315L240.0677199962404,81.71349886089315L240.11465332957374,81.71349886089315L240.30665332957372,81.71349886089315L240.5221199962404,81.71349886089315L240.6501199962404,81.71349886089315L240.68638666290707,81.71349886089315L240.70985332957372,81.71349886089315L240.74611999624042,81.71349886089315L240.94451999624042,81.71349886089315L241.0341199962404,81.71349886089315L241.10451999624038,81.71349886089315L241.20478666290705,81.71349886089315L241.24318666290705,81.71349886089315L241.5311866629071,81.71349886089315L241.65348666290706,81.71349886089315" style="fill: none;" fill="none"></path></g></g></g></g></g></g><g transform="translate(30, 178)" clip-path="url(#clip_1)"><clipPath id="clip_1"><rect width="300" height="22"></rect></clipPath><g><g><line x1="11.712486662906972" y1="0" x2="11.712486662906972" y2="5" style="visibility: inherit;" fill="rgb(0, 0, 0)" stroke="rgb(204, 204, 204)" stroke-width="1px"></line><line x1="45.04581999624032" y1="0" x2="45.04581999624032" y2="5" style="visibility: inherit;" fill="rgb(0, 0, 0)" stroke="rgb(204, 204, 204)" stroke-width="1px"></line><line x1="78.37915332957365" y1="0" x2="78.37915332957365" y2="5" style="visibility: inherit;" fill="rgb(0, 0, 0)" stroke="rgb(204, 204, 204)" stroke-width="1px"></line><line x1="111.71248666290701" y1="0" x2="111.71248666290701" y2="5" style="visibility: inherit;" fill="rgb(0, 0, 0)" stroke="rgb(204, 204, 204)" stroke-width="1px"></line><line x1="145.04581999624037" y1="0" x2="145.04581999624037" y2="5" style="visibility: inherit;" fill="rgb(0, 0, 0)" stroke="rgb(204, 204, 204)" stroke-width="1px"></line><line x1="178.3791533295737" y1="0" x2="178.3791533295737" y2="5" style="visibility: inherit;" fill="rgb(0, 0, 0)" stroke="rgb(204, 204, 204)" stroke-width="1px"></line><line x1="211.71248666290705" y1="0" x2="211.71248666290705" y2="5" style="visibility: inherit;" fill="rgb(0, 0, 0)" stroke="rgb(204, 204, 204)" stroke-width="1px"></line><line x1="245.0458199962404" y1="0" x2="245.0458199962404" y2="5" style="visibility: inherit;" fill="rgb(0, 0, 0)" stroke="rgb(204, 204, 204)" stroke-width="1px"></line><line x1="278.37915332957374" y1="0" x2="278.37915332957374" y2="5" style="visibility: inherit;" fill="rgb(0, 0, 0)" stroke="rgb(204, 204, 204)" stroke-width="1px"></line></g><g transform="translate(0, 8)"><text x="11.712486662906972" y="0" dx="0em" dy="0.95em" style="text-anchor: middle; visibility: inherit; font-family: &quot;Helvetica Neue&quot;, sans-serif; font-size: 12px; font-weight: 200;" fill="rgb(50, 49, 63)" stroke="none" stroke-width="1px">-3M</text><text x="45.04581999624032" y="0" dx="0em" dy="0.95em" style="text-anchor: middle; visibility: inherit; font-family: &quot;Helvetica Neue&quot;, sans-serif; font-size: 12px; font-weight: 200;" fill="rgb(50, 49, 63)" stroke="none" stroke-width="1px">-2M</text><text x="78.37915332957365" y="0" dx="0em" dy="0.95em" style="text-anchor: middle; visibility: inherit; font-family: &quot;Helvetica Neue&quot;, sans-serif; font-size: 12px; font-weight: 200;" fill="rgb(50, 49, 63)" stroke="none" stroke-width="1px">-1M</text><text x="111.71248666290701" y="0" dx="0em" dy="0.95em" style="text-anchor: middle; visibility: inherit; font-family: &quot;Helvetica Neue&quot;, sans-serif; font-size: 12px; font-weight: 200;" fill="rgb(50, 49, 63)" stroke="none" stroke-width="1px">0</text><text x="145.04581999624037" y="0" dx="0em" dy="0.95em" style="text-anchor: middle; visibility: inherit; font-family: &quot;Helvetica Neue&quot;, sans-serif; font-size: 12px; font-weight: 200;" fill="rgb(50, 49, 63)" stroke="none" stroke-width="1px">1M</text><text x="178.3791533295737" y="0" dx="0em" dy="0.95em" style="text-anchor: middle; visibility: inherit; font-family: &quot;Helvetica Neue&quot;, sans-serif; font-size: 12px; font-weight: 200;" fill="rgb(50, 49, 63)" stroke="none" stroke-width="1px">2M</text><text x="211.71248666290705" y="0" dx="0em" dy="0.95em" style="text-anchor: middle; visibility: inherit; font-family: &quot;Helvetica Neue&quot;, sans-serif; font-size: 12px; font-weight: 200;" fill="rgb(50, 49, 63)" stroke="none" stroke-width="1px">3M</text><text x="245.0458199962404" y="0" dx="0em" dy="0.95em" style="text-anchor: middle; visibility: inherit; font-family: &quot;Helvetica Neue&quot;, sans-serif; font-size: 12px; font-weight: 200;" fill="rgb(50, 49, 63)" stroke="none" stroke-width="1px">4M</text><text x="278.37915332957374" y="0" dx="0em" dy="0.95em" style="text-anchor: middle; visibility: inherit; font-family: &quot;Helvetica Neue&quot;, sans-serif; font-size: 12px; font-weight: 200;" fill="rgb(50, 49, 63)" stroke="none" stroke-width="1px">5M</text></g><line x1="0" y1="0" x2="300" y2="0" fill="rgb(0, 0, 0)" stroke="rgb(204, 204, 204)" stroke-width="1px"></line></g></g></g></g></svg>