<svg viewBox="0 0 330 200" xmlns="http://www.w3.org/2000/svg"><g><g><g><g><g><line x1="30" y1="178" x2="25" y2="178" style="visibility: inherit;" fill="rgb(0, 0, 0)" stroke="rgb(204, 204, 204)" stroke-width="1px"></line><line x1="30" y1="161.8181818181818" x2="25" y2="161.8181818181818" style="visibility: inherit;" fill="rgb(0, 0, 0)" stroke="rgb(204, 204, 204)" stroke-width="1px"></line><line x1="30" y1="145.63636363636363" x2="25" y2="145.63636363636363" style="visibility: inherit;" fill="rgb(0, 0, 0)" stroke="rgb(204, 204, 204)" stroke-width="1px"></line><line x1="30" y1="129.45454545454547" x2="25" y2="129.45454545454547" style="visibility: inherit;" fill="rgb(0, 0, 0)" stroke="rgb(204, 204, 204)" stroke-width="1px"></line><line x1="30" y1="113.27272727272727" x2="25" y2="113.27272727272727" style="visibility: inherit;" fill="rgb(0, 0, 0)" stroke="rgb(204, 204, 204)" stroke-width="1px"></line><line x1="30" y1="97.0909090909091" x2="25" y2="97.0909090909091" style="visibility: inherit;" fill="rgb(0, 0, 0)" stroke="rgb(204, 204, 204)" stroke-width="1px"></line><line x1="30" y1="80.90909090909092" x2="25" y2="80.90909090909092" style="visibility: inherit;" fill="rgb(0, 0, 0)" stroke="rgb(204, 204, 204)" stroke-width="1px"></line><line x1="30" y1="64.72727272727273" x2="25" y2="64.72727272727273" style="visibility: inherit;" fill="rgb(0, 0, 0)" stroke="rgb(204, 204, 204)" stroke-width="1px"></line><line x1="30" y1="48.54545454545453" x2="25" y2="48.54545454545453" style="visibility: inherit;" fill="rgb(0, 0, 0)" stroke="rgb(204, 204, 204)" stroke-width="1px"></line><line x1="30" y1="32.363636363636346" x2="25" y2="32.363636363636346" style="visibility: inherit;" fill="rgb(0, 0, 0)" stroke="rgb(204, 204, 204)" stroke-width="1px"></line><line x1="30" y1="16.181818181818187" x2="25" y2="16.181818181818187" style="visibility: inherit;" fill="rgb(0, 0, 0)" stroke="rgb(204, 204, 204)" stroke-width="1px"></line><line x1="30" y1="0" x2="25" y2="0" style="visibility: inherit;" fill="rgb(0, 0, 0)" stroke="rgb(204, 204, 204)" stroke-width="1px"></line></g><g transform="translate(20, 0)"><text x="0" y="178" dx="0em" dy="0.3em" style="text-anchor: end; visibility: hidden; font-family: &quot;Helvetica Neue&quot;, sans-serif; font-size: 12px; font-weight: 200;" fill="rgb(50, 49, 63)" stroke="none" stroke-width="1px">-2</text><text x="0" y="161.8181818181818" dx="0em" dy="0.3em" style="text-anchor: end; visibility: inherit; font-family: &quot;Helvetica Neue&quot;, sans-serif; font-size: 12px; font-weight: 200;" fill="rgb(50, 49, 63)" stroke="none" stroke-width="1px">0</text><text x="0" y="145.63636363636363" dx="0em" dy="0.3em" style="text-anchor: end; visibility: hidden; font-family: &quot;Helvetica Neue&quot;, sans-serif; font-size: 12px; font-weight: 200;" fill="rgb(50, 49, 63)" stroke="none" stroke-width="1px">2</text><text x="0" y="129.45454545454547" dx="0em" dy="0.3em" style="text-anchor: end; visibility: inherit; font-family: &quot;Helvetica Neue&quot;, sans-serif; font-size: 12px; font-weight: 200;" fill="rgb(50, 49, 63)" stroke="none" stroke-width="1px">4</text><text x="0" y="113.27272727272727" dx="0em" dy="0.3em" style="text-anchor: end; visibility: hidden; font-family: &quot;Helvetica Neue&quot;, sans-serif; font-size: 12px; font-weight: 200;" fill="rgb(50, 49, 63)" stroke="none" stroke-width="1px">6</text><text x="0" y="97.0909090909091" dx="0em" dy="0.3em" style="text-anchor: end; visibility: inherit; font-family: &quot;Helvetica Neue&quot;, sans-serif; font-size: 12px; font-weight: 200;" fill="rgb(50, 49, 63)" stroke="none" stroke-width="1px">8</text><text x="0" y="80.90909090909092" dx="0em" dy="0.3em" style="text-anchor: end; visibility: hidden; font-family: &quot;Helvetica Neue&quot;, sans-serif; font-size: 12px; font-weight: 200;" fill="rgb(50, 49, 63)" stroke="none" stroke-width="1px">10</text><text x="0" y="64.72727272727273" dx="0em" dy="0.3em" style="text-anchor: end; visibility: inherit; font-family: &quot;Helvetica Neue&quot;, sans-serif; font-size: 12px; font-weight: 200;" fill="rgb(50, 49, 63)" stroke="none" stroke-width="1px">12</text><text x="0" y="48.54545454545453" dx="0em" dy="0.3em" style="text-anchor: end; visibility: hidden; font-family: &quot;Helvetica Neue&quot;, sans-serif; font-size: 12px; font-weight: 200;" fill="rgb(50, 49, 63)" stroke="none" stroke-width="1px">14</text><text x="0" y="32.363636363636346" dx="0em" dy="0.3em" style="text-anchor: end; visibility: inherit; font-family: &quot;Helvetica Neue&quot;, sans-serif; font-size: 12px; font-weight: 200;" fill="rgb(50, 49, 63)" stroke="none" stroke-width="1px">16</text><text x="0" y="16.181818181818187" dx="0em" dy="0.3em" style="text-anchor: end; visibility: hidden; font-family: &quot;Helvetica Neue&quot;, sans-serif; font-size: 12px; font-weight: 200;" fill="rgb(50, 49, 63)" stroke="none" stroke-width="1px">18</text><text x="0" y="0" dx="0em" dy="0.3em" style="text-anchor: end; visibility: hidden; font-family: &quot;Helvetica Neue&quot;, sans-serif; font-size: 12px; font-weight: 200;" fill="rgb(50, 49, 63)" stroke="none" stroke-width="1px">20</text></g><line x1="30" y1="0" x2="30" y2="178" fill="rgb(0, 0, 0)" stroke="rgb(204, 204, 204)" stroke-width="1px"></line></g></g><g transform="translate(30, 0)" clip-path="url(#clip_0)"><clipPath id="clip_0"><rect width="300" height="178"></rect></clipPath><g><g><g><line x1="0" y1="0" x2="0" y2="178" fill="rgb(0, 0, 0)" stroke="rgb(60, 60, 60)" stroke-width="1px" opacity="0.25"></line><line x1="33.33333333333333" y1="0" x2="33.33333333333333" y2="178" fill="rgb(0, 0, 0)" stroke="rgb(60, 60, 60)" stroke-width="1px" opacity="0.25"></line><line x1="66.66666666666666" y1="0" x2="66.66666666666666" y2="178" fill="rgb(0, 0, 0)" stroke="rgb(60, 60, 60)" stroke-width="1px" opacity="0.25"></line><line x1="100" y1="0" x2="100" y2="178" fill="rgb(0, 0, 0)" stroke="rgb(60, 60, 60)" stroke-width="1px" opacity="0.25"></line><line x1="133.33333333333331" y1="0" x2="133.33333333333331" y2="178" fill="rgb(0, 0, 0)" stroke="rgb(60, 60, 60)" stroke-width="1px" opacity="0.25"></line><line x1="166.66666666666669" y1="0" x2="166.66666666666669" y2="178" fill="rgb(0, 0, 0)" stroke="rgb(60, 60, 60)" stroke-width="1px" opacity="0.25"></line><line x1="200" y1="0" x2="200" y2="178" fill="rgb(0, 0, 0)" stroke="rgb(60, 60, 60)" stroke-width="1px" opacity="0.25"></line><line x1="233.33333333333334" y1="0" x2="233.33333333333334" y2="178" fill="rgb(0, 0, 0)" stroke="rgb(60, 60, 60)" stroke-width="1px" opacity="0.25"></line><line x1="266.66666666666663" y1="0" x2="266.66666666666663" y2="178" fill="rgb(0, 0, 0)" stroke="rgb(60, 60, 60)" stroke-width="1px" opacity="0.25"></line><line x1="300" y1="0" x2="300" y2="178" fill="rgb(0, 0, 0)" stroke="rgb(60, 60, 60)" stroke-width="1px" opacity="0.25"></line></g><g><line x1="0" y1="178" x2="300" y2="178" fill="rgb(0, 0, 0)" stroke="rgb(60, 60, 60)" stroke-width="1px" opacity="0.25"></line><line x1="0" y1="161.8181818181818" x2="300" y2="161.8181818181818" fill="rgb(0, 0, 0)" stroke="rgb(60, 60, 60)" stroke-width="1px" opacity="0.25"></line><line x1="0" y1="145.63636363636363" x2="300" y2="145.63636363636363" fill="rgb(0, 0, 0)" stroke="rgb(60, 60, 60)" stroke-width="1px" opacity="0.25"></line><line x1="0" y1="129.45454545454547" x2="300" y2="129.45454545454547" fill="rgb(0, 0, 0)" stroke="rgb(60, 60, 60)" stroke-width="1px" opacity="0.25"></line><line x1="0" y1="113.27272727272727" x2="300" y2="113.27272727272727" fill="rgb(0, 0, 0)" stroke="rgb(60, 60, 60)" stroke-width="1px" opacity="0.25"></line><line x1="0" y1="97.0909090909091" x2="300" y2="97.0909090909091" fill="rgb(0, 0, 0)" stroke="rgb(60, 60, 60)" stroke-width="1px" opacity="0.25"></line><line x1="0" y1="80.90909090909092" x2="300" y2="80.90909090909092" fill="rgb(0, 0, 0)" stroke="rgb(60, 60, 60)" stroke-width="1px" opacity="0.25"></line><line x1="0" y1="64.72727272727273" x2="300" y2="64.72727272727273" fill="rgb(0, 0, 0)" stroke="rgb(60, 60, 60)" stroke-width="1px" opacity="0.25"></line><line x1="0" y1="48.54545454545453" x2="300" y2="48.54545454545453" fill="rgb(0, 0, 0)" stroke="rgb(60, 60, 60)" stroke-width="1px" opacity="0.25"></line><line x1="0" y1="32.363636363636346" x2="300" y2="32.363636363636346" fill="rgb(0, 0, 0)" stroke="rgb(60, 60, 60)" stroke-width="1px" opacity="0.25"></line><line x1="0" y1="16.181818181818187" x2="300" y2="16.181818181818187" fill="rgb(0, 0, 0)" stroke="rgb(60, 60, 60)" stroke-width="1px" opacity="0.25"></line><line x1="0" y1="0" x2="300" y2="0" fill="rgb(0, 0, 0)" stroke="rgb(60, 60, 60)" stroke-width="1px" opacity="0.25"></line></g></g></g><g><g><line x1="0" y1="161.8181818181818" x2="300" y2="161.8181818181818" fill="rgb(0, 0, 0)" stroke="rgb(153, 153, 153)" stroke-width="1.5px"></line></g></g><g><g><line x1="33.33333333333333" y1="0" x2="33.33333333333333" y2="178" fill="rgb(0, 0, 0)" stroke="rgb(153, 153, 153)" stroke-width="1.5px"></line></g></g><g><g><g><g><g><path stroke="rgb(0, 153, 136)" stroke-width="2px" d="M33.69173333333333,-21.218670975078226L33.824,33.42377483601473L33.83466666666667,65.16749380074722L33.91786666666667,76.14394841781665L34.346666666666664,89.86038892714497L34.47893333333334,98.57862411137053L34.57066666666667,97.58692242461197L34.5856,98.37819426616409L34.688,103.40659678512388L34.71573333333333,102.86327204869156L34.858666666666664,104.1732880558728L35.0592,102.71953802725017L35.498666666666665,105.03977108979213L36.1792,104.41943956212964L36.187733333333334,100.34919378764444L36.29013333333333,103.1304628522515L36.30506666666666,104.94538309530766L36.39893333333333,106.06996655743613L36.94293333333333,110.46226142188112L37.034666666666666,104.16524684332758L37.041066666666666,102.21289523457331L37.339733333333335,101.96650543710015L37.425066666666666,102.34416895044993L37.67893333333333,104.01061904526924L38.02666666666667,105.40303984366452L38.25706666666667,106.34008560605635L38.432,107.02147676431649L38.6368,108.9240083013936L38.638933333333334,104.47788342490477L38.66453333333334,108.34193605135769L39.06346666666666,107.3026832780068L39.180800000000005,108.07509626939101L39.81653333333333,110.79954893480281L40.22613333333333,110.0474741752235L40.260266666666666,107.51021155887538L40.386133333333326,109.6265964405548L41.05386666666667,106.10417235792292L41.05813333333334,104.5192270232277L41.1648,108.8019586245577L41.31626666666667,106.57254625837354L41.472,108.10082215051277L41.48693333333334,106.20763320314659L41.77493333333334,109.10473604060941L41.9456,110.7070957541154L42.54506666666666,105.6056600400417L42.72213333333334,110.70601056223524L42.918400000000005,112.13688158789485L42.95466666666666,110.4044206910503L43.31093333333334,111.36387191093144L43.54986666666667,111.89211336734222L43.940266666666666,111.79104974897615L44.22826666666667,110.6244594537926L44.288,113.23094491915995L44.73813333333333,111.98526351036082L44.768,114.22598235617849L45.17333333333333,114.40685165194955L45.544533333333334,114.47046402961078L45.72586666666667,115.34823179384298L45.84533333333333,113.56261727676734L45.937066666666674,112.89044831239383L46.114133333333335,114.91449682196449L46.56213333333333,115.78287616810212L46.602666666666664,117.24567906306609L46.752,116.57064385127515L47.36,118.7888672178585L47.62666666666667,119.56935065270329L47.65226666666667,118.21547936856177L47.95733333333333,117.18081894465669L48.196266666666666,117.78598628284293L48.599466666666665,118.47759776779702L49.083733333333335,117.66181708907843L49.25013333333334,115.09876927510899L49.25653333333333,113.80501601508315L49.35893333333333,114.31982060536559L49.94986666666667,112.81811306634435L49.9712,112.98613768455537L50.04586666666667,110.21241798726466L50.38293333333333,116.88824016072816L50.54293333333334,116.88918809695846L50.78613333333333,113.99489511719719L50.873599999999996,115.06546144831458L51.17653333333333,118.85155943124461L51.2064,119.60294281026377L51.464533333333335,119.73596551872774L51.485866666666666,116.47149669876549L51.68426666666667,114.06066474982792L52.2752,111.44503717983615L52.3968,117.20793588974983L52.52053333333333,113.86565590349545L53.090133333333334,109.39034210818726L53.53386666666667,113.39343476889073L53.717333333333336,118.28209428709906L53.745066666666666,118.21004184156318L54.02453333333334,116.1650816748176L54.333866666666665,114.73127109379105L54.470400000000005,112.47621466044723L55.2576,115.37330623462282L55.272533333333335,117.8057147220803L55.519999999999996,117.97734557019774L55.690666666666665,119.2668460947265L55.782399999999996,117.65377082045453L55.96373333333334,118.97009265085315L56.3328,119.4910956774315L56.59306666666667,115.68606199186374L56.599466666666665,110.46518443008694L56.7296,115.81774972665568L56.74666666666666,116.59701923601781L56.8448,117.87227369482002L57.019733333333335,119.3723039044475L57.696,119.60497419156209L57.809066666666666,120.5144000797344L57.93706666666667,118.53481629240295L58.0096,118.29616850843516L58.263466666666666,115.85414146539047L58.42133333333334,115.88870825264738L58.86933333333333,117.53452215673312L58.88,117.67898730305089L59.285333333333334,116.57024617766238L59.55413333333334,117.84066965012327L60.36693333333333,118.91376342129401L60.806400000000004,119.66274372407989L60.93866666666666,123.04032253588393L61.141333333333336,123.99549196471773L61.198933333333336,121.749426744965L61.9264,123.39438600802747L62.2336,121.6760533452617L62.3424,118.74181170575433L62.391466666666666,119.02678115825151L62.7968,122.14831932472273L63.3728,119.85422990590764L63.6736,124.97513792329201L63.82933333333334,117.93642601291964L63.9232,119.88279791427033L64.15573333333333,123.94761706768173L64.5632,119.52127756593752L64.6272,122.29828024403582L64.66773333333333,124.35923867087996L64.864,123.8243609966342L64.928,123.65445374855425L65.06453333333333,123.04039236063268L65.10506666666667,125.92724828161954L66.34453333333333,128.0949560721461L66.41706666666666,126.40423313009298L66.91413333333334,120.39371763115749L66.96533333333333,116.64085196305506L67.71626666666667,119.55788655028621L68,123.14447551662525L68.1536,121.37224508558772L69.19466666666666,122.986779710155L69.29706666666667,119.73446780473071L69.74293333333334,123.97594835667765L69.80906666666667,121.96418794794435L70.22506666666666,119.49051356361082L70.27839999999999,119.57983309599675L70.32533333333333,123.15769745669695L70.76053333333333,126.59357368912549L70.7904,127.00996298553116L70.85226666666667,124.99014353783414L70.86933333333333,125.29645473759085L72.6976,127.58305173625068L74.11626666666668,126.1139424739126L74.22933333333333,125.53952491649866L74.44693333333333,126.48209757374508L75.00160000000001,128.90616614083518L75.23413333333332,129.81118370785538L75.264,129.07678746886495L75.42826666666667,127.74563552508673L75.6736,127.59796648961259L75.99146666666667,128.95141473638006L76.1152,130.2665489757586L76.13440000000001,130.13742303571814L76.29653333333333,128.64316646236662L76.52266666666667,127.74632702294443L76.53973333333333,129.88623127409437L76.6912,127.44454435638667L76.9408,128.65835571151044L77.15199999999999,128.49579344579942L77.15413333333333,130.46147741094669L77.23519999999999,130.8340908751541L77.664,132.37277350383556L77.6704,131.6207870576236L77.77493333333334,129.6008148803927L77.82613333333333,129.98265060273513L78.30613333333334,127.22265211742831L78.44266666666667,130.9155399582705L78.58133333333333,129.72578385960585L78.63040000000001,130.38615387483443L78.816,132.42981095088834L78.9696,131.62915907377896L79.2512,130.65698126815875L79.94453333333333,129.00555909031863L80.79146666666666,129.95893416399122L80.89173333333333,129.83294761914448L80.9728,132.9668225744219L81.03253333333333,133.12194044420593L81.27573333333333,133.20173794428013L82.0608,132.79239477157296L82.69653333333333,130.3433260244872L82.71786666666667,135.14400135685207L82.81173333333334,134.83254316682232L82.86720000000001,131.83178226925065L83.01226666666666,131.3667035105816L83.17226666666666,129.8597605533649L83.31306666666667,130.17166942780528L83.55413333333334,128.65091175744666L83.83146666666666,131.32625792677135L83.85493333333334,131.24016149087615L83.8976,128.7784516766302L84.4032,128.71319905357444L84.70400000000001,129.8275060403378L84.84906666666666,130.19595044975034L85.13706666666667,127.52056506729672L85.14133333333334,133.86792888967668L85.2224,132.27491289161185L85.27146666666667,133.37345419775787L85.86026666666667,134.31280815978744L86.06933333333332,133.51764139271805L86.08640000000001,135.19806642104675L86.4576,134.0245392704359L86.528,132.44503540682717L86.68586666666666,130.609639891585L87.20853333333334,133.70416197422435L87.37706666666666,135.15707360055023L87.50293333333333,134.5295229054612L88.13226666666667,133.985931376264L88.40106666666667,135.86224161148616L88.47573333333334,137.37332464357183L88.6336,134.35482382563006L88.94293333333333,133.5969544874862L89.1328,133.74922390688326L89.44853333333334,131.74299753091418L89.8048,130.5760844405123L90.5024,131.37818952046692L90.50453333333333,132.05730474649312L90.57066666666667,130.42943542829585L91.2384,132.62179160657024L91.264,133.45288781142636L91.27253333333333,134.7532853223955L91.27466666666668,132.9643197586256L91.52,130.18718482489638L92.0128,130.54408175717037L92.22186666666667,129.4592991290703L92.25813333333332,130.67243063558425L92.29653333333333,129.79907380299252L92.69546666666666,133.29773788794674L92.8896,134.171232778697L92.96213333333334,132.6270095948499L93.00053333333332,132.21857963955046L93.7536,134.23715999804412L94.0032,133.84339575870862L94.03093333333334,132.08133245270054L94.22720000000001,132.0886188942555L94.28906666666667,134.0566019631624L95.13813333333334,133.5646711034623L95.19359999999999,135.43618664672982L95.3344,134.77628206818815L95.63093333333333,131.9022839046092L95.7632,132.1549715938475L96.20693333333334,130.77514824089877L96.24106666666667,130.58914822285402L96.39893333333333,131.96318839972417L96.5056,134.39702344202843L96.97066666666666,137.9294702242192L97.34613333333334,138.37361572620077L97.4016,137.95303671512L97.53173333333334,137.20260861271237L97.70666666666668,132.35994466342152L97.85386666666666,134.86360007317165L98.03306666666667,135.41774716361238L98.31466666666667,136.7311783607562L98.33813333333333,139.99326392376074L98.64106666666667,138.09173381978823L98.8416,136.14008440711285L98.87146666666666,134.37243789950287L100.33493333333334,134.76689973512129L100.41386666666666,135.91557726720637L100.9536,136.2508011124656L101.19253333333334,137.0605560805764L101.3312,138.2226496963611L101.34613333333333,138.17638785144425L101.4656,139.91702713072738L101.4848,135.92031559754764L101.61066666666667,134.7321217794326L101.97333333333333,133.96155084767219L102.04373333333334,135.52623805435195L102.53013333333334,133.8351175759861L102.7584,134.45334015174842L103.00373333333334,134.55278453649473L103.10826666666667,138.24398829266988L103.22773333333333,137.52553763551126L103.50933333333333,138.56477015245434L103.5264,137.87313338372556L103.80799999999999,134.08040572881043L104.05973333333333,134.2860838296591L104.11733333333333,138.17657409228175L104.1216,135.9664703495341L104.31360000000001,135.80674405074885L104.46293333333334,137.2449067521878L104.53546666666666,132.6968191026377L104.5952,133.38023081663522L105.28853333333333,134.0843304025455L105.30773333333333,134.5877651404281L105.33333333333333,135.4437418652683L105.37386666666667,133.62034579734478L105.41013333333333,137.79261052544834L105.52533333333334,137.0318956956512L105.55093333333333,134.34512417553614L105.60426666666667,136.54643350266664L105.6832,136.1352619581091L105.90506666666667,136.83905736088397L105.94560000000001,138.77919796286716L106.16959999999999,138.88416842274538L106.64106666666667,138.9744193684943L106.68586666666667,137.71863134043195L106.80319999999999,136.2868962725209L106.98880000000001,136.68619940520566L107.14666666666666,135.4805201791924L107.53920000000001,134.78460430847093L108.71253333333333,136.02471290350573L108.75733333333332,136.47922707120222L108.7744,136.7536524023338L108.8064,137.3033514041411L109.03253333333332,138.5766135400305L109.22453333333334,138.49401674164136L109.64693333333334,138.6967262660486L109.66186666666667,137.85150093699178L109.81333333333333,137.80456891033404L110.0352,135.8964795102352L110.07146666666667,132.1582441965364L110.2144,136.24715295615982L110.66026666666667,136.25891213363684L110.72213333333333,136.63817649549196L111.47733333333333,137.5817074494608L111.54133333333333,136.19837461865774L111.77173333333333,136.48679624932743L111.88266666666667,135.9108713065034L111.94879999999999,135.67170736323112L112.0704,137.51275704580732L112.69973333333333,138.26333087848536L113.23946666666667,136.95848179721617L113.31200000000001,134.77718341648665L113.89866666666667,133.23656822513502L114.1376,133.05983597472613L114.81173333333332,133.45340742132248L115.33866666666667,134.88238715479213L115.3728,135.27615745330064L115.39626666666666,137.44853685666556L115.89546666666666,137.31557149782168L115.93813333333333,135.92230505620256L116.19413333333333,136.69318435388422L116.49493333333334,138.10832061321832L116.54613333333333,134.6234369632679L117.04106666666667,134.12428412398347L117.16693333333333,137.50350573342882L118.03306666666667,138.68087580285305L118.0928,137.55090725383985L118.2016,139.49207491635198L118.40853333333334,139.7524850024679L118.47466666666668,139.25029144391624L118.48533333333333,135.26002505625232L118.71146666666667,132.06715554500406L119.30026666666666,135.23845434814834L119.73546666666667,132.66673195087452L120.04906666666666,136.07754467235856L120.08319999999999,137.79586150287247L120.09173333333332,135.00891606505633L120.16213333333333,134.4691401164397L120.2048,138.55262770570033L120.36053333333334,136.27283599023593L120.88746666666667,136.34162556826544L121.32266666666666,136.68377907097025L121.38026666666667,135.21642068798786L121.5296,134.70798071597375L121.952,137.99610333665822L121.98613333333334,133.72862052444478L122.9632,136.3368848252093L123.22133333333333,135.97386048580162L123.456,136.36684556754852L123.89546666666666,133.35851367792037L123.93386666666666,138.20894190467814L124.38186666666667,138.00997479870733L125.02826666666667,138.20380537795097L125.66186666666667,138.56496465203858L126.17386666666667,138.6267450050737L126.24853333333334,133.27836358199596L126.36373333333333,135.43722562364604L126.43199999999999,134.88593846672802L126.5856,136.2521308353025L126.64320000000001,135.4625425739465L126.65173333333334,135.48721059255791L126.78613333333334,135.79424450669663L127.15946666666667,134.95172921994262L127.1872,131.9738575642587L127.35786666666668,133.99269735313598L127.36640000000001,136.26245463028204L127.4432,139.06145277320317L127.6288,141.25212147110628L127.64373333333333,137.46169112433802L127.7376,138.04452361486605L127.85066666666667,137.2544606122346L128.45013333333333,135.89615478690476L128.91306666666665,137.81362318143852L128.94293333333334,136.81432377132592L129.25866666666667,136.42124372783627L129.55733333333333,138.9455614798159L129.9968,135.18024551999457L130.016,137.89742229063444L130.12906666666666,137.78707440466798L130.41706666666667,135.45071650281943L130.73919999999998,133.2258663308021L131.5392,131.89771166630962L131.6608,136.35148611885427L131.82933333333332,139.94574047405249L131.90613333333332,140.28118421709863L132.1472,138.0440125502454L132.18133333333333,138.33452262233808L132.34986666666668,139.92506646203032L132.53333333333333,139.06228700440437L134.11626666666666,139.66577678527312L134.24426666666668,140.5034396505706L134.28693333333334,138.05472083969482L134.64533333333333,133.7021317335255L134.77333333333334,137.94665566344239L134.85013333333333,136.06650749545256L134.9632,138.73867193390595L134.99946666666668,134.67995461270286L135.02933333333334,134.95071145669755L135.10613333333333,136.90422102567146L135.18933333333334,137.27190486535295L135.48373333333333,135.51834372140792L135.6224,134.55444672218024L135.67146666666667,137.34138182489528L135.8976,136.74709975533756L136.1216,137.8901237108186L136.21973333333332,134.29950849162788L136.84906666666666,133.3125555598843L137.536,136.7301583643674L137.8304,136.14286204638867L138.44906666666668,137.2862186351097L138.56426666666667,138.26279129930757L138.6176,138.04550667558618L138.8864,141.37264621230668L139.0592,140.5341777084631L139.18933333333334,138.56230604898923L139.22986666666665,137.09307498431852L140.01493333333332,140.4308136147061L140.1216,137.5154356775489L140.32,138.44028316625614L140.35413333333332,140.84260545945992L140.41813333333334,136.0980162092475L140.57386666666667,135.94586557341006L141.344,137.86981708359514L141.34826666666666,136.85096759799922L141.74933333333334,136.9545631079467L142.09066666666666,137.7384381530204L142.42133333333334,136.40538974790525L142.61973333333333,136.50901402022419L142.73706666666666,135.25124144491593L142.86506666666668,137.256594757225L143.73546666666667,138.62802758541133L143.83786666666668,138.5502920074846L143.85493333333335,130.51838876095383L144.17066666666668,136.05159206290497L144.27093333333335,134.26457289895902L144.41173333333333,134.37106007037184L144.77439999999999,136.46110481927278L144.89173333333332,132.62184723507508L145.02186666666668,131.43511523940487L145.3568,133.16014434831877L145.3952,137.2261439092121L145.72373333333334,136.69470478403989L145.97973333333331,139.54977867299462L146.20159999999998,139.20654539316112L146.27200000000002,136.75451425885143L146.40853333333334,138.01919810442752L146.5984,139.8034184223711L146.63039999999998,138.25979336125903L147.40053333333333,138.71797940094675L147.90826666666666,136.07310784868406L147.92319999999998,137.62373936346015L147.9317333333333,139.68095400001744L147.94026666666664,139.75117447090557L148.24106666666668,138.841431101472L148.33493333333334,140.32910639391267L148.68906666666666,138.25394510236933L148.72106666666667,137.428954053512L148.76586666666668,136.8750648072903L148.79786666666666,135.8338014000491L149.0496,139.5754178916985L149.8688,139.6951676613164L149.91573333333332,138.63508068684442L150.0096,138.0216474548257L150.06933333333333,140.32156065251635L150.25706666666667,139.48566911578627L150.53439999999998,137.80288535549693L150.63039999999998,137.7153791666784L151.08053333333334,138.38905077895436L151.30666666666667,138.03284983576972L151.31306666666666,136.83878586734318L151.36853333333335,137.70277215052454L151.4346666666667,139.70032953516835L151.81653333333333,138.28324837265131L151.8272,139.74522932581192L151.84426666666667,139.30127322149977L152.18986666666666,136.6934614128415L152.30293333333336,137.5317814881801L152.7296,140.21819614219228L152.99626666666666,140.59035441405294L153.45066666666665,139.93055651425985L153.52106666666668,140.82060620580822L153.8837333333333,137.12545900525927L153.9136,137.23693453117124L154.0992,137.87289167712117L154.48106666666666,138.29093067319275L154.55146666666667,136.58233116170595L154.93333333333334,141.2524364661678L155.57333333333335,141.14694146344092L155.58613333333332,139.10951622416718L155.968,137.02171368652668L156.5568,138.4018183772103L157.69813333333335,140.11994863026626L157.80693333333332,140.12986972830848L158.0074666666667,141.71783116509897L158.25493333333333,142.3769389594437L158.37226666666666,138.31747073830937L158.43626666666665,140.379561675635L158.60266666666666,134.7601979463489L158.66026666666667,137.93914151831706L158.69653333333335,138.2015085648876L159.26613333333333,140.47317200544313L159.76533333333333,138.17948465676264L159.8656,139.3065407668692L160.12373333333332,137.91031617439097L160.56746666666666,137.51565100695836L160.63146666666668,138.54155258558427L160.77439999999999,139.0645181734153L161.51893333333334,138.15706466971025L161.71733333333333,140.08118728329922L161.73013333333336,138.41316525222607L161.77706666666666,140.4636066181547L161.96906666666666,132.41058844682277L162.3488,134.97975610923967L162.60693333333333,133.931804838806L162.76693333333333,138.14940047336304L163.72906666666665,141.1026392117411L163.90613333333334,137.10379117558205L164.0576,136.9267277089725L164.2645333333333,139.0338884843895L164.4032,138.53183101301084L164.608,139.01675444165772L164.91946666666666,138.64255280197693L165.89866666666668,139.46202449360294L166.06933333333333,136.49848000350153L166.70293333333333,140.70759177726404L166.76906666666667,140.31677105521118L166.78613333333334,139.08399530510712L167.46666666666664,140.38310659954044L167.78666666666666,140.4497901002494L168.2048,140.02403218420636L168.4992,139.93249964041883L168.64853333333332,138.6170113913347L168.6506666666667,139.67786913976576L168.82986666666665,135.85882665922455L169.16693333333336,136.39111591269338L169.40159999999997,139.49307743516152L169.58079999999998,140.11861940615418L169.8432,140.6688900038998L170.07786666666667,140.8790748449857L170.2378666666667,139.04891949382503L170.34879999999998,136.25535854228946L170.95893333333333,139.8887753518141L170.98026666666667,141.994811909572L171.3344,137.44639002133135L171.76533333333333,137.09375208038415L172.00213333333332,140.11333770730363L172.11733333333333,139.20815888478592L172.5248,138.07396420661783L172.62506666666667,140.34442133527773L172.80213333333333,138.27424909799726L172.96213333333333,139.97040279964085L173.02826666666667,138.9627921163246L173.12640000000002,139.6392559624328L173.28426666666667,141.89837294807626L173.3738666666667,143.45443568765927L173.51466666666667,141.25024997946235L173.93706666666665,138.8978701858752L174.24,138.89603963721538L174.7712,140.1236286810941L175.51573333333334,135.1222104547835L175.8144,137.40960722567053L176.15786666666665,138.81629624985322L176.2176,139.96023185320837L176.3136,140.4867497357182L177.20746666666665,140.91712792134814L177.28,141.17637952976978L177.3632,140.4455582927298L178.9632,139.42081384082786L178.96533333333335,138.51587065264403L179.0016,139.4400533124821L179.20853333333332,140.57342028691107L179.31733333333332,141.74155351942835L179.49439999999998,137.212621261687L179.66080000000002,138.51765305292173L180.38400000000001,137.30602988731167L180.50986666666665,138.45955098999866L180.90026666666668,140.7089878790306L180.9024,140.73143045685504L180.93013333333334,137.99450265624304L181.50613333333334,136.09578899678314L181.55093333333335,137.89801076407L181.9477333333333,138.55709148152437L182.06933333333333,138.52959697882773L182.23786666666666,138.90906620884203L182.48746666666668,138.17584040896833L183.64586666666665,136.37870681204805L183.6544,138.95787750325553L183.72053333333335,140.36760523376762L183.7973333333333,137.46929532562433L183.90613333333334,138.60990560543652L184.0682666666667,141.36133879824837L184.6208,140.6927606899348L184.7936,141.58546899788422L185.472,142.55029543820365L185.71519999999998,142.2159547537114L185.98399999999998,138.19879984544085L186.03946666666667,138.3412849537622L186.28693333333334,136.03695257334817L186.61546666666666,138.61952329446945L186.73493333333334,139.69025520003427L186.84373333333332,136.44546984254364L186.89066666666668,136.23091842521836L186.96106666666665,133.4017111711533L187.0144,134.70615563599165L187.35573333333335,137.5327889030017L187.52213333333333,132.13516468868045L187.56906666666669,136.63005205160883L187.57333333333335,140.99010558010858L187.79093333333333,142.18607580547925L187.79733333333334,137.11688277653096L188.12586666666667,139.80997208077454L188.47786666666667,140.45707800415764L188.79786666666666,142.37845114507658L189.08800000000002,141.09354699742914L189.45066666666665,140.743741876436L189.7472,142.14154673663487L190.75199999999998,139.85835430596353L190.76266666666666,139.85481062656905L190.86293333333333,141.55623090830116L190.99093333333334,141.20421126226586L191.04000000000002,139.45594002016026L191.22560000000001,138.94627810677832L191.60106666666667,139.43403705942112L191.61599999999999,137.6827389602565L193.04746666666668,137.98497763900178L193.12426666666664,136.74420338755868L193.63413333333332,137.64533901688526L193.70026666666666,137.59297157918743L194.33599999999998,137.2469305436983L194.37439999999998,140.55655614816555L194.54506666666668,138.41686108931492L194.67733333333334,139.19271829099574L194.8224,138.8709010829071L195.3152,138.80921272172137L195.31946666666667,138.67743529030932L195.58826666666667,140.2970017133202L195.68,142.9887136877586L195.93386666666666,142.5546079747845L196.38826666666665,140.9676618782101L196.49706666666668,140.07922142571533L196.80426666666668,141.5016456279373L196.90453333333332,140.47817846951364L196.9728,141.76950303695L197.15413333333333,137.41105710365304L197.4016,136.40714585991188L197.41653333333335,134.52027578263193L197.44,138.74622050317623L198.02453333333332,138.541588489206L198.29333333333332,138.7752495301802L198.58346666666668,141.22947211169887L198.7328,141.31900570291853L198.97386666666665,141.3181121286936L199.31306666666669,141.27422080532563L199.52426666666668,143.71742093295094L200.02346666666668,139.5430523834622L200.17919999999998,139.59247165973596L200.3008,140.9997373508387L201.3888,139.0034714360492L201.53386666666668,139.42928185253805L201.69813333333332,137.54979406491418L201.72799999999998,136.5908708472959L201.81119999999999,139.69273948072862L201.87946666666664,140.52344753601017L202.528,139.59188758288542L202.76053333333334,140.5500757696964L203.1424,140.45899578891078L203.19146666666666,141.6952176173062L203.60106666666664,141.02312188189052L203.6544,142.00391687330824L203.9338666666667,142.31677196846735L203.94879999999998,142.0963801376872L203.99786666666665,138.12544858543103L204.0682666666667,136.66967797548568L204.0768,138.9741198165747L204.21546666666666,136.3636832897168L204.35413333333335,137.3879704697962L204.7509333333333,139.12757988444451L204.8341333333333,139.9006295249605L204.86826666666664,137.76676048204672L205.17546666666667,139.25141195981018L205.23093333333333,140.5966004294761L205.30986666666666,141.69657316093384L205.76426666666666,141.20561291365846L205.85173333333333,141.03909688943043L206.02026666666669,141.25996914738283L206.12693333333334,138.79109149389512L206.16746666666666,142.86914991538282L206.38506666666666,142.56014868953343L206.94826666666665,142.01348283221705L207.18933333333334,140.2122976745444L207.264,138.58995703143452L208.16639999999998,141.62310033934133L208.43946666666668,142.55930163690448L208.80213333333333,141.5653733516384L209.39093333333335,138.14995752871653L209.6512,139.3887424827201L209.83893333333333,136.43370049631818L209.91146666666668,138.2595965080903L210.04160000000002,137.83512568120472L210.08,139.89652856701474L210.23999999999998,141.48905514243108L210.56213333333335,142.43135882301303L210.67306666666664,139.4915240513817L210.97173333333333,141.01607893479354L211.49013333333332,141.42772959811978L212.02773333333334,138.91321624765527L212.3712,140.29396485629246L212.47359999999998,140.5032107400722L212.88746666666665,140.61801206873815L212.9557333333333,138.5794783949183L212.97279999999998,139.58976873112047L213.37599999999998,141.5751079927117L213.408,142.40157341476208L213.5488,142.21347973708413L213.8176,137.76201535225192L213.99893333333333,138.8768807208338L214.11413333333334,141.32134374441767L214.28053333333335,136.84723242254836L214.71146666666664,138.95117414292943L214.77973333333335,138.44754712325323L214.85866666666666,141.63723982353744L215.02933333333334,139.43910130087738L215.35146666666668,139.21925669283556L215.75253333333333,137.2695589775821L215.81866666666667,140.8271925051905L215.88906666666665,142.35693747563184L216.0256,141.1716277265512L216.1088,139.42568073437212L216.13226666666668,138.32352504482137L216.26666666666668,139.5632437222941L216.77013333333335,139.29829001042614L216.83200000000002,141.5092475998115L217.7664,142.84568640570654L218.17173333333332,141.81154413157645L218.18666666666667,143.23013798240822L218.46613333333335,142.30006527374226L218.49386666666666,142.5148037141943L218.59199999999998,143.9731475967181L218.64746666666665,145.0298929747567L218.76266666666666,143.5110339657983L218.95253333333335,141.744682180349L219.77386666666666,140.9119587888557L219.89546666666666,138.41106750776888L220.1216,135.7980250230246L220.26026666666667,138.33008262037657L220.35626666666667,141.17425662913845L220.67839999999998,142.69046985508538L220.704,141.68038698403234L221.26719999999997,141.16934318978684L221.33333333333331,141.79836948136312L221.36106666666666,140.47028736722365L221.86666666666665,141.48966345406166L222.0096,141.89649013030663L222.50666666666666,144.96109445573498L222.7029333333333,142.3837827793564L222.80746666666667,142.13918540407235L223.03573333333335,142.24196694375124L223.54133333333334,142.20162295584868L223.76106666666666,142.3439776724766L223.9424,142.4282917309246L223.97653333333335,140.5537622311595L224.79146666666668,139.17353231109118L224.82773333333333,138.7245083453256L225.06453333333334,141.59312835293454L225.1050666666667,144.03778276689044L225.27786666666668,141.5194800010156L225.41013333333333,141.43396149775737L225.84106666666668,140.26318585098596L226.016,141.74541468372612L226.29546666666667,141.65885613639645L227.29813333333334,138.70325366208468L227.62666666666667,138.99667525022932L227.66933333333333,141.50982604732664L228.1088,141.7948856664875L228.48000000000002,140.94167115604316L228.8,140.6295043606486L228.84266666666667,140.95457055226342L228.84906666666666,136.88357888059676L228.98133333333334,139.39780767742366L229.03040000000001,141.05044760694247L229.0368,138.24932842162065L229.62133333333333,136.19421038832172L229.80266666666665,139.52589792114225L229.8581333333333,136.95483955855747L230.12693333333334,134.19155193473608L230.26133333333334,134.84541471880286L231.15733333333333,136.6967836948404L231.2832,138.07017906825035L231.28746666666666,139.9309720448598L231.3536,141.57578872535115L231.50506666666666,140.95221455087898L232.00426666666667,138.05039398404523L232.21120000000002,140.7841119667932L232.74026666666666,141.28619832402734L233.1712,143.92224125681625L233.6576,146.27767030694343L233.99893333333335,144.1866914723574L234.67946666666666,144.29199983443374L234.77333333333334,144.0171852910633L235.01226666666665,143.36245434091995L235.09333333333333,143.16607365102746L235.54133333333334,144.34538244984526L235.7696,143.51992797288125L236.06613333333334,144.29511141005486L236.12373333333332,141.54441967848032L236.39466666666667,139.6208657783129L236.68693333333334,141.92061294198274L236.8064,139.7602556401397L236.87466666666666,143.46645790443074L237.02613333333332,141.45395977017975L237.10506666666666,139.5382262500279L237.8368,141.6002460867366L238.02666666666667,140.4158450151151L238.07573333333332,142.92942982387177L238.20373333333333,142.14686969637216L238.7776,141.6922789188476L238.94826666666665,141.89260192293887L239.12746666666666,138.87654761366878L239.2128,138.52895554782106L239.2768,139.41389403001432L239.41546666666665,141.74561479623515L239.48373333333336,137.44393352610922L240.3072,138.63295494175696L240.6016,138.6402026074714L240.7509333333333,138.75677868145948L240.90026666666665,141.98876964861734L241.15626666666668,141.64697935037202L241.25013333333334,139.0106324219575L241.54026666666667,138.5728213532544L241.66186666666667,139.4866674747334L241.85173333333333,139.7605353532538L241.96693333333332,135.4423126899186L242.13760000000002,136.06895867343823L242.3722666666667,136.29034432547573L242.3936,139.59756833019588L242.69866666666667,138.54916368328986L242.85440000000003,139.34601846740355L243.264,138.78022739749758L243.41333333333333,137.91182235158448L243.51786666666666,138.5227663148786L243.5562666666667,138.00593658752223L243.6928,136.8302228370237L244.01066666666668,139.4423808959842L244.51413333333335,137.0605982638756L244.65279999999998,139.37417445112877L245.11146666666667,137.18418611224442L245.61493333333334,138.0062157633605L245.65973333333335,140.54333687018115L245.84106666666668,141.13812290652143L245.84533333333334,141.6373934665913L246.42133333333334,144.88429777359715L247.2746666666667,146.18639780710677L247.3578666666667,143.6132013288064L247.71200000000002,141.11754359308242L247.87626666666668,140.80120874564048L247.92533333333336,139.13230549439635L248.27093333333332,141.13657049839784L248.4992,143.5760970124093L248.56746666666666,141.48544443354476L248.62506666666667,140.64143479290883L248.64426666666668,139.38375246343617L248.79573333333335,140.85700650756667L248.9557333333333,138.1167706149254L249.1328,138.6103762803932L249.30133333333333,138.7106759385795L249.51680000000002,141.03402569836834L249.55946666666665,136.72620299101473L249.7216,137.16514188433052L249.8432,139.19250574882895L249.86666666666667,141.40257387103642L250.27626666666666,140.71675867392912L250.7712,142.07325776062078L250.81386666666668,139.8249226288678L251.57546666666667,141.39666152132372L251.5904,142.70554099162115L251.9488,142.6071554370775L252.02133333333333,144.02285450929185L252.0896,141.73676195609113L252.2048,143.11840102214322L252.39679999999998,142.0215242388713L252.81279999999998,141.72023271057577L252.87893333333332,141.15787620103862L252.99626666666666,141.0811250070667L253.07093333333333,143.27796713687775L253.09226666666666,141.34278353016796L253.50826666666666,139.53179244538515L253.74506666666665,141.96010618629458L254.05440000000002,140.11142099632266L254.17173333333335,139.35655598427377L254.624,141.4583556275155L254.92693333333332,141.6613763019521L255.08906666666667,141.82382859260312L255.79093333333333,139.62920700212783L255.91466666666665,140.10727348203287L256.704,142.4155451108234L256.9258666666667,142.35746921702616L256.95573333333334,138.75909310560243L256.99626666666666,139.4087859553581L257.0837333333333,139.21658609014932L257.1136,138.77851438019712L257.1456,139.79207658466123L257.17333333333335,140.9648127190962L257.2565333333333,141.28069916183102L257.34186666666665,142.49317188856702L257.36106666666666,137.76804965288784L257.48266666666666,137.35991338874254L257.53386666666665,137.26053475241167L257.89653333333337,139.2682137943958L257.9008,141.45279347806735L258.26133333333337,142.63540323160194L258.6368,138.18871362176978L258.8330666666667,140.23904625223003L258.9312,142.615578194155L258.9866666666667,144.3205347872122L259.0165333333333,142.83041840997492L259.4282666666667,143.2321867922646L259.9168,141.18427215801978L260.0384,140.65493620886605L260.3008,138.29330940896608L260.67626666666666,139.68000397812114L260.8896,143.09800883371105L261.1093333333333,142.70042239027845L261.82186666666666,141.95888779508738L262.1056,137.91647099658812L263.23199999999997,139.9268696044004L263.31733333333335,138.37076473818735L263.38773333333336,139.37003846951598L263.78026666666665,142.01247438293748L264.6933333333333,142.3531905984459L264.98560000000003,142.32606040093765L265.57013333333333,141.84595177671483L266.07786666666664,140.1939075833629L266.38506666666666,143.0077446184742L266.3872,143.7704359938018L266.51093333333336,141.38410448346593L266.92906666666664,144.49205105979584L266.93760000000003,143.11539245533552L267.10613333333333,143.35992020789257L267.6224,144.07086452714867L268.1365333333334,143.89957672118865L268.4096,141.07976427043403L268.48,136.04552955086348L268.65493333333336,140.32014339469157L268.89386666666667,138.81232814698063L269.02186666666665,138.00191344120017L269.1242666666667,140.7723478112855L269.2522666666666,142.69136911726335L269.3290666666667,142.20471879951506L269.3696,141.16178771378551L269.5744,141.1907688063608L269.6469333333333,140.80980339973888L269.6682666666667,141.9877095832754L270.0416,141.46613706435733L270.23359999999997,142.93629603935682L270.5493333333333,145.51787307635624L270.6368,145.19774179812586L270.82453333333336,140.79430092937267L271.29813333333334,141.49452887298395L271.37493333333333,140.28669132836245L271.6245333333333,138.86018089517864L272.02773333333334,140.78916663078505L272.08746666666667,142.71041647717544L272.98986666666667,142.3403022253389L273.27146666666664,141.8250916156044L273.68533333333335,145.30045152621688L273.7685333333333,139.39896652161502L274.19306666666665,137.67951463767272L275.08906666666667,138.73590601909822L275.38986666666665,139.2801662768642L275.57759999999996,141.68914216509148" style="fill: none;" fill="none"></path></g></g></g></g><g opacity="0.2"><g><g><g><path stroke="rgb(0, 153, 136)" stroke-width="2px" d="M33.425066666666666,-177.872221513228L33.69173333333333,72.77345934781162L33.824,85.88052281466396L33.83466666666667,102.49810730327259L33.91786666666667,90.47480756586249L34.346666666666664,108.8351640701294L34.47893333333334,111.04583991657604L34.57066666666667,96.1410118449818L34.5856,99.54516653581099L34.688,110.87318849563599L34.71573333333333,102.05321285941385L34.858666666666664,106.13118301738392L35.0592,100.54365973039107L35.498666666666665,108.51557510549371L36.1792,103.48967144706033L36.187733333333334,94.24669577858664L36.29013333333333,107.30118950930509L36.30506666666666,107.66730265183882L36.39893333333333,107.75667043165727L36.94293333333333,117.05030224540016L37.034666666666666,94.72007031874223L37.041066666666666,99.28443206440319L37.339733333333335,101.59692560542713L37.425066666666666,102.91065974669023L37.67893333333333,106.51028234308417L38.02666666666667,107.49166510321878L38.25706666666667,107.74565185200085L38.432,108.0435624556108L38.6368,111.77780385450883L38.638933333333334,97.80869856747714L38.66453333333334,114.13801370967519L39.06346666666666,105.74380432475697L39.180800000000005,109.2337156642567L39.81653333333333,114.88622773777354L40.22613333333333,108.91936206817627L40.260266666666666,103.70431769977917L40.386133333333326,112.80117373033004L41.05386666666667,100.8205362666737L41.05813333333334,102.14180903001265L41.1648,115.22605601224032L41.31626666666667,103.22842771356757L41.472,110.393235986883L41.48693333333334,103.36784978346391L41.77493333333334,113.45039029554887L41.9456,113.11063532395796L42.54506666666666,97.95350646972656L42.72213333333334,118.3565363450484L42.918400000000005,114.28318812630394L42.95466666666666,107.80572934584184L43.31093333333334,112.80304874073376L43.54986666666667,112.68447555195202L43.940266666666666,111.63945432142778L44.22826666666667,108.8745740110224L44.288,117.14067311720416L44.73813333333333,110.11674139716409L44.768,117.5870606249029L45.17333333333333,114.67815559560603L45.544533333333334,114.56588259610263L45.72586666666667,116.66488344019109L45.84533333333333,110.88419550115411L45.937066666666674,111.88219486583363L46.114133333333335,117.95056958632037L46.56213333333333,117.08544518730858L46.602666666666664,119.43988340551203L46.752,115.55809103358877L47.36,122.11620226773348L47.62666666666667,120.74007580497047L47.65226666666667,116.18467244234952L47.95733333333333,115.62882830879906L48.196266666666666,118.6937372901223L48.599466666666665,119.51501499522817L49.083733333333335,116.43814607100055L49.25013333333334,111.25419755415483L49.25653333333333,111.86438612504439L49.35893333333333,115.09202749078923L49.94986666666667,110.5655517578125L49.9712,113.23817461187188L50.04586666666667,106.05183844132857L50.38293333333333,126.90197342092341L50.54293333333334,116.89061000130394L50.78613333333333,109.65345564755526L50.873599999999996,116.67131094499067L51.17653333333333,124.53070640563965L51.2064,120.7300178787925L51.464533333333335,119.93549958142367L51.485866666666666,111.57479346882214L51.68426666666667,110.44441682642157L52.2752,107.52159582484852L52.3968,125.85228395462036L52.52053333333333,108.85223592411388L53.090133333333334,102.67737141522494L53.53386666666667,119.39807375994596L53.717333333333336,125.61508356441152L53.745066666666666,118.10196317325938L54.02453333333334,113.09764142469926L54.333866666666665,112.58055522225119L54.470400000000005,109.09363001043145L55.2576,119.71894359588623L55.272533333333335,121.4543274532665L55.519999999999996,118.23479184237394L55.690666666666665,121.20109688151967L55.782399999999996,115.23415790904653L55.96373333333334,120.94457539645109L56.3328,120.27260021729901L56.59306666666667,109.97851146351208L56.599466666666665,102.63386808742176L56.7296,123.84659767150879L56.74666666666666,117.76592350006104L56.8448,119.78515538302335L57.019733333333335,121.62234921888873L57.696,119.95397962223399L57.809066666666666,121.87853891199285L57.93706666666667,115.56544061140582L58.0096,117.93819683248347L58.263466666666666,112.19110090082343L58.42133333333334,115.94055843353271L58.86933333333333,120.00324301286176L58.88,117.89568502252752L59.285333333333334,114.90713448957965L59.55413333333334,119.7463048588146L60.36693333333333,120.5234040780501L60.806400000000004,120.78621417825872L60.93866666666666,128.10669075359L61.141333333333336,125.42824610796842L61.198933333333336,118.38032891533592L61.9264,125.86182490262118L62.2336,119.09855435111305L62.3424,114.34044924649325L62.391466666666666,119.4542353369973L62.7968,126.8306265744296L63.3728,116.41309577768499L63.6736,132.65649994936857L63.82933333333334,107.37835814736106L63.9232,122.80235576629639L64.15573333333333,130.04484579779884L64.5632,112.8817683133212L64.6272,126.46378426118329L64.66773333333333,127.45067631114614L64.864,123.02204448526555L64.928,123.39959287643433L65.06453333333333,122.11930027875033L65.10506666666667,130.2575321630998L66.34453333333333,131.34651775793597L66.41706666666666,123.86814871701327L66.91413333333334,111.37794438275424L66.96533333333333,111.01155346090142L67.71626666666667,123.93343843113291L68,128.5243589661338L68.1536,118.71389943903142L69.19466666666666,125.40858164700595L69.29706666666667,114.85599994659424L69.74293333333334,130.33816918459806L69.80906666666667,118.94654733484441L70.22506666666666,115.7800019871105L70.27839999999999,119.71381239457563L70.32533333333333,128.52449399774724L70.76053333333333,131.74738803776827L70.7904,127.63454693013972L70.85226666666667,121.96041436628863L70.86933333333333,125.7559215372259L72.6976,131.01294723424044L74.11626666666668,123.9102785804055L74.22933333333333,124.67789858037776L74.44693333333333,127.89595655961469L75.00160000000001,132.54226899147034L75.23413333333332,131.16871005838567L75.264,127.97519311037931L75.42826666666667,125.74890760941938L75.6736,127.37646293640137L75.99146666666667,130.98158710653132L76.1152,132.23925033482638L76.13440000000001,129.94373412565753L76.29653333333333,126.4017816023393L76.52266666666667,126.40106786381114L76.53973333333333,133.09608765081927L76.6912,123.78201397982511L76.9408,130.47907274419612L77.15199999999999,128.2519500472329L77.15413333333333,133.41000335866755L77.23519999999999,131.39301107146522L77.664,134.6807974468578L77.6704,130.49280738830566L77.77493333333334,126.57085661454633L77.82613333333333,130.55540418624878L78.30613333333334,123.0826543894681L78.44266666666667,136.45487171953374L78.58133333333333,127.94114971160889L78.63040000000001,131.37670889767733L78.816,135.49529656496915L78.9696,130.4281812581149L79.2512,129.19871455972844L79.94453333333333,126.52842582355845L80.79146666666666,131.38899677450007L80.89173333333333,129.64396780187434L80.9728,137.6676350073381L81.03253333333333,133.35461724888194L81.27573333333333,133.32143419439143L82.0608,132.1783800125122L82.69653333333333,126.66972290385854L82.71786666666667,142.3450143553994L82.81173333333334,134.36535588177767L82.86720000000001,127.33064092289317L83.01226666666666,130.66908537257802L83.17226666666666,127.59934611753985L83.31306666666667,130.6395327394659L83.55413333333334,126.36977525190875L83.83146666666666,135.3392771807584L83.85493333333334,131.11101683703336L83.8976,125.08588695526123L84.4032,128.6153201189908L84.70400000000001,131.49896652048284L84.84906666666666,130.74861706386912L85.13706666666667,123.50748699361628L85.14133333333334,143.3889746232466L85.2224,129.8853888945146L85.27146666666667,135.02126615697688L85.86026666666667,135.72183910283175L86.06933333333332,132.32489124211398L86.08640000000001,137.7187039635398L86.4576,132.2642485445196L86.528,130.07577961141413L86.68586666666666,127.8565466187217L87.20853333333334,138.34594509818336L87.37706666666666,137.33644104003906L87.50293333333333,133.58819686282766L88.13226666666667,133.1705440824682L88.40106666666667,138.6767069643194L88.47573333333334,139.63994919170034L88.6336,129.82707259871742L88.94293333333333,132.46015048027039L89.1328,133.97762803597885L89.44853333333334,128.73365796696055L89.8048,128.82571480490944L90.5024,132.5813471403989L90.50453333333333,133.07597758553246L90.57066666666667,127.98763145099986L91.2384,135.91032587398183L91.264,134.6995321187106L91.27253333333333,136.70388158884916L91.27466666666668,130.2808714129708L91.52,126.02148242430255L92.0128,131.07942715558139L92.22186666666667,127.83212518692017L92.25813333333332,132.49212789535522L92.29653333333333,128.4890385541049L92.69546666666666,138.5457340153781L92.8896,135.4814751148224L92.96213333333334,130.3106748190793L93.00053333333332,131.60593470660123L93.7536,137.26503053578463L94.0032,133.25274939970538L94.03093333333334,129.4382374936884L94.22720000000001,132.0995485565879L94.28906666666667,137.00857656652278L95.13813333333334,132.82677481391212L95.19359999999999,138.2434599616311L95.3344,133.78642520037565L95.63093333333333,127.59128665924072L95.7632,132.53400312770498L96.20693333333334,128.70541321147573L96.24106666666667,130.31014819578692L96.39893333333333,134.02424866502935L96.5056,138.04777600548485L96.97066666666666,143.22814039750534L97.34613333333334,139.03983397917312L97.4016,137.32216819849882L97.53173333333334,136.0769664591009L97.70666666666668,125.0959487394853L97.85386666666666,138.61908318779686L98.03306666666667,136.2489677992734L98.31466666666667,138.70132515647194L98.33813333333333,144.88639226826754L98.64106666666667,135.23943866382945L98.8416,133.2126102880998L98.87146666666666,131.72096813808787L100.33493333333334,135.35859248854896L100.41386666666666,137.63859356533396L100.9536,136.75363688035446L101.19253333333334,138.2751885327426L101.3312,139.96579012003812L101.34613333333333,138.10699508406898L101.4656,142.5279860496521L101.4848,129.92524829777804L101.61066666666667,132.94983105225995L101.97333333333333,132.80569445003164L102.04373333333334,137.87326886437157L102.53013333333334,131.29843685843727L102.7584,135.38067401539195L103.00373333333334,134.70195111361417L103.10826666666667,143.7807939269326L103.22773333333333,136.44786164977333L103.50933333333333,140.12361892786893L103.5264,136.83567823063242L103.80799999999999,128.39131424643776L104.05973333333333,134.59460098093206L104.11733333333333,144.01230948621577L104.1216,132.6513147354126L104.31360000000001,135.56715460257095L104.46293333333334,139.40215080434626L104.53546666666666,125.87468762831256L104.5952,134.4053483876315L105.28853333333333,135.1404797814109L105.30773333333333,135.34291724725205L105.33333333333333,136.72770695252854L105.37386666666667,130.88525169545954L105.41013333333333,144.05100761760366L105.52533333333334,135.89082345095548L105.55093333333333,130.31496689536354L105.60426666666667,139.84839749336243L105.6832,135.5185046412728L105.90506666666667,137.8947504650463L105.94560000000001,141.68940886584195L106.16959999999999,139.04162411256272L106.64106666666667,139.1097957871177L106.68586666666667,135.83494929833847L106.80319999999999,134.1392936706543L106.98880000000001,137.2851541042328L107.14666666666666,133.6720013401725L107.53920000000001,133.7407305023887L108.71253333333333,137.88487579605797L108.75733333333332,137.16099832274696L108.7744,137.16529039903122L108.8064,138.12789990685204L109.03253333333332,140.4865067438646L109.22453333333334,138.37012154405767L109.64693333333334,139.00079055265945L109.66186666666667,136.58366294340652L109.81333333333333,137.73417087034744L110.0352,133.0343454100869L110.07146666666667,126.55089122598821L110.2144,142.38051609559494L110.66026666666667,136.2765508998524L110.72213333333333,137.2070730382746L111.47733333333333,138.9970038804141L111.54133333333333,134.12337537245315L111.77173333333333,136.91942869533193L111.88266666666667,135.0469838922674L111.94879999999999,135.31296144832265L112.0704,140.27433156967163L112.69973333333333,139.38919162750244L113.23946666666667,135.0012081753124L113.31200000000001,131.5052358453924L113.89866666666667,130.92564543810758L114.1376,132.79473759911278L114.81173333333332,134.04376459121704L115.33866666666667,137.02585675499657L115.3728,135.86681290106338L115.39626666666666,140.70710596171293L115.89546666666666,137.1161234595559L115.93813333333333,133.83240539377385L116.19413333333333,137.84950330040672L116.49493333333334,140.23102500221947L116.54613333333333,129.39611148834229L117.04106666666667,133.3755548650568L117.16693333333333,142.5723381475969L118.03306666666667,140.44693090698937L118.0928,135.85595443032005L118.2016,142.4038264101202L118.40853333333334,140.14310013164175L118.47466666666668,138.49700110608882L118.48533333333333,129.27462547475642L118.71146666666667,127.27785127813166L119.30026666666666,139.99540255286476L119.73546666666667,128.8091483549638L120.04906666666666,141.19376375458458L120.08319999999999,140.37333674864334L120.09173333333332,130.82849790833214L120.16213333333333,133.65947619351473L120.2048,144.6778590895913L120.36053333333334,132.85314841703936L120.88746666666667,136.44480993530968L121.32266666666666,137.19700932502747L121.38026666666667,133.0153831135143L121.5296,133.9453207579526L121.952,142.92828726768494L121.98613333333334,127.3273963061246L122.9632,140.2492812763561L123.22133333333333,135.4293239766901L123.456,136.95632319016892L123.89546666666666,128.8460158434781L123.93386666666666,145.48458424481478L124.38186666666667,137.71152413975108L125.02826666666667,138.49455124681646L125.66186666666667,139.10670356317002L126.17386666666667,138.71941553462636L126.24853333333334,125.25579144737938L126.36373333333333,138.67551868612117L126.43199999999999,134.059007731351L126.5856,138.30141938816416L126.64320000000001,134.2781601819125L126.65173333333334,135.52421262047508L126.78613333333334,136.2547953779047L127.15946666666667,133.68795628981155L127.1872,127.50705008073285L127.35786666666668,137.02095703645188L127.36640000000001,139.66709054600108L127.4432,143.2599499875849L127.6288,144.53812451796097L127.64373333333333,131.7760456041856L127.7376,138.91877235065806L127.85066666666667,136.06936610828745L128.45013333333333,133.85869604890996L128.91306666666665,140.68982577323914L128.94293333333334,135.31537465615708L129.25866666666667,135.83162366260183L129.55733333333333,142.7320381077853L129.9968,129.53227158026263L130.016,141.97318744659424L130.12906666666666,137.62155257571828L130.41706666666667,131.94617965004662L130.73919999999998,129.8885910727761L131.5392,129.90547966957092L131.6608,143.03214779767123L131.82933333333332,145.33712200684982L131.90613333333332,140.7843498316678L132.1472,134.6882550499656L132.18133333333333,138.77028773047707L132.34986666666668,142.3108822215687L132.53333333333333,137.76811781796542L134.11626666666666,140.57101145657626L134.24426666666668,141.75993394851685L134.28693333333334,134.3816426233812L134.64533333333333,127.17324807427147L134.77333333333334,144.31344155831772L134.85013333333333,133.24628524346784L134.9632,142.74691859158602L134.99946666666668,128.5918786308982L135.02933333333334,135.35684672268954L135.10613333333333,139.83448537913236L135.18933333333334,137.82343062487516L135.48373333333333,132.8880020054904L135.6224,133.10860122333872L135.67146666666667,141.52178447896785L135.8976,135.85567665100098L136.1216,139.6046596440402L136.21973333333332,128.9135856628418L136.84906666666666,131.8321261622689L137.536,141.85656257109207L137.8304,135.26191756942055L138.44906666666668,139.00125351819125L138.56426666666667,139.72765029560435L138.6176,137.71957974000412L138.8864,146.3633555173874L139.0592,139.27647495269775L139.18933333333334,135.6044985597784L139.22986666666665,134.88922838731247L140.01493333333332,145.43742156028748L140.1216,133.14236877181312L140.32,139.82755439931697L140.35413333333332,144.44608889926565L140.41813333333334,128.98113233392888L140.57386666666667,135.71763961965388L141.344,140.75574434887278L141.34826666666666,135.32269336960533L141.74933333333334,137.10995637286794L142.09066666666666,138.914250720631L142.42133333333334,134.40581714023244L142.61973333333333,136.66445042870262L142.73706666666666,133.36458258195356L142.86506666666668,140.26462472568858L143.73546666666667,140.6851768276908L143.83786666666668,138.43368864059448L143.85493333333335,118.47053389115766L144.17066666666668,144.35139701583168L144.27093333333335,131.5840441530401L144.41173333333333,134.53079082749107L144.77439999999999,139.59617194262418L144.89173333333332,126.86296085877851L145.02186666666668,129.65501724589956L145.3568,135.7476880116896L145.3952,143.3251432505521L145.72373333333334,135.8975460962816L145.97973333333331,143.83238950642672L146.20159999999998,138.69169547341087L146.27200000000002,133.0764675573869L146.40853333333334,139.91622387279165L146.5984,142.47974889928645L146.63039999999998,135.9443557695909L147.40053333333333,139.40525846047836L147.90826666666666,132.10580052029002L147.92319999999998,139.9496866356243L147.9317333333333,142.76677595485341L147.94026666666664,139.85650517723778L148.24106666666668,137.47681604732168L148.33493333333334,142.56061933257362L148.68906666666666,135.14120316505432L148.72106666666667,136.19146748022598L148.76586666666668,136.04423093795776L148.79786666666666,134.27190628918734L149.0496,145.1878426291726L149.8688,139.87479231574318L149.91573333333332,137.0449502251365L150.0096,137.10149760679764L150.06933333333333,143.77143044905227L150.25706666666667,138.23183181069115L150.53439999999998,135.27870971506292L150.63039999999998,137.5841198834506L151.08053333333334,139.39955819736826L151.30666666666667,137.49854842099276L151.31306666666666,135.04768991470337L151.36853333333335,138.99875157529658L151.4346666666667,142.69666561213407L151.81653333333333,136.15762662887573L151.8272,141.93820075555283L151.84426666666667,138.6353390650316L152.18986666666666,132.78174369985408L152.30293333333336,138.78926160118797L152.7296,144.24781812321055L152.99626666666666,141.14859182184392L153.45066666666665,138.9408596645702L153.52106666666668,142.15568074313077L153.8837333333333,131.58273820443586L153.9136,137.4041478200392L154.0992,138.82682739604604L154.48106666666666,138.91798916730014L154.55146666666667,134.01943189447576L154.93333333333334,148.25759442286056L155.57333333333335,140.9886989593506L155.58613333333332,136.05337836525658L155.968,133.89000988006592L156.5568,140.47197541323575L157.69813333333335,142.69714400985023L157.80693333333332,140.14475137537175L158.0074666666667,144.09977332028475L158.25493333333333,143.36560065096074L158.37226666666666,132.2282684066079L158.43626666666665,143.47269808162343L158.60266666666666,126.33115235241976L158.66026666666667,142.70755687626925L158.69653333333335,138.59505913474342L159.26613333333333,143.8806671662764L159.76533333333333,134.73895363374191L159.8656,140.99712493202904L160.12373333333332,135.81597928567368L160.56746666666666,136.92365325580943L160.63146666666668,140.0804049535231L160.77439999999999,139.8489665551619L161.51893333333334,136.79588441415268L161.71733333333333,142.96737120368263L161.73013333333336,135.91113220561635L161.77706666666666,143.53926866704768L161.96906666666666,120.33106118982488L162.3488,138.83350760286504L162.60693333333333,132.35987793315542L162.76693333333333,144.47579392519864L163.72906666666665,145.5324973193082L163.90613333333334,131.10551912134343L164.0576,136.66113250905818L164.2645333333333,142.19462964751503L164.4032,137.7787448059429L164.608,139.74413958462802L164.91946666666666,138.08125034245577L165.89866666666668,140.69123203104192L166.06933333333333,132.05316326834938L166.70293333333333,147.02125943790782L166.76906666666667,139.7305399721319L166.78613333333334,137.23483167995107L167.46666666666664,142.33177354119042L167.78666666666666,140.54981535131282L168.2048,139.38539531014183L168.4992,139.79520082473755L168.64853333333332,136.6437790177085L168.6506666666667,141.26915576241234L168.82986666666665,130.13026293841276L169.16693333333336,137.18954979289663L169.40159999999997,144.14601971886376L169.58079999999998,141.05693236264315L169.8432,141.49429590051824L170.07786666666667,141.19435210661453L170.2378666666667,136.30368646708402L170.34879999999998,132.06501711498606L170.95893333333333,145.33890056610107L170.98026666666667,145.15386674620888L171.3344,130.6237571889704L171.76533333333333,136.56479516896334L172.00213333333332,144.64271614768288L172.11733333333333,137.8503906510093L172.5248,136.37267218936574L172.62506666666667,143.7501070282676L172.80213333333333,135.16899074207652L172.96213333333333,142.51463335210627L173.02826666666667,137.4513760913502L173.12640000000002,140.65395173159513L173.28426666666667,145.28704842654142L173.3738666666667,145.78852979703385L173.51466666666667,137.94397141716698L173.93706666666665,135.36930049549449L174.24,138.89329381422561L174.7712,141.96501224691218L175.51573333333334,127.62008311531761L175.8144,140.840702382001L176.15786666666665,140.92632978612727L176.2176,141.67613525824112L176.3136,141.27652655948293L177.20746666666665,141.56269519979304L177.28,141.56525694240224L177.3632,139.34932643716985L178.9632,137.88369716297495L178.96533333333335,137.15845587036827L179.0016,140.82632730223915L179.20853333333332,142.2734707485546L179.31733333333332,143.4937533682043L179.49439999999998,130.4192228750749L179.66080000000002,140.47520073977384L180.38400000000001,135.48859513889659L180.50986666666665,140.18983264402908L180.90026666666668,144.0831432125785L180.9024,140.76509432359177L180.93013333333334,133.88911095532504L181.50613333333334,133.24771850759333L181.55093333333335,140.60134341500023L181.9477333333333,139.54571255770597L182.06933333333333,138.48835522478277L182.23786666666666,139.47827005386353L182.48746666666668,137.07600170915777L183.64586666666665,133.68300641666758L183.6544,142.8266335400668L183.72053333333335,142.48219682953575L183.7973333333333,133.12183046340942L183.90613333333334,140.3208210251548L184.0682666666667,145.48848858746615L184.6208,139.68989352746445L184.7936,142.92453145980835L185.472,143.99753509868276L185.71519999999998,141.71444372697312L185.98399999999998,132.173067483035L186.03946666666667,138.55501261624423L186.28693333333334,132.58045400272715L186.61546666666666,142.49337937615135L186.73493333333334,141.2963530583815L186.84373333333332,131.5782918063077L186.89066666666668,135.9090912992304L186.96106666666665,129.15790029005572L187.0144,136.66282233324918L187.35573333333335,141.77273880351675L187.52213333333333,124.03872836719859L187.56906666666669,143.37238309600136L187.57333333333335,147.53018587285823L187.79093333333333,143.98003114353526L187.79733333333334,129.51309323310852L188.12586666666667,143.8496060371399L188.47786666666667,141.42773688923228L188.79786666666666,145.26051085645503L189.08800000000002,139.16619077595797L189.45066666666665,140.2190341949463L189.7472,144.23825402693313L190.75199999999998,136.4335656599565L190.76266666666666,139.84949510747737L190.86293333333333,144.10836133089933L190.99093333333334,140.6761817932129L191.04000000000002,136.83353315700185L191.22560000000001,138.18178523670542L191.60106666666667,140.1656754883853L191.61599999999999,135.05579181150955L193.04746666666668,138.43833565711975L193.12426666666664,134.883042010394L193.63413333333332,138.9970424608751L193.70026666666666,137.5144204226407L194.33599999999998,136.72786899046463L194.37439999999998,145.52099455486643L194.54506666666668,135.20731850103897L194.67733333333334,140.35650409351695L194.8224,138.38817527077416L195.3152,138.71668017994273L195.31946666666667,138.47976914319125L195.58826666666667,142.72635134783658L195.68,147.02628164941615L195.93386666666666,141.90344940532339L196.38826666666665,138.5872427333485L196.49706666666668,138.74656074697322L196.80426666666668,143.63528193127024L196.90453333333332,138.9429777318781L196.9728,143.70648988810453L197.15413333333333,130.8733882037076L197.4016,134.90127899430016L197.41653333333335,131.689970666712L197.44,145.0851375839927L198.02453333333332,138.23464046825063L198.29333333333332,139.12574109164152L198.58346666666668,144.9108059839769L198.7328,141.45330608974803L198.97386666666665,141.3167717673562L199.31306666666669,141.20838382027367L199.52426666666668,147.38222112438896L200.02346666666668,133.28149955922908L200.17919999999998,139.66660057414663L200.3008,143.11063588749278L201.3888,136.00907256386498L201.53386666666668,140.06799747727135L201.69813333333332,134.73056238347834L201.72799999999998,135.15248602086848L201.81119999999999,144.34554243087769L201.87946666666664,141.76950961893255L202.528,138.19454765319824L202.76053333333334,141.98735804991287L203.1424,140.3223758177324L203.19146666666666,143.54955035989934L203.60106666666664,140.014978278767L203.6544,143.4751093604348L203.9338666666667,142.78605461120605L203.94879999999998,141.76579239151695L203.99786666666665,132.1690512570468L204.0682666666667,134.48602206056768L204.0768,142.43078257820824L204.21546666666666,132.44802849942988L204.35413333333335,138.9244012399153L204.7509333333333,141.736994006417L204.8341333333333,141.0602039857344L204.86826666666664,134.56595691767606L205.17546666666667,141.4783891764554L205.23093333333333,142.61438313397494L205.30986666666666,143.34653225812045L205.76426666666666,140.4691725427454L205.85173333333333,140.78932285308838L206.02026666666669,141.59127753431147L206.12693333333334,135.08777501366356L206.16746666666666,148.98623754761437L206.38506666666666,142.09664685075933L206.94826666666665,141.19348404624245L207.18933333333334,137.51051993803543L207.264,136.1564460667697L208.16639999999998,146.17281530120155L208.43946666666668,143.96360358324918L208.80213333333333,140.07448092373934L209.39093333333335,133.02683379433373L209.6512,141.24691991372543L209.83893333333333,132.00113751671532L209.91146666666668,140.99844052574852L210.04160000000002,137.19841944087636L210.08,142.98863289572975L210.23999999999998,143.87784500555557L210.56213333333335,143.84481434388596L210.67306666666664,135.08177189393479L210.97173333333333,143.30291125991127L211.49013333333332,142.04520559310913L212.02773333333334,135.14144622195852L212.3712,142.36508776924828L212.47359999999998,140.8170795657418L212.88746666666665,140.79021406173706L212.9557333333333,135.52167788418856L212.97279999999998,141.10520423542368L213.37599999999998,144.55311688509855L213.408,143.64127154783768L213.5488,141.93133922056717L213.8176,131.0848187750036L213.99893333333333,140.54917877370661L214.11413333333334,144.98803827979347L214.28053333333335,130.13606543974444L214.71146666666664,142.10708672350103L214.77973333333335,137.6921065937389L214.85866666666666,146.42177887396377L215.02933333333334,136.1418935168873L215.35146666666668,138.8894897807728L215.75253333333333,134.34501240470192L215.81866666666667,146.1636427966031L215.88906666666665,144.65155493129384L216.0256,139.39366310293025L216.1088,136.80676024610347L216.13226666666668,136.67029151049528L216.26666666666668,141.4228217385032L216.77013333333335,138.90085944262418L216.83200000000002,144.8256839838895L217.7664,144.8503446145491L218.17173333333332,140.26033072038132L218.18666666666667,145.3580287586559L218.46613333333335,140.9049562107433L218.49386666666666,142.8369113748724L218.59199999999998,146.1606634205038L218.64746666666665,146.61501104181463L218.76266666666666,141.2327454523607L218.95253333333335,139.09515450217506L219.77386666666666,139.66287370161575L219.89546666666666,134.65973058613864L220.1216,131.87846129590815L220.26026666666667,142.12816901640457L220.35626666666667,145.44051764228126L220.67839999999998,144.9647896940058L220.704,140.16526267745277L221.26719999999997,140.40277749841863L221.33333333333331,142.74190891872752L221.36106666666666,138.4781641960144L221.86666666666665,143.0187275843187L222.0096,142.50673014467412L222.50666666666666,149.5580009438775L222.7029333333333,138.51781526478854L222.80746666666667,141.7722893411463L223.03573333333335,142.39613925326955L223.54133333333334,142.14110697399485L223.76106666666666,142.5575097474185L223.9424,142.55476281859657L223.97653333333335,137.7419679815119L224.79146666666668,137.10318743098867L224.82773333333333,138.0509723966772L225.06453333333334,145.896058364348L225.1050666666667,147.70476438782433L225.27786666666668,137.74202585220337L225.41013333333333,141.30568374286997L225.84106666666668,138.50702238082886L226.016,143.96875793283635L226.29546666666667,141.52901831540194L227.29813333333334,134.26984995061702L227.62666666666667,139.4368076324463L227.66933333333333,145.27955224297264L228.1088,142.22247509522873L228.48000000000002,139.6618493903767L228.8,140.16125416755676L228.84266666666667,141.44216983968562L228.84906666666666,130.77709137309682L228.98133333333334,143.16915087266403L229.03040000000001,143.5294075012207L229.0368,134.04764964363793L229.62133333333333,133.11153333837336L229.80266666666665,144.52342922037298L229.8581333333333,133.09825201468036L230.12693333333334,130.046620499004L230.26133333333334,135.826208894903L231.15733333333333,139.4738371588967L231.2832,140.13027212836525L231.28746666666666,142.72216150977394L231.3536,144.0430137460882L231.50506666666666,140.01685328917068L232.00426666666667,133.6976631337946L232.21120000000002,144.8846889409152L232.74026666666666,142.03932785987854L233.1712,147.8763056559996L233.6576,149.81081388213417L233.99893333333335,141.05022322047841L234.67946666666666,144.44996237754822L234.77333333333334,143.60496347600764L235.01226666666665,142.3803579157049L235.09333333333333,142.87150261618874L235.54133333333334,146.11434564807197L235.7696,142.2817462574352L236.06613333333334,145.45788656581533L236.12373333333332,137.4183820811185L236.39466666666667,136.73553492806175L236.68693333333334,145.3702336874875L236.8064,136.51971968737516L236.87466666666666,149.02576130086726L237.02613333333332,138.43521256880325L237.10506666666666,136.66462596980008L237.8368,144.69327584179965L238.02666666666667,138.63924340768295L238.07573333333332,146.69980703700674L238.20373333333333,140.97302950512278L238.7776,141.0103927525607L238.94826666666665,142.19308642907578L239.12746666666666,134.35246614976364L239.2128,138.00756744904953L239.2768,140.7413017533042L239.41546666666665,145.24319594556636L239.48373333333336,130.99141162092036L240.3072,140.41648706522855L240.6016,138.65107410604304L240.7509333333333,138.93164279244164L240.90026666666665,146.83675609935415L241.15626666666668,141.13429390300405L241.25013333333334,135.0561120293357L241.54026666666667,137.91610475019974L241.66186666666667,140.8574366569519L241.85173333333333,140.1713371710344L241.96693333333332,128.96497869491577L242.13760000000002,137.0089276487177L242.3722666666667,136.622422803532L242.3936,144.5584043372761L242.69866666666667,136.97655671293086L242.85440000000003,140.54130064357412L243.264,137.9315407926386L243.41333333333333,136.60921478271484L243.51786666666666,139.43918225981972L243.5562666666667,137.2306919964877L243.6928,135.06665221127597L244.01066666666668,143.36061798442495L244.51413333333335,133.48792431571266L244.65279999999998,142.84453873200852L245.11146666666667,133.8992036039179L245.61493333333334,139.23926024003464L245.65973333333335,144.34901853041214L245.84106666666668,142.03030196103182L245.84533333333334,142.38629930669612L246.42133333333334,149.75465423410589L247.2746666666667,148.13954785737124L247.3578666666667,139.75340661135587L247.71200000000002,137.3740569894964L247.87626666666668,140.3267064744776L247.92533333333336,136.62895061753014L248.27093333333332,144.14296800440007L248.4992,147.23538678342646L248.56746666666666,138.34946556524795L248.62506666666667,139.37542033195496L248.64426666666668,137.4972289692272L248.79573333333335,143.06688757376236L248.9557333333333,134.00641677596352L249.1328,139.35078477859497L249.30133333333333,138.86112542585892L249.51680000000002,144.51905033805153L249.55946666666665,130.26446892998436L249.7216,137.8235502243042L249.8432,142.23355154557663L249.86666666666667,144.71767605434763L250.27626666666666,139.68803587826815L250.7712,144.1080063906583L250.81386666666668,136.45241993123835L251.57546666666667,143.75426986000755L251.5904,144.66886019706726L251.9488,142.45957710526207L252.02133333333333,146.14640311761337L252.0896,138.30762312629005L252.2048,145.19085962122136L252.39679999999998,140.37620906396347L252.81279999999998,141.26829541813242L252.87893333333332,140.3143414367329L252.99626666666666,140.96599821610886L253.07093333333333,146.5732303315943L253.09226666666666,138.4400081201033L253.50826666666666,136.81530581821096L253.74506666666665,145.60257679765874L254.05440000000002,137.33839321136475L254.17173333333335,138.2242584662004L254.624,144.61105509237808L254.92693333333332,141.96590731360695L255.08906666666667,142.0675070285797L255.79093333333333,136.33727461641485L255.91466666666665,140.8243732018904L256.704,145.87795255400917L256.9258666666667,142.2703553763303L256.95573333333334,133.36152893846685L256.99626666666666,140.38332522999156L257.0837333333333,138.9282862923362L257.1136,138.12140681526878L257.1456,141.31241989135742L257.17333333333335,142.72391692074862L257.2565333333333,141.75452882593328L257.34186666666665,144.31188097867098L257.36106666666666,130.68036629936913L257.48266666666666,136.74770899252457L257.53386666666665,137.11146679791537L257.89653333333337,142.27973235737193L257.9008,144.72966300357473L258.26133333333337,144.4093178619038L258.6368,131.51867920702153L258.8330666666667,143.31454519792038L258.9312,146.1803761070425L258.9866666666667,146.87796967679805L259.0165333333333,140.59524384411898L259.4282666666667,143.83483936569908L259.9168,138.11240020665255L260.0384,139.86093228513545L260.3008,134.75086920911616L260.67626666666666,141.7600458318537L260.8896,148.22501611709595L261.1093333333333,142.10404272512955L261.82186666666666,140.84658590230075L262.1056,131.8528457988392L263.23199999999997,142.94246751611882L263.31733333333335,136.03660743886775L263.38773333333336,140.8689490665089L263.78026666666665,145.9761282530698L264.6933333333333,142.86426492170852L264.98560000000003,142.2853651046753L265.57013333333333,141.12578884038058L266.07786666666664,137.71584129333496L266.38506666666666,147.2285001711412L266.3872,144.9144730567932L266.51093333333336,137.8046072179621L266.92906666666664,149.15397092429075L266.93760000000003,141.05040454864502L267.10613333333333,143.72671183672819L267.6224,145.13728100603277L268.1365333333334,143.64264501224864L268.4096,136.8500455943021L268.48,128.49417747150767L268.65493333333336,146.73206416043368L268.89386666666667,136.5506052754142L269.02186666666665,136.78629138252953L269.1242666666667,144.92799936641347L269.2522666666666,145.56990107623014L269.3290666666667,141.4747433228926L269.3696,139.5973910851912L269.5744,141.23424044522372L269.6469333333333,140.238355289806L269.6682666666667,143.75456885858017L270.0416,140.68377828598022L270.23359999999997,145.14153450185603L270.5493333333333,149.39023863185537L270.6368,144.7175448807803L270.82453333333336,134.1891396262429L271.29813333333334,142.54487078840083L271.37493333333333,138.4749350114302L271.6245333333333,136.72041524540293L272.02773333333334,143.68264523419467L272.08746666666667,145.59229124676096L272.98986666666667,141.78513084758413L273.27146666666664,141.05227570100266L273.68533333333335,150.51349139213562L273.7685333333333,130.54673901471224L274.19306666666665,135.10033681175926L275.08906666666667,140.32049309123647L275.38986666666665,140.09655666351318L275.57759999999996,145.30260599743235" style="fill: none;" fill="none"></path></g></g></g></g></g></g><g transform="translate(30, 178)" clip-path="url(#clip_1)"><clipPath id="clip_1"><rect width="300" height="22"></rect></clipPath><g><g><line x1="0" y1="0" x2="0" y2="5" style="visibility: inherit;" fill="rgb(0, 0, 0)" stroke="rgb(204, 204, 204)" stroke-width="1px"></line><line x1="33.33333333333333" y1="0" x2="33.33333333333333" y2="5" style="visibility: inherit;" fill="rgb(0, 0, 0)" stroke="rgb(204, 204, 204)" stroke-width="1px"></line><line x1="66.66666666666666" y1="0" x2="66.66666666666666" y2="5" style="visibility: inherit;" fill="rgb(0, 0, 0)" stroke="rgb(204, 204, 204)" stroke-width="1px"></line><line x1="100" y1="0" x2="100" y2="5" style="visibility: inherit;" fill="rgb(0, 0, 0)" stroke="rgb(204, 204, 204)" stroke-width="1px"></line><line x1="133.33333333333331" y1="0" x2="133.33333333333331" y2="5" style="visibility: inherit;" fill="rgb(0, 0, 0)" stroke="rgb(204, 204, 204)" stroke-width="1px"></line><line x1="166.66666666666669" y1="0" x2="166.66666666666669" y2="5" style="visibility: inherit;" fill="rgb(0, 0, 0)" stroke="rgb(204, 204, 204)" stroke-width="1px"></line><line x1="200" y1="0" x2="200" y2="5" style="visibility: inherit;" fill="rgb(0, 0, 0)" stroke="rgb(204, 204, 204)" stroke-width="1px"></line><line x1="233.33333333333334" y1="0" x2="233.33333333333334" y2="5" style="visibility: inherit;" fill="rgb(0, 0, 0)" stroke="rgb(204, 204, 204)" stroke-width="1px"></line><line x1="266.66666666666663" y1="0" x2="266.66666666666663" y2="5" style="visibility: inherit;" fill="rgb(0, 0, 0)" stroke="rgb(204, 204, 204)" stroke-width="1px"></line><line x1="300" y1="0" x2="300" y2="5" style="visibility: inherit;" fill="rgb(0, 0, 0)" stroke="rgb(204, 204, 204)" stroke-width="1px"></line></g><g transform="translate(0, 8)"><text x="0" y="0" dx="0em" dy="0.95em" style="text-anchor: middle; visibility: hidden; font-family: &quot;Helvetica Neue&quot;, sans-serif; font-size: 12px; font-weight: 200;" fill="rgb(50, 49, 63)" stroke="none" stroke-width="1px">-500k</text><text x="33.33333333333333" y="0" dx="0em" dy="0.95em" style="text-anchor: middle; visibility: inherit; font-family: &quot;Helvetica Neue&quot;, sans-serif; font-size: 12px; font-weight: 200;" fill="rgb(50, 49, 63)" stroke="none" stroke-width="1px">0</text><text x="66.66666666666666" y="0" dx="0em" dy="0.95em" style="text-anchor: middle; visibility: inherit; font-family: &quot;Helvetica Neue&quot;, sans-serif; font-size: 12px; font-weight: 200;" fill="rgb(50, 49, 63)" stroke="none" stroke-width="1px">500k</text><text x="100" y="0" dx="0em" dy="0.95em" style="text-anchor: middle; visibility: inherit; font-family: &quot;Helvetica Neue&quot;, sans-serif; font-size: 12px; font-weight: 200;" fill="rgb(50, 49, 63)" stroke="none" stroke-width="1px">1M</text><text x="133.33333333333331" y="0" dx="0em" dy="0.95em" style="text-anchor: middle; visibility: inherit; font-family: &quot;Helvetica Neue&quot;, sans-serif; font-size: 12px; font-weight: 200;" fill="rgb(50, 49, 63)" stroke="none" stroke-width="1px">1.5M</text><text x="166.66666666666669" y="0" dx="0em" dy="0.95em" style="text-anchor: middle; visibility: inherit; font-family: &quot;Helvetica Neue&quot;, sans-serif; font-size: 12px; font-weight: 200;" fill="rgb(50, 49, 63)" stroke="none" stroke-width="1px">2M</text><text x="200" y="0" dx="0em" dy="0.95em" style="text-anchor: middle; visibility: inherit; font-family: &quot;Helvetica Neue&quot;, sans-serif; font-size: 12px; font-weight: 200;" fill="rgb(50, 49, 63)" stroke="none" stroke-width="1px">2.5M</text><text x="233.33333333333334" y="0" dx="0em" dy="0.95em" style="text-anchor: middle; visibility: inherit; font-family: &quot;Helvetica Neue&quot;, sans-serif; font-size: 12px; font-weight: 200;" fill="rgb(50, 49, 63)" stroke="none" stroke-width="1px">3M</text><text x="266.66666666666663" y="0" dx="0em" dy="0.95em" style="text-anchor: middle; visibility: inherit; font-family: &quot;Helvetica Neue&quot;, sans-serif; font-size: 12px; font-weight: 200;" fill="rgb(50, 49, 63)" stroke="none" stroke-width="1px">3.5M</text><text x="300" y="0" dx="0em" dy="0.95em" style="text-anchor: middle; visibility: hidden; font-family: &quot;Helvetica Neue&quot;, sans-serif; font-size: 12px; font-weight: 200;" fill="rgb(50, 49, 63)" stroke="none" stroke-width="1px">4M</text></g><line x1="0" y1="0" x2="300" y2="0" fill="rgb(0, 0, 0)" stroke="rgb(204, 204, 204)" stroke-width="1px"></line></g></g></g></g></svg>