<svg viewBox="0 0 330 200" xmlns="http://www.w3.org/2000/svg"><g><g><g><g><g><line x1="50" y1="178" x2="45" y2="178" style="visibility: inherit;" fill="rgb(0, 0, 0)" stroke="rgb(204, 204, 204)" stroke-width="1px"></line><line x1="50" y1="155.75" x2="45" y2="155.75" style="visibility: inherit;" fill="rgb(0, 0, 0)" stroke="rgb(204, 204, 204)" stroke-width="1px"></line><line x1="50" y1="133.5" x2="45" y2="133.5" style="visibility: inherit;" fill="rgb(0, 0, 0)" stroke="rgb(204, 204, 204)" stroke-width="1px"></line><line x1="50" y1="111.25" x2="45" y2="111.25" style="visibility: inherit;" fill="rgb(0, 0, 0)" stroke="rgb(204, 204, 204)" stroke-width="1px"></line><line x1="50" y1="89" x2="45" y2="89" style="visibility: inherit;" fill="rgb(0, 0, 0)" stroke="rgb(204, 204, 204)" stroke-width="1px"></line><line x1="50" y1="66.75" x2="45" y2="66.75" style="visibility: inherit;" fill="rgb(0, 0, 0)" stroke="rgb(204, 204, 204)" stroke-width="1px"></line><line x1="50" y1="44.5" x2="45" y2="44.5" style="visibility: inherit;" fill="rgb(0, 0, 0)" stroke="rgb(204, 204, 204)" stroke-width="1px"></line><line x1="50" y1="22.25" x2="45" y2="22.25" style="visibility: inherit;" fill="rgb(0, 0, 0)" stroke="rgb(204, 204, 204)" stroke-width="1px"></line><line x1="50" y1="0" x2="45" y2="0" style="visibility: inherit;" fill="rgb(0, 0, 0)" stroke="rgb(204, 204, 204)" stroke-width="1px"></line></g><g transform="translate(40, 0)"><text x="0" y="178" dx="0em" dy="0.3em" style="text-anchor: end; visibility: hidden; font-family: &quot;Helvetica Neue&quot;, sans-serif; font-size: 12px; font-weight: 200;" fill="rgb(50, 49, 63)" stroke="none" stroke-width="1px">-1.5</text><text x="0" y="155.75" dx="0em" dy="0.3em" style="text-anchor: end; visibility: inherit; font-family: &quot;Helvetica Neue&quot;, sans-serif; font-size: 12px; font-weight: 200;" fill="rgb(50, 49, 63)" stroke="none" stroke-width="1px">-1</text><text x="0" y="133.5" dx="0em" dy="0.3em" style="text-anchor: end; visibility: hidden; font-family: &quot;Helvetica Neue&quot;, sans-serif; font-size: 12px; font-weight: 200;" fill="rgb(50, 49, 63)" stroke="none" stroke-width="1px">-0.5</text><text x="0" y="111.25" dx="0em" dy="0.3em" style="text-anchor: end; visibility: inherit; font-family: &quot;Helvetica Neue&quot;, sans-serif; font-size: 12px; font-weight: 200;" fill="rgb(50, 49, 63)" stroke="none" stroke-width="1px">0</text><text x="0" y="89" dx="0em" dy="0.3em" style="text-anchor: end; visibility: hidden; font-family: &quot;Helvetica Neue&quot;, sans-serif; font-size: 12px; font-weight: 200;" fill="rgb(50, 49, 63)" stroke="none" stroke-width="1px">0.5</text><text x="0" y="66.75" dx="0em" dy="0.3em" style="text-anchor: end; visibility: inherit; font-family: &quot;Helvetica Neue&quot;, sans-serif; font-size: 12px; font-weight: 200;" fill="rgb(50, 49, 63)" stroke="none" stroke-width="1px">1</text><text x="0" y="44.5" dx="0em" dy="0.3em" style="text-anchor: end; visibility: hidden; font-family: &quot;Helvetica Neue&quot;, sans-serif; font-size: 12px; font-weight: 200;" fill="rgb(50, 49, 63)" stroke="none" stroke-width="1px">1.5</text><text x="0" y="22.25" dx="0em" dy="0.3em" style="text-anchor: end; visibility: inherit; font-family: &quot;Helvetica Neue&quot;, sans-serif; font-size: 12px; font-weight: 200;" fill="rgb(50, 49, 63)" stroke="none" stroke-width="1px">2</text><text x="0" y="0" dx="0em" dy="0.3em" style="text-anchor: end; visibility: hidden; font-family: &quot;Helvetica Neue&quot;, sans-serif; font-size: 12px; font-weight: 200;" fill="rgb(50, 49, 63)" stroke="none" stroke-width="1px">2.5</text></g><line x1="50" y1="0" x2="50" y2="178" fill="rgb(0, 0, 0)" stroke="rgb(204, 204, 204)" stroke-width="1px"></line></g></g><g transform="translate(50, 0)" clip-path="url(#clip_0)"><clipPath id="clip_0"><rect width="280" height="178"></rect></clipPath><g><g><g><line x1="0" y1="0" x2="0" y2="178" fill="rgb(0, 0, 0)" stroke="rgb(60, 60, 60)" stroke-width="1px" opacity="0.25"></line><line x1="31.11111111111111" y1="0" x2="31.11111111111111" y2="178" fill="rgb(0, 0, 0)" stroke="rgb(60, 60, 60)" stroke-width="1px" opacity="0.25"></line><line x1="62.22222222222222" y1="0" x2="62.22222222222222" y2="178" fill="rgb(0, 0, 0)" stroke="rgb(60, 60, 60)" stroke-width="1px" opacity="0.25"></line><line x1="93.33333333333333" y1="0" x2="93.33333333333333" y2="178" fill="rgb(0, 0, 0)" stroke="rgb(60, 60, 60)" stroke-width="1px" opacity="0.25"></line><line x1="124.44444444444444" y1="0" x2="124.44444444444444" y2="178" fill="rgb(0, 0, 0)" stroke="rgb(60, 60, 60)" stroke-width="1px" opacity="0.25"></line><line x1="155.55555555555557" y1="0" x2="155.55555555555557" y2="178" fill="rgb(0, 0, 0)" stroke="rgb(60, 60, 60)" stroke-width="1px" opacity="0.25"></line><line x1="186.66666666666666" y1="0" x2="186.66666666666666" y2="178" fill="rgb(0, 0, 0)" stroke="rgb(60, 60, 60)" stroke-width="1px" opacity="0.25"></line><line x1="217.77777777777777" y1="0" x2="217.77777777777777" y2="178" fill="rgb(0, 0, 0)" stroke="rgb(60, 60, 60)" stroke-width="1px" opacity="0.25"></line><line x1="248.88888888888889" y1="0" x2="248.88888888888889" y2="178" fill="rgb(0, 0, 0)" stroke="rgb(60, 60, 60)" stroke-width="1px" opacity="0.25"></line><line x1="280" y1="0" x2="280" y2="178" fill="rgb(0, 0, 0)" stroke="rgb(60, 60, 60)" stroke-width="1px" opacity="0.25"></line></g><g><line x1="0" y1="178" x2="280" y2="178" fill="rgb(0, 0, 0)" stroke="rgb(60, 60, 60)" stroke-width="1px" opacity="0.25"></line><line x1="0" y1="155.75" x2="280" y2="155.75" fill="rgb(0, 0, 0)" stroke="rgb(60, 60, 60)" stroke-width="1px" opacity="0.25"></line><line x1="0" y1="133.5" x2="280" y2="133.5" fill="rgb(0, 0, 0)" stroke="rgb(60, 60, 60)" stroke-width="1px" opacity="0.25"></line><line x1="0" y1="111.25" x2="280" y2="111.25" fill="rgb(0, 0, 0)" stroke="rgb(60, 60, 60)" stroke-width="1px" opacity="0.25"></line><line x1="0" y1="89" x2="280" y2="89" fill="rgb(0, 0, 0)" stroke="rgb(60, 60, 60)" stroke-width="1px" opacity="0.25"></line><line x1="0" y1="66.75" x2="280" y2="66.75" fill="rgb(0, 0, 0)" stroke="rgb(60, 60, 60)" stroke-width="1px" opacity="0.25"></line><line x1="0" y1="44.5" x2="280" y2="44.5" fill="rgb(0, 0, 0)" stroke="rgb(60, 60, 60)" stroke-width="1px" opacity="0.25"></line><line x1="0" y1="22.25" x2="280" y2="22.25" fill="rgb(0, 0, 0)" stroke="rgb(60, 60, 60)" stroke-width="1px" opacity="0.25"></line><line x1="0" y1="0" x2="280" y2="0" fill="rgb(0, 0, 0)" stroke="rgb(60, 60, 60)" stroke-width="1px" opacity="0.25"></line></g></g></g><g><g><line x1="0" y1="111.25" x2="280" y2="111.25" fill="rgb(0, 0, 0)" stroke="rgb(153, 153, 153)" stroke-width="1.5px"></line></g></g><g><g><line x1="31.11111111111111" y1="0" x2="31.11111111111111" y2="178" fill="rgb(0, 0, 0)" stroke="rgb(153, 153, 153)" stroke-width="1.5px"></line></g></g><g><g><g><g><g><path stroke="rgb(0, 153, 136)" stroke-width="2px" d="M31.196728888888888,89L31.44561777777778,89L31.569066666666664,89L31.579022222222225,89L31.656675555555555,89L32.05688888888889,89L32.18033777777778,89L32.26595555555556,89L32.279893333333334,89L32.37546666666667,89L32.40135111111111,89L32.534755555555556,89L32.72192,89L33.13208888888889,89L33.767253333333336,89L33.775217777777776,89L33.87079111111111,89L33.88472888888889,89L33.972337777777774,89L34.48007111111111,89L34.565688888888886,89L34.57166222222222,89L34.85041777777778,89L34.93006222222222,89L35.167004444444444,89L35.49155555555556,89L35.70659555555556,89L35.86986666666667,89L36.061013333333335,89L36.063004444444445,89L36.08689777777778,89L36.45923555555555,89L36.56874666666667,89L37.162097777777774,89L37.54439111111111,89L37.57624888888889,89L37.69372444444444,89L38.316942222222224,89L38.320924444444444,89L38.42048,89L38.56184888888889,89L38.7072,89L38.721137777777784,89L38.989937777777776,89L39.14922666666667,89L39.708728888888885,89L39.87399111111112,89L40.05717333333334,89L40.09102222222222,89L40.42353777777778,89L40.64654222222222,89L41.010915555555556,89L41.279715555555555,89L41.33546666666666,89L41.75559111111111,89L41.78346666666667,89L42.16177777777778,89L42.508231111111115,89L42.67747555555555,89L42.788977777777774,89L42.87459555555556,89L43.039857777777776,89L43.457991111111106,89L43.49582222222222,89L43.635200000000005,89L44.202666666666666,89L44.45155555555556,89L44.47544888888889,89L44.76017777777778,89L44.983182222222226,89L45.35950222222222,89L45.811484444444446,89L45.966791111111114,89L45.972764444444444,89L46.06833777777778,89L46.61987555555556,89L46.639786666666666,89L46.70947555555556,89L47.024071111111105,89L47.17340444444445,89L47.40039111111111,89L47.48202666666666,89L47.76476444444444,89L47.79264,89L48.033564444444444,89L48.05347555555556,89L48.23864888888889,89L48.79018666666666,89L48.90368,89L49.01916444444444,89L49.55079111111111,89L49.96494222222223,89L50.13617777777778,89L50.16206222222222,89L50.42289777777778,89L50.71160888888889,89L50.839040000000004,89L51.57376,89L51.58769777777778,89L51.818666666666665,89L51.97795555555555,89L52.06357333333333,89L52.23281777777778,89L52.57728,89L52.82019555555556,89L52.82616888888889,89L52.947626666666665,89L52.96355555555555,89L53.055146666666666,89L53.21841777777778,89L53.849599999999995,89L53.955128888888886,89L54.074595555555554,89L54.142293333333335,89L54.37923555555555,89L54.52657777777778,89L54.94471111111111,89L54.95466666666667,89L55.33297777777778,89L55.58385777777778,89L56.34247111111111,89L56.75264,89L56.87608888888889,89L57.065244444444446,89L57.11900444444445,89L57.79797333333334,89L58.084693333333334,89L58.18624,89L58.232035555555555,89L58.610346666666665,89L59.14794666666666,89L59.428693333333335,89L59.574044444444446,89L59.661653333333334,89L59.878684444444445,89L60.258986666666665,89L60.31872,89L60.356551111111116,89L60.53973333333334,89L60.599466666666665,89L60.72689777777778,89L60.76472888888889,89L61.92156444444445,89L61.989262222222216,89L62.45319111111111,89L62.50097777777778,89L63.20184888888889,89L63.46666666666666,89L63.61002666666667,89L64.58168888888889,89L64.67726222222223,89L65.09340444444445,89L65.1551288888889,89L65.54339555555555,89L65.59317333333333,89L65.63697777777777,89L66.04316444444444,89L66.07104,89L66.12878222222223,89L66.1447111111111,89L67.85109333333334,89L69.17518222222222,89L69.2807111111111,89L69.48380444444444,89L70.00149333333334,89L70.21852444444444,89L70.2464,89L70.39971555555556,89L70.62869333333333,89L70.9253688888889,89L71.04085333333333,89L71.05877333333333,89L71.21009777777778,89L71.42115555555556,89L71.43708444444444,89L71.57845333333333,89L71.81141333333333,89L72.00853333333333,89L72.01052444444444,89L72.08618666666666,89L72.4864,89L72.49237333333333,89L72.58993777777778,89L72.63772444444444,89L73.08572444444444,89L73.21315555555556,89L73.34257777777778,89L73.38837333333333,89L73.5616,89L73.70496,89L73.96778666666667,89L74.61489777777777,89L75.40536888888889,89L75.49895111111111,89L75.57461333333333,89L75.63036444444444,89L75.85735111111111,89L76.59008,89L77.18343111111112,89L77.20334222222222,89L77.29095111111111,89L77.34272000000001,89L77.47811555555555,89L77.62744888888888,89L77.75886222222223,89L77.98385777777779,89L78.24270222222222,89L78.26460444444444,89L78.30442666666667,89L78.77632,89L79.05706666666667,89L79.19246222222222,89L79.46126222222222,89L79.46524444444445,89L79.54090666666666,89L79.58670222222223,89L80.13624888888889,89L80.33137777777777,89L80.34730666666667,89L80.69376,89L80.75946666666667,89L80.90680888888889,89L81.39463111111111,89L81.5519288888889,89L81.66940444444445,89L82.25678222222221,89L82.50766222222222,89L82.57735111111111,89L82.72469333333333,89L83.01340444444445,89L83.19061333333333,89L83.48529777777779,89L83.81781333333333,89L84.46890666666665,89L84.47089777777778,89L84.53262222222223,89L85.15584,89L85.17973333333333,89L85.18769777777777,89L85.1896888888889,89L85.41866666666667,89L85.87861333333333,89L86.07374222222222,89L86.1075911111111,89L86.14343111111111,89L86.51576888888889,89L86.69696,89L86.76465777777778,89L86.80049777777778,89L87.50336,89L87.73632,89L87.76220444444445,89L87.94538666666668,89L88.0031288888889,89L88.79559111111112,89L88.84736,89L88.97877333333334,89L89.25553777777777,89L89.37898666666666,89L89.79313777777779,89L89.82499555555556,89L89.97233777777778,89L90.07189333333334,89L90.50595555555556,89L90.85639111111111,89L90.90816000000001,89L91.02961777777777,89L91.1928888888889,89L91.33027555555556,89L91.4975288888889,89L91.76035555555555,89L91.78225777777779,89L92.06499555555556,89L92.25216,89L92.28003555555556,89L93.64593777777777,89L93.71960888888889,89L94.22336,89L94.44636444444446,89L94.57578666666666,89L94.58972444444444,89L94.70122666666667,89L94.71914666666667,89L94.83662222222223,89L95.17511111111111,89L95.24081777777778,89L95.69479111111112,89L95.90784,89L96.13681777777778,89L96.23438222222222,89L96.34588444444444,89L96.60871111111112,89L96.62464,89L96.88746666666667,89L97.12241777777777,89L97.17617777777778,89L97.18016,89L97.35936000000001,89L97.49873777777778,89L97.56643555555556,89L97.62218666666666,89L98.26929777777778,89L98.28721777777777,89L98.3111111111111,89L98.34894222222222,89L98.38279111111112,89L98.49031111111111,89L98.51420444444445,89L98.56398222222222,89L98.63765333333333,89L98.84472888888888,89L98.88256000000001,89L99.09162666666666,89L99.53166222222222,89L99.57347555555556,89L99.68298666666666,89L99.85621333333334,89L100.00355555555555,89L100.36992000000001,89L101.4650311111111,89L101.50684444444444,89L101.52277333333333,89L101.55264,89L101.76369777777776,89L101.94289777777777,89L102.33713777777778,89L102.35107555555555,89L102.49244444444444,89L102.69952,89L102.73336888888889,89L102.86677333333333,89L103.28291555555556,89L103.34065777777778,89L104.04551111111111,89L104.10524444444444,89L104.32028444444444,89L104.42382222222223,89L104.48554666666666,89L104.59904,89L105.18641777777778,89L105.69016888888889,89L105.75786666666667,89L106.30542222222222,89L106.52842666666666,89L107.15761777777777,89L107.64942222222221,89L107.68127999999999,89L107.70318222222222,89L108.16910222222222,89L108.20892444444445,89L108.44785777777777,89L108.72860444444444,89L108.77639111111111,89L109.23832888888889,89L109.35580444444444,89L110.16419555555555,89L110.21994666666666,89L110.32149333333334,89L110.51463111111111,89L110.57635555555557,89L110.5863111111111,89L110.79736888888888,89L111.34691555555555,89L111.75310222222222,89L112.04579555555556,89L112.07765333333333,89L112.08561777777777,89L112.15132444444444,89L112.19114666666667,89L112.33649777777778,89L112.82830222222222,89L113.23448888888889,89L113.28824888888889,89L113.42762666666667,89L113.82186666666666,89L113.85372444444445,89L114.76565333333333,89L115.00657777777778,89L115.2256,89L115.63576888888889,89L115.67160888888888,89L116.08974222222221,89L116.6930488888889,89L117.28440888888889,89L117.76227555555555,89L117.83196444444445,89L117.93948444444445,89L118.00319999999999,89L118.14656,89L118.20032,89L118.20828444444444,89L118.33372444444446,89L118.6821688888889,89L118.70805333333334,89L118.86734222222223,89L118.87530666666667,89L118.94698666666667,89L119.12021333333333,89L119.13415111111111,89L119.22176,89L119.32728888888889,89L119.88679111111111,89L120.31886222222222,89L120.34673777777778,89L120.64142222222222,89L120.92017777777778,89L121.33034666666667,89L121.34826666666666,89L121.45379555555556,89L121.72259555555554,89L122.02325333333333,89L122.76992,89L122.88341333333334,89L123.04071111111111,89L123.11239111111111,89L123.33738666666666,89L123.36924444444445,89L123.52654222222223,89L123.69777777777777,89L125.17518222222223,89L125.29464888888889,89L125.33447111111111,89L125.66897777777777,89L125.78844444444445,89L125.86012444444444,89L125.96565333333334,89L125.99950222222223,89L126.02737777777777,89L126.09905777777779,89L126.1767111111111,89L126.45148444444445,89L126.58090666666666,89L126.62670222222222,89L126.83776,89L127.04682666666668,89L127.13841777777778,89L127.72579555555555,89L128.36693333333332,89L128.64170666666666,89L129.2191288888889,89L129.32664888888888,89L129.37642666666667,89L129.62730666666667,89L129.78858666666667,89L129.91004444444445,89L129.94787555555556,89L130.68060444444444,89L130.78016,89L130.96533333333332,89L130.9971911111111,89L131.05692444444443,89L131.20227555555556,89L131.92106666666666,89L131.92504888888888,89L132.29937777777778,89L132.61795555555554,89L132.92657777777777,89L133.11175111111112,89L133.22126222222224,89L133.3407288888889,89L134.15310222222223,89L134.24867555555556,89L134.26460444444444,89L134.5592888888889,89L134.65287111111112,89L134.78428444444444,89L135.12277333333333,89L135.23228444444445,89L135.35374222222222,89L135.66634666666667,89L135.70218666666668,89L136.00881777777778,89L136.2477511111111,89L136.45482666666666,89L136.52053333333333,89L136.64796444444445,89L136.82517333333334,89L136.85504,89L137.5738311111111,89L138.04771555555556,89L138.06165333333334,89L138.06961777777778,89L138.07758222222222,89L138.3583288888889,89L138.44593777777777,89L138.77646222222222,89L138.80632888888888,89L138.84814222222224,89L138.87800888888887,89L139.11296,89L139.87754666666666,89L139.9213511111111,89L140.00896,89L140.0647111111111,89L140.2399288888889,89L140.49877333333333,89L140.58837333333332,89L141.0084977777778,89L141.21955555555556,89L141.22552888888887,89L141.2772977777778,89L141.33902222222224,89L141.6954311111111,89L141.70538666666667,89L141.72131555555555,89L142.04387555555553,89L142.14940444444446,89L142.54762666666667,89L142.79651555555554,89L143.2206222222222,89L143.2863288888889,89L143.62481777777776,89L143.65269333333333,89L143.82592,89L144.1823288888889,89L144.24803555555556,89L144.60444444444445,89L145.20177777777778,89L145.21372444444444,89L145.57013333333333,89L146.11968,89L147.18492444444445,89L147.2864711111111,89L147.47363555555557,89L147.70460444444444,89L147.81411555555556,89L147.8738488888889,89L148.02915555555555,89L148.08291555555556,89L148.11676444444444,89L148.6483911111111,89L149.1143111111111,89L149.20789333333332,89L149.44881777777778,89L149.86296888888887,89L149.92270222222223,89L150.05610666666666,89L150.75100444444445,89L150.93617777777777,89L150.94812444444446,89L150.99192888888888,89L151.1711288888889,89L151.52554666666668,89L151.76647111111112,89L151.91580444444443,89L152.81379555555554,89L152.9790577777778,89L153.12042666666667,89L153.31356444444444,89L153.44298666666666,89L153.63413333333335,89L153.92483555555555,89L154.83875555555557,89L154.99804444444445,89L155.58940444444443,89L155.65112888888888,89L155.66705777777779,89L156.3022222222222,89L156.60088888888887,89L156.99114666666668,89L157.26592000000002,89L157.40529777777778,89L157.4072888888889,89L157.57454222222222,89L157.8891377777778,89L158.10816,89L158.27541333333332,89L158.52032,89L158.73934222222223,89L158.88867555555558,89L158.99221333333332,89L159.5616711111111,89L159.58158222222224,89L159.91210666666666,89L160.31431111111112,89L160.53532444444443,89L160.64284444444445,89L161.02314666666666,89L161.11672888888887,89L161.28199111111113,89L161.43132444444444,89L161.4930488888889,89L161.58464,89L161.73198222222223,89L161.8156088888889,89L161.94702222222222,89L162.3412622222222,89L162.624,89L163.11978666666667,89L163.81468444444445,89L164.09344000000002,89L164.41400888888887,89L164.46976,89L164.55936,89L165.39363555555553,89L165.46133333333333,89L165.53898666666666,89L167.03232,89L167.03431111111112,89L167.06816,89L167.26129777777777,89L167.36284444444442,89L167.52810666666667,89L167.68341333333333,89L168.35840000000002,89L168.47587555555555,89L168.8402488888889,89L168.84224,89L168.86812444444445,89L169.40572444444444,89L169.4475377777778,89L169.81788444444442,89L169.93137777777778,89L170.08867555555554,89L170.32163555555556,89L171.40280888888887,89L171.41077333333334,89L171.4724977777778,89L171.54417777777778,89L171.64572444444445,89L171.7970488888889,89L172.31274666666667,89L172.47402666666667,89L173.1072,89L173.33418666666665,89L173.58506666666665,89L173.63683555555556,89L173.86780444444443,89L174.17443555555556,89L174.28593777777778,89L174.38748444444442,89L174.4312888888889,89L174.49699555555554,89L174.54677333333333,89L174.86535111111112,89L175.02065777777776,89L175.06446222222223,89L175.06844444444445,89L175.27153777777778,89L175.27751111111112,89L175.58414222222223,89L175.91267555555555,89L176.2113422222222,89L176.48213333333334,89L176.8206222222222,89L177.09738666666667,89L178.03519999999997,89L178.04515555555554,89L178.13873777777778,89L178.25820444444446,89L178.304,89L178.47722666666667,89L178.82766222222222,89L178.8416,89L180.17763555555555,89L180.24931555555554,89L180.72519111111112,89L180.78691555555557,89L181.38026666666664,89L181.41610666666665,89L181.57539555555556,89L181.69884444444443,89L181.83424,89L182.29418666666666,89L182.2981688888889,89L182.5490488888889,89L182.63466666666667,89L182.8716088888889,89L183.29571555555555,89L183.39726222222222,89L183.68398222222223,89L183.77756444444444,89L183.84128,89L184.01052444444446,89L184.24149333333332,89L184.2554311111111,89L184.27733333333333,89L184.82289777777777,89L185.07377777777776,89L185.3445688888889,89L185.48394666666667,89L185.70894222222222,89L186.02552888888889,89L186.2226488888889,89L186.6885688888889,89L186.83391999999998,89L186.94741333333334,89L187.96288,89L188.09827555555557,89L188.2515911111111,89L188.27946666666665,89L188.35711999999998,89L188.42083555555553,89L189.02613333333332,89L189.24316444444446,89L189.59957333333335,89L189.64536888888887,89L190.0276622222222,89L190.07744,89L190.33827555555555,89L190.3522133333333,89L190.39800888888888,89L190.46371555555555,89L190.47168,89L190.6011022222222,89L190.73052444444446,89L191.1008711111111,89L191.17852444444443,89L191.21038222222222,89L191.49710222222222,89L191.5488711111111,89L191.62254222222222,89L192.04664888888888,89L192.12828444444446,89L192.28558222222222,89L192.38513777777777,89L192.42296888888887,89L192.62606222222223,89L193.15171555555554,89L193.3767111111111,89L193.4464,89L194.28864,89L194.54350222222223,89L194.88199111111112,89L195.43153777777778,89L195.67445333333333,89L195.84967111111112,89L195.9173688888889,89L196.03882666666667,89L196.07466666666667,89L196.224,89L196.52465777777778,89L196.62819555555555,89L196.9069511111111,89L197.3907911111111,89L197.89255111111112,89L198.21312,89L198.3086933333333,89L198.6949688888889,89L198.75868444444444,89L198.77461333333332,89L199.1509333333333,89L199.1808,89L199.31221333333332,89L199.56309333333334,89L199.73233777777776,89L199.83985777777778,89L199.99516444444447,89L200.39736888888888,89L200.46108444444445,89L200.53475555555556,89L200.69404444444444,89L200.99470222222223,89L201.3690311111111,89L201.43075555555555,89L201.49646222222222,89L201.62389333333334,89L201.70154666666667,89L201.7234488888889,89L201.8488888888889,89L202.31879111111112,89L202.37653333333336,89L203.24864,89L203.62695111111108,89L203.6408888888889,89L203.90172444444445,89L203.9276088888889,89L204.01919999999998,89L204.07096888888887,89L204.1784888888889,89L204.35569777777778,89L205.12227555555555,89L205.23576888888888,89L205.44682666666665,89L205.5762488888889,89L205.6658488888889,89L205.96650666666665,89L205.9904,89L206.51605333333333,89L206.57777777777778,89L206.60366222222223,89L207.07555555555555,89L207.20896000000002,89L207.67288888888888,89L207.8560711111111,89L207.95363555555556,89L208.16668444444446,89L208.63857777777778,89L208.8436622222222,89L209.01290666666665,89L209.04476444444447,89L209.8053688888889,89L209.83921777777778,89L210.06023111111114,89L210.09806222222224,89L210.25934222222224,89L210.38279111111112,89L210.78499555555555,89L210.94826666666665,89L211.2091022222222,89L212.14492444444446,89L212.45155555555556,89L212.49137777777779,89L212.90154666666666,89L213.24800000000002,89L213.54666666666668,89L213.58648888888888,89L213.59246222222222,89L213.71591111111113,89L213.76170666666667,89L213.76768,89L214.31324444444445,89L214.48248888888887,89L214.53425777777778,89L214.78513777777778,89L214.91057777777777,89L215.74684444444443,89L215.86432,89L215.8683022222222,89L215.93002666666666,89L216.07139555555557,89L216.53731555555555,89L216.73045333333334,89L217.2242488888889,89L217.62645333333333,89L218.08042666666668,89L218.39900444444447,89L219.0341688888889,89L219.1217777777778,89L219.34478222222222,89L219.42044444444446,89L219.8385777777778,89L220.05162666666666,89L220.3283911111111,89L220.38215111111109,89L220.63502222222223,89L220.90780444444445,89L221.01930666666667,89L221.0830222222222,89L221.2243911111111,89L221.2980622222222,89L221.98101333333335,89L222.15822222222224,89L222.20401777777775,89L222.32348444444443,89L222.85909333333333,89L223.01838222222221,89L223.18563555555556,89L223.26528,89L223.32501333333335,89L223.45443555555553,89L223.51815111111114,89L224.28672,89L224.56149333333335,89L224.7008711111111,89L224.84024888888888,89L225.07918222222224,89L225.16679111111114,89L225.4375822222222,89L225.55107555555557,89L225.72828444444445,89L225.83580444444442,89L225.99509333333333,89L226.21411555555557,89L226.23402666666667,89L226.51875555555557,89L226.66410666666667,89L227.0464,89L227.18577777777776,89L227.28334222222222,89L227.31918222222222,89L227.44661333333335,89L227.74328888888888,89L228.21319111111112,89L228.34261333333333,89L228.7707022222222,89L229.24060444444444,89L229.2824177777778,89L229.4516622222222,89L229.45564444444446,89L229.99324444444446,89L230.7896888888889,89L230.86734222222225,89L231.19786666666667,89L231.35118222222223,89L231.39697777777778,89L231.71953777777776,89L231.93258666666665,89L231.99630222222223,89L232.05006222222224,89L232.0679822222222,89L232.20935111111112,89L232.35868444444444,89L232.52394666666666,89L232.68124444444445,89L232.88234666666668,89L232.92216888888888,89L233.07349333333335,89L233.18698666666668,89L233.20888888888888,89L233.59118222222222,89L234.05312,89L234.09294222222223,89L234.8037688888889,89L234.81770666666665,89L235.15221333333332,89L235.21991111111112,89L235.28362666666666,89L235.39114666666669,89L235.57034666666667,89L235.95861333333332,89L236.02033777777777,89L236.1298488888889,89L236.19953777777778,89L236.21944888888888,89L236.60771555555556,89L236.82872888888886,89L237.11744000000002,89L237.22695111111113,89L237.64906666666667,89L237.93180444444445,89L238.0831288888889,89L238.73820444444445,89L238.85368888888888,89L239.5904,89L239.79747555555556,89L239.8253511111111,89L239.8631822222222,89L239.94481777777779,89L239.97269333333332,89L240.00256000000002,89L240.02844444444446,89L240.1060977777778,89L240.18574222222222,89L240.20366222222222,89L240.31715555555556,89L240.36494222222223,89L240.70343111111112,89L240.7074133333333,89L241.04391111111113,89L241.39434666666668,89L241.5775288888889,89L241.66912,89L241.72088888888888,89L241.74876444444442,89L242.1330488888889,89L242.58901333333333,89L242.7025066666667,89L242.94741333333332,89L243.2978488888889,89L243.49696,89L243.70204444444445,89L244.36707555555557,89L244.63189333333332,89L245.6832,89L245.76284444444443,89L245.82855111111112,89L246.19491555555555,89L247.04711111111112,89L247.31989333333334,89L247.86545777777778,89L248.3393422222222,89L248.6260622222222,89L248.62805333333336,89L248.7435377777778,89L249.13379555555554,89L249.14176,89L249.2990577777778,89L249.78090666666668,89L250.26076444444445,89L250.51562666666666,89L250.58133333333333,89L250.74460444444443,89L250.9676088888889,89L251.08707555555554,89L251.1826488888889,89L251.30211555555553,89L251.37379555555555,89L251.41162666666665,89L251.60277333333335,89L251.6704711111111,89L251.69038222222224,89L252.03882666666667,89L252.21802666666665,89L252.51271111111112,89L252.59434666666667,89L252.76956444444446,89L253.2115911111111,89L253.2832711111111,89L253.5162311111111,89L253.8925511111111,89L253.94830222222222,89L254.79054222222223,89L255.05336888888888,89L255.43964444444444,89L255.5172977777778,89L255.91352888888886,89L256.7497955555555,89L257.0305422222222,89L257.20576,89" style="fill: none;" fill="none"></path></g></g></g></g><g opacity="0.2"><g><g><g><path stroke="rgb(0, 153, 136)" stroke-width="2px" d="M31.196728888888888,89L31.44561777777778,89L31.569066666666664,89L31.579022222222225,89L31.656675555555555,89L32.05688888888889,89L32.18033777777778,89L32.26595555555556,89L32.279893333333334,89L32.37546666666667,89L32.40135111111111,89L32.534755555555556,89L32.72192,89L33.13208888888889,89L33.767253333333336,89L33.775217777777776,89L33.87079111111111,89L33.88472888888889,89L33.972337777777774,89L34.48007111111111,89L34.565688888888886,89L34.57166222222222,89L34.85041777777778,89L34.93006222222222,89L35.167004444444444,89L35.49155555555556,89L35.70659555555556,89L35.86986666666667,89L36.061013333333335,89L36.063004444444445,89L36.08689777777778,89L36.45923555555555,89L36.56874666666667,89L37.162097777777774,89L37.54439111111111,89L37.57624888888889,89L37.69372444444444,89L38.316942222222224,89L38.320924444444444,89L38.42048,89L38.56184888888889,89L38.7072,89L38.721137777777784,89L38.989937777777776,89L39.14922666666667,89L39.708728888888885,89L39.87399111111112,89L40.05717333333334,89L40.09102222222222,89L40.42353777777778,89L40.64654222222222,89L41.010915555555556,89L41.279715555555555,89L41.33546666666666,89L41.75559111111111,89L41.78346666666667,89L42.16177777777778,89L42.508231111111115,89L42.67747555555555,89L42.788977777777774,89L42.87459555555556,89L43.039857777777776,89L43.457991111111106,89L43.49582222222222,89L43.635200000000005,89L44.202666666666666,89L44.45155555555556,89L44.47544888888889,89L44.76017777777778,89L44.983182222222226,89L45.35950222222222,89L45.811484444444446,89L45.966791111111114,89L45.972764444444444,89L46.06833777777778,89L46.61987555555556,89L46.639786666666666,89L46.70947555555556,89L47.024071111111105,89L47.17340444444445,89L47.40039111111111,89L47.48202666666666,89L47.76476444444444,89L47.79264,89L48.033564444444444,89L48.05347555555556,89L48.23864888888889,89L48.79018666666666,89L48.90368,89L49.01916444444444,89L49.55079111111111,89L49.96494222222223,89L50.13617777777778,89L50.16206222222222,89L50.42289777777778,89L50.71160888888889,89L50.839040000000004,89L51.57376,89L51.58769777777778,89L51.818666666666665,89L51.97795555555555,89L52.06357333333333,89L52.23281777777778,89L52.57728,89L52.82019555555556,89L52.82616888888889,89L52.947626666666665,89L52.96355555555555,89L53.055146666666666,89L53.21841777777778,89L53.849599999999995,89L53.955128888888886,89L54.074595555555554,89L54.142293333333335,89L54.37923555555555,89L54.52657777777778,89L54.94471111111111,89L54.95466666666667,89L55.33297777777778,89L55.58385777777778,89L56.34247111111111,89L56.75264,89L56.87608888888889,89L57.065244444444446,89L57.11900444444445,89L57.79797333333334,89L58.084693333333334,89L58.18624,89L58.232035555555555,89L58.610346666666665,89L59.14794666666666,89L59.428693333333335,89L59.574044444444446,89L59.661653333333334,89L59.878684444444445,89L60.258986666666665,89L60.31872,89L60.356551111111116,89L60.53973333333334,89L60.599466666666665,89L60.72689777777778,89L60.76472888888889,89L61.92156444444445,89L61.989262222222216,89L62.45319111111111,89L62.50097777777778,89L63.20184888888889,89L63.46666666666666,89L63.61002666666667,89L64.58168888888889,89L64.67726222222223,89L65.09340444444445,89L65.1551288888889,89L65.54339555555555,89L65.59317333333333,89L65.63697777777777,89L66.04316444444444,89L66.07104,89L66.12878222222223,89L66.1447111111111,89L67.85109333333334,89L69.17518222222222,89L69.2807111111111,89L69.48380444444444,89L70.00149333333334,89L70.21852444444444,89L70.2464,89L70.39971555555556,89L70.62869333333333,89L70.9253688888889,89L71.04085333333333,89L71.05877333333333,89L71.21009777777778,89L71.42115555555556,89L71.43708444444444,89L71.57845333333333,89L71.81141333333333,89L72.00853333333333,89L72.01052444444444,89L72.08618666666666,89L72.4864,89L72.49237333333333,89L72.58993777777778,89L72.63772444444444,89L73.08572444444444,89L73.21315555555556,89L73.34257777777778,89L73.38837333333333,89L73.5616,89L73.70496,89L73.96778666666667,89L74.61489777777777,89L75.40536888888889,89L75.49895111111111,89L75.57461333333333,89L75.63036444444444,89L75.85735111111111,89L76.59008,89L77.18343111111112,89L77.20334222222222,89L77.29095111111111,89L77.34272000000001,89L77.47811555555555,89L77.62744888888888,89L77.75886222222223,89L77.98385777777779,89L78.24270222222222,89L78.26460444444444,89L78.30442666666667,89L78.77632,89L79.05706666666667,89L79.19246222222222,89L79.46126222222222,89L79.46524444444445,89L79.54090666666666,89L79.58670222222223,89L80.13624888888889,89L80.33137777777777,89L80.34730666666667,89L80.69376,89L80.75946666666667,89L80.90680888888889,89L81.39463111111111,89L81.5519288888889,89L81.66940444444445,89L82.25678222222221,89L82.50766222222222,89L82.57735111111111,89L82.72469333333333,89L83.01340444444445,89L83.19061333333333,89L83.48529777777779,89L83.81781333333333,89L84.46890666666665,89L84.47089777777778,89L84.53262222222223,89L85.15584,89L85.17973333333333,89L85.18769777777777,89L85.1896888888889,89L85.41866666666667,89L85.87861333333333,89L86.07374222222222,89L86.1075911111111,89L86.14343111111111,89L86.51576888888889,89L86.69696,89L86.76465777777778,89L86.80049777777778,89L87.50336,89L87.73632,89L87.76220444444445,89L87.94538666666668,89L88.0031288888889,89L88.79559111111112,89L88.84736,89L88.97877333333334,89L89.25553777777777,89L89.37898666666666,89L89.79313777777779,89L89.82499555555556,89L89.97233777777778,89L90.07189333333334,89L90.50595555555556,89L90.85639111111111,89L90.90816000000001,89L91.02961777777777,89L91.1928888888889,89L91.33027555555556,89L91.4975288888889,89L91.76035555555555,89L91.78225777777779,89L92.06499555555556,89L92.25216,89L92.28003555555556,89L93.64593777777777,89L93.71960888888889,89L94.22336,89L94.44636444444446,89L94.57578666666666,89L94.58972444444444,89L94.70122666666667,89L94.71914666666667,89L94.83662222222223,89L95.17511111111111,89L95.24081777777778,89L95.69479111111112,89L95.90784,89L96.13681777777778,89L96.23438222222222,89L96.34588444444444,89L96.60871111111112,89L96.62464,89L96.88746666666667,89L97.12241777777777,89L97.17617777777778,89L97.18016,89L97.35936000000001,89L97.49873777777778,89L97.56643555555556,89L97.62218666666666,89L98.26929777777778,89L98.28721777777777,89L98.3111111111111,89L98.34894222222222,89L98.38279111111112,89L98.49031111111111,89L98.51420444444445,89L98.56398222222222,89L98.63765333333333,89L98.84472888888888,89L98.88256000000001,89L99.09162666666666,89L99.53166222222222,89L99.57347555555556,89L99.68298666666666,89L99.85621333333334,89L100.00355555555555,89L100.36992000000001,89L101.4650311111111,89L101.50684444444444,89L101.52277333333333,89L101.55264,89L101.76369777777776,89L101.94289777777777,89L102.33713777777778,89L102.35107555555555,89L102.49244444444444,89L102.69952,89L102.73336888888889,89L102.86677333333333,89L103.28291555555556,89L103.34065777777778,89L104.04551111111111,89L104.10524444444444,89L104.32028444444444,89L104.42382222222223,89L104.48554666666666,89L104.59904,89L105.18641777777778,89L105.69016888888889,89L105.75786666666667,89L106.30542222222222,89L106.52842666666666,89L107.15761777777777,89L107.64942222222221,89L107.68127999999999,89L107.70318222222222,89L108.16910222222222,89L108.20892444444445,89L108.44785777777777,89L108.72860444444444,89L108.77639111111111,89L109.23832888888889,89L109.35580444444444,89L110.16419555555555,89L110.21994666666666,89L110.32149333333334,89L110.51463111111111,89L110.57635555555557,89L110.5863111111111,89L110.79736888888888,89L111.34691555555555,89L111.75310222222222,89L112.04579555555556,89L112.07765333333333,89L112.08561777777777,89L112.15132444444444,89L112.19114666666667,89L112.33649777777778,89L112.82830222222222,89L113.23448888888889,89L113.28824888888889,89L113.42762666666667,89L113.82186666666666,89L113.85372444444445,89L114.76565333333333,89L115.00657777777778,89L115.2256,89L115.63576888888889,89L115.67160888888888,89L116.08974222222221,89L116.6930488888889,89L117.28440888888889,89L117.76227555555555,89L117.83196444444445,89L117.93948444444445,89L118.00319999999999,89L118.14656,89L118.20032,89L118.20828444444444,89L118.33372444444446,89L118.6821688888889,89L118.70805333333334,89L118.86734222222223,89L118.87530666666667,89L118.94698666666667,89L119.12021333333333,89L119.13415111111111,89L119.22176,89L119.32728888888889,89L119.88679111111111,89L120.31886222222222,89L120.34673777777778,89L120.64142222222222,89L120.92017777777778,89L121.33034666666667,89L121.34826666666666,89L121.45379555555556,89L121.72259555555554,89L122.02325333333333,89L122.76992,89L122.88341333333334,89L123.04071111111111,89L123.11239111111111,89L123.33738666666666,89L123.36924444444445,89L123.52654222222223,89L123.69777777777777,89L125.17518222222223,89L125.29464888888889,89L125.33447111111111,89L125.66897777777777,89L125.78844444444445,89L125.86012444444444,89L125.96565333333334,89L125.99950222222223,89L126.02737777777777,89L126.09905777777779,89L126.1767111111111,89L126.45148444444445,89L126.58090666666666,89L126.62670222222222,89L126.83776,89L127.04682666666668,89L127.13841777777778,89L127.72579555555555,89L128.36693333333332,89L128.64170666666666,89L129.2191288888889,89L129.32664888888888,89L129.37642666666667,89L129.62730666666667,89L129.78858666666667,89L129.91004444444445,89L129.94787555555556,89L130.68060444444444,89L130.78016,89L130.96533333333332,89L130.9971911111111,89L131.05692444444443,89L131.20227555555556,89L131.92106666666666,89L131.92504888888888,89L132.29937777777778,89L132.61795555555554,89L132.92657777777777,89L133.11175111111112,89L133.22126222222224,89L133.3407288888889,89L134.15310222222223,89L134.24867555555556,89L134.26460444444444,89L134.5592888888889,89L134.65287111111112,89L134.78428444444444,89L135.12277333333333,89L135.23228444444445,89L135.35374222222222,89L135.66634666666667,89L135.70218666666668,89L136.00881777777778,89L136.2477511111111,89L136.45482666666666,89L136.52053333333333,89L136.64796444444445,89L136.82517333333334,89L136.85504,89L137.5738311111111,89L138.04771555555556,89L138.06165333333334,89L138.06961777777778,89L138.07758222222222,89L138.3583288888889,89L138.44593777777777,89L138.77646222222222,89L138.80632888888888,89L138.84814222222224,89L138.87800888888887,89L139.11296,89L139.87754666666666,89L139.9213511111111,89L140.00896,89L140.0647111111111,89L140.2399288888889,89L140.49877333333333,89L140.58837333333332,89L141.0084977777778,89L141.21955555555556,89L141.22552888888887,89L141.2772977777778,89L141.33902222222224,89L141.6954311111111,89L141.70538666666667,89L141.72131555555555,89L142.04387555555553,89L142.14940444444446,89L142.54762666666667,89L142.79651555555554,89L143.2206222222222,89L143.2863288888889,89L143.62481777777776,89L143.65269333333333,89L143.82592,89L144.1823288888889,89L144.24803555555556,89L144.60444444444445,89L145.20177777777778,89L145.21372444444444,89L145.57013333333333,89L146.11968,89L147.18492444444445,89L147.2864711111111,89L147.47363555555557,89L147.70460444444444,89L147.81411555555556,89L147.8738488888889,89L148.02915555555555,89L148.08291555555556,89L148.11676444444444,89L148.6483911111111,89L149.1143111111111,89L149.20789333333332,89L149.44881777777778,89L149.86296888888887,89L149.92270222222223,89L150.05610666666666,89L150.75100444444445,89L150.93617777777777,89L150.94812444444446,89L150.99192888888888,89L151.1711288888889,89L151.52554666666668,89L151.76647111111112,89L151.91580444444443,89L152.81379555555554,89L152.9790577777778,89L153.12042666666667,89L153.31356444444444,89L153.44298666666666,89L153.63413333333335,89L153.92483555555555,89L154.83875555555557,89L154.99804444444445,89L155.58940444444443,89L155.65112888888888,89L155.66705777777779,89L156.3022222222222,89L156.60088888888887,89L156.99114666666668,89L157.26592000000002,89L157.40529777777778,89L157.4072888888889,89L157.57454222222222,89L157.8891377777778,89L158.10816,89L158.27541333333332,89L158.52032,89L158.73934222222223,89L158.88867555555558,89L158.99221333333332,89L159.5616711111111,89L159.58158222222224,89L159.91210666666666,89L160.31431111111112,89L160.53532444444443,89L160.64284444444445,89L161.02314666666666,89L161.11672888888887,89L161.28199111111113,89L161.43132444444444,89L161.4930488888889,89L161.58464,89L161.73198222222223,89L161.8156088888889,89L161.94702222222222,89L162.3412622222222,89L162.624,89L163.11978666666667,89L163.81468444444445,89L164.09344000000002,89L164.41400888888887,89L164.46976,89L164.55936,89L165.39363555555553,89L165.46133333333333,89L165.53898666666666,89L167.03232,89L167.03431111111112,89L167.06816,89L167.26129777777777,89L167.36284444444442,89L167.52810666666667,89L167.68341333333333,89L168.35840000000002,89L168.47587555555555,89L168.8402488888889,89L168.84224,89L168.86812444444445,89L169.40572444444444,89L169.4475377777778,89L169.81788444444442,89L169.93137777777778,89L170.08867555555554,89L170.32163555555556,89L171.40280888888887,89L171.41077333333334,89L171.4724977777778,89L171.54417777777778,89L171.64572444444445,89L171.7970488888889,89L172.31274666666667,89L172.47402666666667,89L173.1072,89L173.33418666666665,89L173.58506666666665,89L173.63683555555556,89L173.86780444444443,89L174.17443555555556,89L174.28593777777778,89L174.38748444444442,89L174.4312888888889,89L174.49699555555554,89L174.54677333333333,89L174.86535111111112,89L175.02065777777776,89L175.06446222222223,89L175.06844444444445,89L175.27153777777778,89L175.27751111111112,89L175.58414222222223,89L175.91267555555555,89L176.2113422222222,89L176.48213333333334,89L176.8206222222222,89L177.09738666666667,89L178.03519999999997,89L178.04515555555554,89L178.13873777777778,89L178.25820444444446,89L178.304,89L178.47722666666667,89L178.82766222222222,89L178.8416,89L180.17763555555555,89L180.24931555555554,89L180.72519111111112,89L180.78691555555557,89L181.38026666666664,89L181.41610666666665,89L181.57539555555556,89L181.69884444444443,89L181.83424,89L182.29418666666666,89L182.2981688888889,89L182.5490488888889,89L182.63466666666667,89L182.8716088888889,89L183.29571555555555,89L183.39726222222222,89L183.68398222222223,89L183.77756444444444,89L183.84128,89L184.01052444444446,89L184.24149333333332,89L184.2554311111111,89L184.27733333333333,89L184.82289777777777,89L185.07377777777776,89L185.3445688888889,89L185.48394666666667,89L185.70894222222222,89L186.02552888888889,89L186.2226488888889,89L186.6885688888889,89L186.83391999999998,89L186.94741333333334,89L187.96288,89L188.09827555555557,89L188.2515911111111,89L188.27946666666665,89L188.35711999999998,89L188.42083555555553,89L189.02613333333332,89L189.24316444444446,89L189.59957333333335,89L189.64536888888887,89L190.0276622222222,89L190.07744,89L190.33827555555555,89L190.3522133333333,89L190.39800888888888,89L190.46371555555555,89L190.47168,89L190.6011022222222,89L190.73052444444446,89L191.1008711111111,89L191.17852444444443,89L191.21038222222222,89L191.49710222222222,89L191.5488711111111,89L191.62254222222222,89L192.04664888888888,89L192.12828444444446,89L192.28558222222222,89L192.38513777777777,89L192.42296888888887,89L192.62606222222223,89L193.15171555555554,89L193.3767111111111,89L193.4464,89L194.28864,89L194.54350222222223,89L194.88199111111112,89L195.43153777777778,89L195.67445333333333,89L195.84967111111112,89L195.9173688888889,89L196.03882666666667,89L196.07466666666667,89L196.224,89L196.52465777777778,89L196.62819555555555,89L196.9069511111111,89L197.3907911111111,89L197.89255111111112,89L198.21312,89L198.3086933333333,89L198.6949688888889,89L198.75868444444444,89L198.77461333333332,89L199.1509333333333,89L199.1808,89L199.31221333333332,89L199.56309333333334,89L199.73233777777776,89L199.83985777777778,89L199.99516444444447,89L200.39736888888888,89L200.46108444444445,89L200.53475555555556,89L200.69404444444444,89L200.99470222222223,89L201.3690311111111,89L201.43075555555555,89L201.49646222222222,89L201.62389333333334,89L201.70154666666667,89L201.7234488888889,89L201.8488888888889,89L202.31879111111112,89L202.37653333333336,89L203.24864,89L203.62695111111108,89L203.6408888888889,89L203.90172444444445,89L203.9276088888889,89L204.01919999999998,89L204.07096888888887,89L204.1784888888889,89L204.35569777777778,89L205.12227555555555,89L205.23576888888888,89L205.44682666666665,89L205.5762488888889,89L205.6658488888889,89L205.96650666666665,89L205.9904,89L206.51605333333333,89L206.57777777777778,89L206.60366222222223,89L207.07555555555555,89L207.20896000000002,89L207.67288888888888,89L207.8560711111111,89L207.95363555555556,89L208.16668444444446,89L208.63857777777778,89L208.8436622222222,89L209.01290666666665,89L209.04476444444447,89L209.8053688888889,89L209.83921777777778,89L210.06023111111114,89L210.09806222222224,89L210.25934222222224,89L210.38279111111112,89L210.78499555555555,89L210.94826666666665,89L211.2091022222222,89L212.14492444444446,89L212.45155555555556,89L212.49137777777779,89L212.90154666666666,89L213.24800000000002,89L213.54666666666668,89L213.58648888888888,89L213.59246222222222,89L213.71591111111113,89L213.76170666666667,89L213.76768,89L214.31324444444445,89L214.48248888888887,89L214.53425777777778,89L214.78513777777778,89L214.91057777777777,89L215.74684444444443,89L215.86432,89L215.8683022222222,89L215.93002666666666,89L216.07139555555557,89L216.53731555555555,89L216.73045333333334,89L217.2242488888889,89L217.62645333333333,89L218.08042666666668,89L218.39900444444447,89L219.0341688888889,89L219.1217777777778,89L219.34478222222222,89L219.42044444444446,89L219.8385777777778,89L220.05162666666666,89L220.3283911111111,89L220.38215111111109,89L220.63502222222223,89L220.90780444444445,89L221.01930666666667,89L221.0830222222222,89L221.2243911111111,89L221.2980622222222,89L221.98101333333335,89L222.15822222222224,89L222.20401777777775,89L222.32348444444443,89L222.85909333333333,89L223.01838222222221,89L223.18563555555556,89L223.26528,89L223.32501333333335,89L223.45443555555553,89L223.51815111111114,89L224.28672,89L224.56149333333335,89L224.7008711111111,89L224.84024888888888,89L225.07918222222224,89L225.16679111111114,89L225.4375822222222,89L225.55107555555557,89L225.72828444444445,89L225.83580444444442,89L225.99509333333333,89L226.21411555555557,89L226.23402666666667,89L226.51875555555557,89L226.66410666666667,89L227.0464,89L227.18577777777776,89L227.28334222222222,89L227.31918222222222,89L227.44661333333335,89L227.74328888888888,89L228.21319111111112,89L228.34261333333333,89L228.7707022222222,89L229.24060444444444,89L229.2824177777778,89L229.4516622222222,89L229.45564444444446,89L229.99324444444446,89L230.7896888888889,89L230.86734222222225,89L231.19786666666667,89L231.35118222222223,89L231.39697777777778,89L231.71953777777776,89L231.93258666666665,89L231.99630222222223,89L232.05006222222224,89L232.0679822222222,89L232.20935111111112,89L232.35868444444444,89L232.52394666666666,89L232.68124444444445,89L232.88234666666668,89L232.92216888888888,89L233.07349333333335,89L233.18698666666668,89L233.20888888888888,89L233.59118222222222,89L234.05312,89L234.09294222222223,89L234.8037688888889,89L234.81770666666665,89L235.15221333333332,89L235.21991111111112,89L235.28362666666666,89L235.39114666666669,89L235.57034666666667,89L235.95861333333332,89L236.02033777777777,89L236.1298488888889,89L236.19953777777778,89L236.21944888888888,89L236.60771555555556,89L236.82872888888886,89L237.11744000000002,89L237.22695111111113,89L237.64906666666667,89L237.93180444444445,89L238.0831288888889,89L238.73820444444445,89L238.85368888888888,89L239.5904,89L239.79747555555556,89L239.8253511111111,89L239.8631822222222,89L239.94481777777779,89L239.97269333333332,89L240.00256000000002,89L240.02844444444446,89L240.1060977777778,89L240.18574222222222,89L240.20366222222222,89L240.31715555555556,89L240.36494222222223,89L240.70343111111112,89L240.7074133333333,89L241.04391111111113,89L241.39434666666668,89L241.5775288888889,89L241.66912,89L241.72088888888888,89L241.74876444444442,89L242.1330488888889,89L242.58901333333333,89L242.7025066666667,89L242.94741333333332,89L243.2978488888889,89L243.49696,89L243.70204444444445,89L244.36707555555557,89L244.63189333333332,89L245.6832,89L245.76284444444443,89L245.82855111111112,89L246.19491555555555,89L247.04711111111112,89L247.31989333333334,89L247.86545777777778,89L248.3393422222222,89L248.6260622222222,89L248.62805333333336,89L248.7435377777778,89L249.13379555555554,89L249.14176,89L249.2990577777778,89L249.78090666666668,89L250.26076444444445,89L250.51562666666666,89L250.58133333333333,89L250.74460444444443,89L250.9676088888889,89L251.08707555555554,89L251.1826488888889,89L251.30211555555553,89L251.37379555555555,89L251.41162666666665,89L251.60277333333335,89L251.6704711111111,89L251.69038222222224,89L252.03882666666667,89L252.21802666666665,89L252.51271111111112,89L252.59434666666667,89L252.76956444444446,89L253.2115911111111,89L253.2832711111111,89L253.5162311111111,89L253.8925511111111,89L253.94830222222222,89L254.79054222222223,89L255.05336888888888,89L255.43964444444444,89L255.5172977777778,89L255.91352888888886,89L256.7497955555555,89L257.0305422222222,89L257.20576,89" style="fill: none;" fill="none"></path></g></g></g></g></g></g><g transform="translate(50, 178)" clip-path="url(#clip_1)"><clipPath id="clip_1"><rect width="280" height="22"></rect></clipPath><g><g><line x1="0" y1="0" x2="0" y2="5" style="visibility: inherit;" fill="rgb(0, 0, 0)" stroke="rgb(204, 204, 204)" stroke-width="1px"></line><line x1="31.11111111111111" y1="0" x2="31.11111111111111" y2="5" style="visibility: inherit;" fill="rgb(0, 0, 0)" stroke="rgb(204, 204, 204)" stroke-width="1px"></line><line x1="62.22222222222222" y1="0" x2="62.22222222222222" y2="5" style="visibility: inherit;" fill="rgb(0, 0, 0)" stroke="rgb(204, 204, 204)" stroke-width="1px"></line><line x1="93.33333333333333" y1="0" x2="93.33333333333333" y2="5" style="visibility: inherit;" fill="rgb(0, 0, 0)" stroke="rgb(204, 204, 204)" stroke-width="1px"></line><line x1="124.44444444444444" y1="0" x2="124.44444444444444" y2="5" style="visibility: inherit;" fill="rgb(0, 0, 0)" stroke="rgb(204, 204, 204)" stroke-width="1px"></line><line x1="155.55555555555557" y1="0" x2="155.55555555555557" y2="5" style="visibility: inherit;" fill="rgb(0, 0, 0)" stroke="rgb(204, 204, 204)" stroke-width="1px"></line><line x1="186.66666666666666" y1="0" x2="186.66666666666666" y2="5" style="visibility: inherit;" fill="rgb(0, 0, 0)" stroke="rgb(204, 204, 204)" stroke-width="1px"></line><line x1="217.77777777777777" y1="0" x2="217.77777777777777" y2="5" style="visibility: inherit;" fill="rgb(0, 0, 0)" stroke="rgb(204, 204, 204)" stroke-width="1px"></line><line x1="248.88888888888889" y1="0" x2="248.88888888888889" y2="5" style="visibility: inherit;" fill="rgb(0, 0, 0)" stroke="rgb(204, 204, 204)" stroke-width="1px"></line><line x1="280" y1="0" x2="280" y2="5" style="visibility: inherit;" fill="rgb(0, 0, 0)" stroke="rgb(204, 204, 204)" stroke-width="1px"></line></g><g transform="translate(0, 8)"><text x="0" y="0" dx="0em" dy="0.95em" style="text-anchor: middle; visibility: hidden; font-family: &quot;Helvetica Neue&quot;, sans-serif; font-size: 12px; font-weight: 200;" fill="rgb(50, 49, 63)" stroke="none" stroke-width="1px">-500k</text><text x="31.11111111111111" y="0" dx="0em" dy="0.95em" style="text-anchor: middle; visibility: inherit; font-family: &quot;Helvetica Neue&quot;, sans-serif; font-size: 12px; font-weight: 200;" fill="rgb(50, 49, 63)" stroke="none" stroke-width="1px">0</text><text x="62.22222222222222" y="0" dx="0em" dy="0.95em" style="text-anchor: middle; visibility: inherit; font-family: &quot;Helvetica Neue&quot;, sans-serif; font-size: 12px; font-weight: 200;" fill="rgb(50, 49, 63)" stroke="none" stroke-width="1px">500k</text><text x="93.33333333333333" y="0" dx="0em" dy="0.95em" style="text-anchor: middle; visibility: inherit; font-family: &quot;Helvetica Neue&quot;, sans-serif; font-size: 12px; font-weight: 200;" fill="rgb(50, 49, 63)" stroke="none" stroke-width="1px">1M</text><text x="124.44444444444444" y="0" dx="0em" dy="0.95em" style="text-anchor: middle; visibility: inherit; font-family: &quot;Helvetica Neue&quot;, sans-serif; font-size: 12px; font-weight: 200;" fill="rgb(50, 49, 63)" stroke="none" stroke-width="1px">1.5M</text><text x="155.55555555555557" y="0" dx="0em" dy="0.95em" style="text-anchor: middle; visibility: inherit; font-family: &quot;Helvetica Neue&quot;, sans-serif; font-size: 12px; font-weight: 200;" fill="rgb(50, 49, 63)" stroke="none" stroke-width="1px">2M</text><text x="186.66666666666666" y="0" dx="0em" dy="0.95em" style="text-anchor: middle; visibility: inherit; font-family: &quot;Helvetica Neue&quot;, sans-serif; font-size: 12px; font-weight: 200;" fill="rgb(50, 49, 63)" stroke="none" stroke-width="1px">2.5M</text><text x="217.77777777777777" y="0" dx="0em" dy="0.95em" style="text-anchor: middle; visibility: inherit; font-family: &quot;Helvetica Neue&quot;, sans-serif; font-size: 12px; font-weight: 200;" fill="rgb(50, 49, 63)" stroke="none" stroke-width="1px">3M</text><text x="248.88888888888889" y="0" dx="0em" dy="0.95em" style="text-anchor: middle; visibility: inherit; font-family: &quot;Helvetica Neue&quot;, sans-serif; font-size: 12px; font-weight: 200;" fill="rgb(50, 49, 63)" stroke="none" stroke-width="1px">3.5M</text><text x="280" y="0" dx="0em" dy="0.95em" style="text-anchor: middle; visibility: hidden; font-family: &quot;Helvetica Neue&quot;, sans-serif; font-size: 12px; font-weight: 200;" fill="rgb(50, 49, 63)" stroke="none" stroke-width="1px">4M</text></g><line x1="0" y1="0" x2="280" y2="0" fill="rgb(0, 0, 0)" stroke="rgb(204, 204, 204)" stroke-width="1px"></line></g></g></g></g></svg>