<svg viewBox="0 0 330 200" xmlns="http://www.w3.org/2000/svg"><g><g><g><g><g><line x1="50" y1="178" x2="45" y2="178" style="visibility: inherit;" fill="rgb(0, 0, 0)" stroke="rgb(204, 204, 204)" stroke-width="1px"></line><line x1="50" y1="155.75" x2="45" y2="155.75" style="visibility: inherit;" fill="rgb(0, 0, 0)" stroke="rgb(204, 204, 204)" stroke-width="1px"></line><line x1="50" y1="133.5" x2="45" y2="133.5" style="visibility: inherit;" fill="rgb(0, 0, 0)" stroke="rgb(204, 204, 204)" stroke-width="1px"></line><line x1="50" y1="111.25" x2="45" y2="111.25" style="visibility: inherit;" fill="rgb(0, 0, 0)" stroke="rgb(204, 204, 204)" stroke-width="1px"></line><line x1="50" y1="89" x2="45" y2="89" style="visibility: inherit;" fill="rgb(0, 0, 0)" stroke="rgb(204, 204, 204)" stroke-width="1px"></line><line x1="50" y1="66.75" x2="45" y2="66.75" style="visibility: inherit;" fill="rgb(0, 0, 0)" stroke="rgb(204, 204, 204)" stroke-width="1px"></line><line x1="50" y1="44.5" x2="45" y2="44.5" style="visibility: inherit;" fill="rgb(0, 0, 0)" stroke="rgb(204, 204, 204)" stroke-width="1px"></line><line x1="50" y1="22.25" x2="45" y2="22.25" style="visibility: inherit;" fill="rgb(0, 0, 0)" stroke="rgb(204, 204, 204)" stroke-width="1px"></line><line x1="50" y1="0" x2="45" y2="0" style="visibility: inherit;" fill="rgb(0, 0, 0)" stroke="rgb(204, 204, 204)" stroke-width="1px"></line></g><g transform="translate(40, 0)"><text x="0" y="178" dx="0em" dy="0.3em" style="text-anchor: end; visibility: hidden; font-family: &quot;Helvetica Neue&quot;, sans-serif; font-size: 12px; font-weight: 200;" fill="rgb(50, 49, 63)" stroke="none" stroke-width="1px">-1.5</text><text x="0" y="155.75" dx="0em" dy="0.3em" style="text-anchor: end; visibility: inherit; font-family: &quot;Helvetica Neue&quot;, sans-serif; font-size: 12px; font-weight: 200;" fill="rgb(50, 49, 63)" stroke="none" stroke-width="1px">-1</text><text x="0" y="133.5" dx="0em" dy="0.3em" style="text-anchor: end; visibility: hidden; font-family: &quot;Helvetica Neue&quot;, sans-serif; font-size: 12px; font-weight: 200;" fill="rgb(50, 49, 63)" stroke="none" stroke-width="1px">-0.5</text><text x="0" y="111.25" dx="0em" dy="0.3em" style="text-anchor: end; visibility: inherit; font-family: &quot;Helvetica Neue&quot;, sans-serif; font-size: 12px; font-weight: 200;" fill="rgb(50, 49, 63)" stroke="none" stroke-width="1px">0</text><text x="0" y="89" dx="0em" dy="0.3em" style="text-anchor: end; visibility: hidden; font-family: &quot;Helvetica Neue&quot;, sans-serif; font-size: 12px; font-weight: 200;" fill="rgb(50, 49, 63)" stroke="none" stroke-width="1px">0.5</text><text x="0" y="66.75" dx="0em" dy="0.3em" style="text-anchor: end; visibility: inherit; font-family: &quot;Helvetica Neue&quot;, sans-serif; font-size: 12px; font-weight: 200;" fill="rgb(50, 49, 63)" stroke="none" stroke-width="1px">1</text><text x="0" y="44.5" dx="0em" dy="0.3em" style="text-anchor: end; visibility: hidden; font-family: &quot;Helvetica Neue&quot;, sans-serif; font-size: 12px; font-weight: 200;" fill="rgb(50, 49, 63)" stroke="none" stroke-width="1px">1.5</text><text x="0" y="22.25" dx="0em" dy="0.3em" style="text-anchor: end; visibility: inherit; font-family: &quot;Helvetica Neue&quot;, sans-serif; font-size: 12px; font-weight: 200;" fill="rgb(50, 49, 63)" stroke="none" stroke-width="1px">2</text><text x="0" y="0" dx="0em" dy="0.3em" style="text-anchor: end; visibility: hidden; font-family: &quot;Helvetica Neue&quot;, sans-serif; font-size: 12px; font-weight: 200;" fill="rgb(50, 49, 63)" stroke="none" stroke-width="1px">2.5</text></g><line x1="50" y1="0" x2="50" y2="178" fill="rgb(0, 0, 0)" stroke="rgb(204, 204, 204)" stroke-width="1px"></line></g></g><g transform="translate(50, 0)" clip-path="url(#clip_0)"><clipPath id="clip_0"><rect width="280" height="178"></rect></clipPath><g><g><g><line x1="0" y1="0" x2="0" y2="178" fill="rgb(0, 0, 0)" stroke="rgb(60, 60, 60)" stroke-width="1px" opacity="0.25"></line><line x1="31.11111111111111" y1="0" x2="31.11111111111111" y2="178" fill="rgb(0, 0, 0)" stroke="rgb(60, 60, 60)" stroke-width="1px" opacity="0.25"></line><line x1="62.22222222222222" y1="0" x2="62.22222222222222" y2="178" fill="rgb(0, 0, 0)" stroke="rgb(60, 60, 60)" stroke-width="1px" opacity="0.25"></line><line x1="93.33333333333333" y1="0" x2="93.33333333333333" y2="178" fill="rgb(0, 0, 0)" stroke="rgb(60, 60, 60)" stroke-width="1px" opacity="0.25"></line><line x1="124.44444444444444" y1="0" x2="124.44444444444444" y2="178" fill="rgb(0, 0, 0)" stroke="rgb(60, 60, 60)" stroke-width="1px" opacity="0.25"></line><line x1="155.55555555555557" y1="0" x2="155.55555555555557" y2="178" fill="rgb(0, 0, 0)" stroke="rgb(60, 60, 60)" stroke-width="1px" opacity="0.25"></line><line x1="186.66666666666666" y1="0" x2="186.66666666666666" y2="178" fill="rgb(0, 0, 0)" stroke="rgb(60, 60, 60)" stroke-width="1px" opacity="0.25"></line><line x1="217.77777777777777" y1="0" x2="217.77777777777777" y2="178" fill="rgb(0, 0, 0)" stroke="rgb(60, 60, 60)" stroke-width="1px" opacity="0.25"></line><line x1="248.88888888888889" y1="0" x2="248.88888888888889" y2="178" fill="rgb(0, 0, 0)" stroke="rgb(60, 60, 60)" stroke-width="1px" opacity="0.25"></line><line x1="280" y1="0" x2="280" y2="178" fill="rgb(0, 0, 0)" stroke="rgb(60, 60, 60)" stroke-width="1px" opacity="0.25"></line></g><g><line x1="0" y1="178" x2="280" y2="178" fill="rgb(0, 0, 0)" stroke="rgb(60, 60, 60)" stroke-width="1px" opacity="0.25"></line><line x1="0" y1="155.75" x2="280" y2="155.75" fill="rgb(0, 0, 0)" stroke="rgb(60, 60, 60)" stroke-width="1px" opacity="0.25"></line><line x1="0" y1="133.5" x2="280" y2="133.5" fill="rgb(0, 0, 0)" stroke="rgb(60, 60, 60)" stroke-width="1px" opacity="0.25"></line><line x1="0" y1="111.25" x2="280" y2="111.25" fill="rgb(0, 0, 0)" stroke="rgb(60, 60, 60)" stroke-width="1px" opacity="0.25"></line><line x1="0" y1="89" x2="280" y2="89" fill="rgb(0, 0, 0)" stroke="rgb(60, 60, 60)" stroke-width="1px" opacity="0.25"></line><line x1="0" y1="66.75" x2="280" y2="66.75" fill="rgb(0, 0, 0)" stroke="rgb(60, 60, 60)" stroke-width="1px" opacity="0.25"></line><line x1="0" y1="44.5" x2="280" y2="44.5" fill="rgb(0, 0, 0)" stroke="rgb(60, 60, 60)" stroke-width="1px" opacity="0.25"></line><line x1="0" y1="22.25" x2="280" y2="22.25" fill="rgb(0, 0, 0)" stroke="rgb(60, 60, 60)" stroke-width="1px" opacity="0.25"></line><line x1="0" y1="0" x2="280" y2="0" fill="rgb(0, 0, 0)" stroke="rgb(60, 60, 60)" stroke-width="1px" opacity="0.25"></line></g></g></g><g><g><line x1="0" y1="111.25" x2="280" y2="111.25" fill="rgb(0, 0, 0)" stroke="rgb(153, 153, 153)" stroke-width="1.5px"></line></g></g><g><g><line x1="31.11111111111111" y1="0" x2="31.11111111111111" y2="178" fill="rgb(0, 0, 0)" stroke="rgb(153, 153, 153)" stroke-width="1.5px"></line></g></g><g><g><g><g><g><path stroke="rgb(204, 51, 17)" stroke-width="2px" d="M31.282346666666665,89L31.294293333333332,89L31.397831111111113,89L31.489422222222224,89L31.780124444444446,89L32.02702222222222,89L32.046933333333335,89L32.13056,89L32.20224,89L32.34161777777778,89L32.349582222222224,89L32.38144,89L33.00266666666666,89L33.249564444444445,89L33.4208,89L33.44867555555555,89L33.63982222222222,89L33.69159111111111,89L33.9584,89L33.99025777777778,89L34.308835555555554,89L34.33272888888889,89L34.444231111111115,89L34.98183111111111,89L35.15306666666667,89L35.36014222222222,89L35.51146666666667,89L35.81411555555555,89L36.136675555555556,89L36.35569777777778,89L36.367644444444444,89L36.42339555555556,89L36.439324444444445,89L36.63047111111111,89L36.65834666666667,89L36.83356444444444,89L36.95303111111111,89L37.29550222222222,89L37.42293333333334,89L37.84903111111111,89L38.020266666666664,89L38.03221333333333,89L38.458311111111115,89L38.58972444444444,89L38.74901333333334,89L38.86848,89L39.22022222222222,89L39.459155555555554,89L39.82153777777778,89L39.86932444444444,89L39.99675555555556,89L40.12020444444444,89L40.29940444444444,89L40.62594666666667,89L40.81311111111111,89L40.880808888888886,89L40.88877333333334,89L40.90868444444445,89L41.00824,89L41.01222222222222,89L41.06000888888889,89L41.07992,89L41.19540444444445,89L41.80468444444444,89L42.02370666666667,89L42.92767111111112,89L43.21040888888889,89L43.22235555555556,89L43.70022222222222,89L43.97499555555556,89L44.03871111111111,89L44.04269333333333,89L44.27366222222222,89L44.970551111111114,89L45.52009777777778,89L45.528062222222225,89L45.72717333333333,89L46.00991111111111,89L46.30061333333333,89L46.328488888888884,89L46.75458666666667,89L46.86608888888889,89L47.18466666666667,89L47.42888888888889,89L47.81914666666667,89L47.96250666666667,89L48.30099555555555,89L48.63152,89L48.997884444444445,89L49.065582222222226,89L49.149208888888886,89L49.682826666666664,89L49.69875555555555,89L49.73061333333334,89L50.17662222222223,89L50.232373333333335,89L50.383697777777776,89L50.59873777777778,89L50.90536888888889,89L51.21996444444444,89L51.22792888888889,89L51.442968888888885,89L51.554471111111106,89L52.39472000000001,89L52.45047111111111,89L52.69338666666667,89L53.20709333333333,89L53.724782222222224,89L53.9,89L54.238488888888895,89L54.46149333333334,89L54.48936888888889,89L54.63272888888889,89L54.96325333333333,89L55.52207111111111,89L55.796844444444446,89L55.872506666666666,89L56.15126222222222,89L56.242853333333336,89L56.49771555555555,89L57.071155555555556,89L57.28619555555556,89L57.40168,89L57.77202666666666,89L57.78397333333333,89L57.83176,89L58.40121777777778,89L58.84722666666667,89L59.436595555555556,89L59.599866666666664,89L60.221093333333336,89L60.50383111111111,89L60.77462222222223,89L60.81444444444444,89L60.82639111111111,89L60.88612444444445,89L61.017537777777775,89L61.74230222222222,89L62.12061333333333,89L62.16043555555556,89L62.29981333333333,89L62.929004444444445,89L63.22767111111111,89L63.67896888888889,89L63.84224,89L64.40771555555555,89L64.42762666666667,89L64.46346666666666,89L64.83381333333334,89L64.94531555555555,89L64.98513777777778,89L65.35548444444444,89L65.49088,89L66.45856,89L66.57404444444444,89L66.65767111111111,89L66.68554666666667,89L66.91651555555556,89L67.16341333333332,89L67.97976888888888,89L68.20277333333334,89L68.33020444444445,89L68.67665777777778,89L68.8080711111111,89L69.15054222222223,89L69.2023111111111,89L69.5607111111111,89L69.65230222222222,89L69.72398222222222,89L70.30140444444444,89L70.55626666666667,89L71.15758222222222,89L71.26112,89L72.02303111111111,89L72.05090666666666,89L72.51284444444444,89L72.83142222222223,89L73.00265777777778,89L73.34114666666666,89L73.46459555555556,89L73.52831111111111,89L73.75529777777778,89L73.93848000000001,89L73.94246222222222,89L74.03007111111111,89L74.27298666666665,89L74.30882666666666,89L74.51590222222222,89L74.5278488888889,89L74.67917333333334,89L74.77076444444445,89L74.80262222222223,89L74.98580444444445,89L75.31234666666667,89L75.38800888888888,89L75.69464,89L75.94153777777778,89L76.57471111111111,89L76.78576888888888,89L76.86541333333334,89L76.98886222222222,89L77.02470222222223,89L77.16009777777778,89L77.48664,89L77.63398222222223,89L77.92866666666666,89L78.38264000000001,89L78.76493333333333,89L78.78484444444445,89L78.92820444444445,89L79.05165333333333,89L79.43792888888889,89L79.54146666666666,89L79.62111111111112,89L80.04055111111111,89L80.49850666666667,89L80.70956444444444,89L81.55777777777779,89L82.37811555555555,89L82.62501333333333,89L82.93562666666666,89L83.00332444444444,89L83.11084444444444,89L83.19447111111111,89L83.24225777777778,89L83.3019911111111,89L83.81968,89L84.46878222222223,89L84.48471111111111,89L84.87496888888889,89L85.04222222222222,89L85.24531555555556,89L85.33690666666668,89L85.57185777777778,89L86.0935288888889,89L86.38821333333333,89L87.16872888888888,89L87.72754666666667,89L87.99037333333334,89L88.01824888888889,89L88.12178666666667,89L88.19346666666667,89L88.42841777777777,89L88.62752888888889,89L89.36424,89L89.38813333333333,89L89.5076,89L89.54344,89L89.58326222222223,89L89.94962666666667,89L89.98546666666667,89L90.06909333333333,89L90.32395555555556,89L90.39961777777778,89L91.18809777777778,89L91.54649777777777,89L91.8889688888889,89L92.11993777777778,89L92.7132888888889,89L92.72125333333334,89L92.84868444444444,89L92.97213333333335,89L93.77654222222222,89L93.87211555555555,89L93.90795555555556,89L94.12697777777778,89L94.78404444444445,89L95.1902311111111,89L95.27385777777778,89L95.80081777777778,89L96.08753777777778,89L96.17514666666666,89L96.24284444444444,89L96.42602666666667,89L96.82026666666667,89L97.58485333333334,89L98.02688,89L98.03086222222223,89L98.22200888888888,89L98.38926222222221,89L99.05429333333333,89L99.17774222222222,89L99.31313777777777,89L99.74321777777777,89L99.87463111111111,89L99.95427555555555,89L100.04984888888889,89L100.05383111111111,89L100.14144,89L100.40426666666667,89L100.55957333333333,89L100.59939555555556,89L100.95381333333333,89L101.00956444444444,89L101.12504888888888,89L101.15690666666667,89L101.27239111111112,89L101.6666311111111,89L102.58652444444445,89L102.69802666666666,89L102.8453688888889,89L102.98474666666667,89L103.03253333333333,89L103.28739555555556,89L103.82499555555556,89L104.03736,89L104.56699555555555,89L104.57097777777778,89L105.1284888888889,89L105.61033777777777,89L105.63821333333334,89L106.13599111111111,89L106.58598222222223,89L106.77314666666666,89L106.94438222222223,89L107.21517333333333,89L107.42623111111112,89L107.83241777777778,89L108.84390222222221,89L108.86779555555556,89L109.30185777777777,89L109.35760888888889,89L109.66424,89L109.68813333333333,89L110.03060444444445,89L110.12219555555556,89L110.40095111111111,89L110.48856,89L110.61997333333333,89L110.71554666666667,89L110.87483555555555,89L110.94651555555556,89L110.97040888888888,89L110.98235555555556,89L111.28500444444444,89L111.28898666666667,89L111.47615111111111,89L111.5996,89L111.70711999999999,89L111.71906666666666,89L111.73897777777779,89L112.01903999999999,89L112.25797333333334,89L112.48496,89L112.66416,89L112.82743111111111,89L112.8792,89L112.88318222222223,89L112.97079111111111,89L113.03450666666666,89L113.47653333333334,89L113.56016,89L113.83493333333332,89L113.84688,89L113.85086222222222,89L114.04200888888889,89L114.13758222222222,89L114.66323555555556,89L115.03358222222222,89L115.28844444444445,89L115.54728888888889,89L115.63887999999999,89L115.97338666666666,89L115.98533333333333,89L116.00524444444444,89L116.27205333333333,89L116.34373333333333,89L116.6424,89L116.79770666666667,89L117.42689777777778,89L117.59813333333334,89L117.8808711111111,89L117.9844088888889,89L118.06803555555557,89L118.09192888888889,89L118.72112,89L119.67287111111112,89L119.72464000000001,89L119.86003555555556,89L120.01136,89L120.12018666666665,89L120.57416,89L120.71353777777777,89L120.86088,89L121.22326222222222,89L121.74095111111112,89L122.03961777777778,89L122.39801777777778,89L122.40996444444444,89L123.01128,89L123.22632,89L123.26614222222221,89L123.40153777777778,89L123.44135999999999,89L123.54489777777778,89L123.72409777777777,89L123.81568888888889,89L124.11435555555556,89L124.19001777777777,89L124.37718222222222,89L124.82717333333333,89L125.02230222222221,89L125.34486222222223,89L125.38866666666667,89L125.4683111111111,89L125.75901333333333,89L126.41209777777779,89L126.9735911111111,89L127.12889777777777,89L127.24438222222223,89L127.59083555555556,89L127.78198222222223,89L127.78994666666667,89L127.94127111111112,89L128.03286222222224,89L128.31292444444446,89L128.87441777777778,89L129.12928,89L129.51953777777777,89L129.55139555555556,89L130.24430222222222,89L130.37571555555556,89L130.6704,89L130.82570666666666,89L131.16817777777777,89L131.55843555555555,89L131.61020444444443,89L131.64604444444444,89L131.96063999999998,89L132.1955911111111,89L132.64956444444445,89L132.70929777777778,89L133.02389333333335,89L133.37034666666668,89L133.87210666666667,89L134.01148444444445,89L134.3061688888889,89L134.79996444444444,89L134.88359111111112,89L134.98314666666667,89L135.23800888888888,89L135.29376,89L135.78357333333332,89L135.82737777777777,89L136.22292444444446,89L136.48973333333333,89L137.28617777777777,89L137.79192,89L137.79590222222222,89L137.91138666666666,89L137.91935111111113,89L138.3135911111111,89L139.16578666666666,89L139.18968,89L139.21357333333333,89L139.2295022222222,89L139.23348444444446,89L139.69144,89L140.61133333333333,89L141.0015911111111,89L141.0414133333333,89L141.0692888888889,89L141.1409688888889,89L141.54317333333333,89L141.88564444444447,89L142.24802666666668,89L142.2559911111111,89L142.38342222222224,89L142.45510222222222,89L143.58207111111113,89L143.68560888888888,89L143.86082666666667,89L144.3240711111111,89L144.37583999999998,89L144.74220444444444,89L144.85768888888887,89L145.01299555555556,89L146.44261333333333,89L146.54615111111113,89L146.63376000000002,89L146.70942222222223,89L146.80897777777778,89L146.87269333333333,89L146.92048,89L147.36250666666666,89L147.60940444444444,89L148.43770666666666,89L148.46558222222222,89L148.5014222222222,89L148.7005333333333,89L148.71248,89L148.79610666666667,89L148.91955555555555,89L148.99521777777778,89L149.5368,89L149.85936,89L149.86334222222223,89L149.99873777777776,89L150.54430222222223,89L150.56421333333333,89L150.6677511111111,89L150.85093333333333,89L150.91066666666669,89L151.2372088888889,89L151.51198222222223,89L151.67525333333333,89L151.84648888888887,89L152.37214222222224,89L152.41327111111113,89L152.81945777777779,89L152.97874666666667,89L153.35307555555556,89L153.40882666666667,89L153.48050666666666,89L154.73092444444444,89L154.94198222222224,89L156.14063111111113,89L156.28797333333333,89L157.29547555555556,89L157.39901333333333,89L157.74148444444447,89L158.0003288888889,89L158.02820444444444,89L158.0600622222222,89L158.2512088888889,89L158.2870488888889,89L158.52200000000002,89L158.5737688888889,89L159.19897777777777,89L159.3303911111111,89L159.49764444444443,89L160.2383377777778,89L160.6099911111111,89L160.66176,89L160.93653333333333,89L161.11971555555556,89L161.31484444444445,89L161.5378488888889,89L162.0635022222222,89L162.09536,89L162.49358222222222,89L162.54136888888888,89L162.62101333333334,89L163.09091555555554,89L163.19843555555556,89L163.20639999999997,89L163.5648,89L163.84355555555555,89L163.95107555555558,89L163.97895111111112,89L164.09045333333333,89L164.63203555555558,89L164.9984,89L165.38467555555556,89L165.42051555555554,89L165.46830222222223,89L165.54396444444444,89L165.61166222222224,89L165.82670222222222,89L165.8744888888889,89L165.97404444444444,89L166.12138666666667,89L166.53553777777776,89L166.6112,89L166.63907555555554,89L166.82225777777776,89L167.02933333333334,89L167.04128,89L167.18065777777778,89L167.90542222222223,89L167.90940444444445,89L167.99303111111112,89L168.21205333333333,89L168.55850666666666,89L168.55981333333332,89L168.7111377777778,89L168.85051555555557,89L168.88635555555555,89L169.58324444444446,89L169.96155555555555,89L170.76198222222223,89L170.90534222222223,89L171.15223999999998,89L171.4588711111111,89L171.77346666666668,89L171.85709333333332,89L171.8889511111111,89L171.94072,89L171.94868444444444,89L172.36283555555556,89L172.3708,89L172.71725333333333,89L172.72920000000002,89L173.51767999999998,89L173.54555555555558,89L173.80838222222224,89L173.82829333333333,89L174.24244444444446,89L174.31014222222223,89L174.57695111111113,89L174.65659555555555,89L175.08269333333334,89L175.3495022222222,89L175.40923555555557,89L175.47295111111112,89L175.52472,89L175.66409777777778,89L175.76763555555556,89L176.69281777777778,89L176.9317511111111,89L177.05121777777777,89L177.12688,89L177.48129777777777,89L177.63660444444446,89L177.65253333333334,89L177.68837333333335,89L177.81182222222222,89L178.0388088888889,89L178.62021333333334,89L179.0821511111111,89L179.21356444444444,89L179.64762666666667,89L180.22106666666667,89L180.35646222222223,89L181.45157333333333,89L181.62280888888887,89L181.8975822222222,89L183.15596444444444,89L183.37498666666667,89L183.43472,89L183.84488888888887,89L184.13957333333332,89L184.20328888888886,89L184.24709333333334,89L184.3824888888889,89L184.7010666666667,89L184.94130666666666,89L184.94528888888888,89L185.17625777777778,89L185.2559022222222,89L185.42713777777777,89L185.7337688888889,89L186.29526222222222,89L186.38685333333336,89L186.39083555555555,89L186.9324177777778,89L187.3147111111111,89L187.54966222222222,89L187.59346666666667,89L188.72441777777777,89L189.16644444444447,89L189.27794666666668,89L189.48104,89L189.86731555555554,89L189.99076444444444,89L190.01067555555557,89L190.07837333333333,89L190.4327911111111,89L191.24516444444447,89L191.53188444444444,89L192.2964711111111,89L192.34425777777778,89L192.47168888888888,89L192.5831911111111,89L192.9269688888889,89L192.9667911111111,89L192.99068444444444,89L193.00661333333332,89L193.13006222222222,89L193.13802666666666,89L193.1937777777778,89L193.2176711111111,89L193.50837333333334,89L194.49198222222222,89L194.8424177777778,89L194.94595555555557,89L195.30435555555556,89L195.41187555555558,89L195.69063111111112,89L195.96142222222224,89L196.28796444444444,89L196.4791111111111,89L196.54282666666668,89L196.75786666666667,89L197.4069688888889,89L197.43882666666667,89L197.6936888888889,89L197.80120888888888,89L198.3388088888889,89L198.36668444444445,89L198.84853333333334,89L198.94410666666664,89L198.9839288888889,89L199.03968,89L199.28657777777778,89L199.6648888888889,89L200.10691555555553,89L200.17859555555555,89L200.21841777777777,89L200.30204444444445,89L200.73610666666667,89L201.01218666666665,89L201.40244444444446,89L202.0196888888889,89L202.15110222222222,89L202.21880000000002,89L202.37410666666668,89L203.40152,89L204.18203555555556,89L204.35725333333332,89L204.4966311111111,89L204.61609777777778,89L204.71167111111112,89L204.8391022222222,89L205.1258222222222,89L205.23334222222223,89L205.2492711111111,89L205.30900444444444,89L205.4125422222222,89L205.5001511111111,89L206.1811111111111,89L206.19704000000002,89L206.2488088888889,89L206.5673866666667,89L206.58331555555557,89L206.72667555555554,89L207.07312888888887,89L207.10100444444447,89L207.27622222222223,89L207.48728,89L207.64258666666666,89L207.88550222222221,89L208.27177777777777,89L208.4231022222222,89L208.60628444444444,89L208.61026666666666,89L208.84521777777778,89L209.1770488888889,89L209.27262222222222,89L209.4677511111111,89L209.52350222222222,89L210.1128711111111,89L210.2323377777778,89L210.4672888888889,89L210.6703822222222,89L211.49072,89L211.52656000000002,89L211.73761777777776,89L212.27521777777778,89L212.41857777777776,89L212.8287466666667,89L212.87653333333333,89L213.32652444444446,89L213.59731555555555,89L213.73669333333333,89L214.33402666666666,89L214.36986666666667,89L214.4773866666667,89L214.5968533333333,89L214.73224888888888,89L214.9114488888889,89L214.94330666666667,89L215.05480888888889,89L215.5048,89L215.56851555555556,89L215.81541333333334,89L215.8831111111111,89L216.22558222222224,89L216.26142222222222,89L217.01008,89L217.21447999999998,89L218.36136000000002,89L218.44498666666667,89L219.00648,89L219.17771555555555,89L219.38877333333335,89L219.4166488888889,89L219.4962933333333,89L219.59983111111111,89L219.95823111111113,89L220.16530666666665,89L220.40424000000002,89L220.43211555555555,89L220.5476,89L220.75865777777776,89L220.7745866666667,89L220.82635555555555,89L220.88210666666666,89L220.97768,89L221.02546666666666,89L221.15289777777778,89L221.18077333333332,89L221.23652444444446,89L221.68651555555556,89L221.73032,89L221.75421333333335,89L221.91748444444445,89L221.93341333333333,89L221.98916444444447,89L222.08075555555556,89L222.50287111111112,89L222.67410666666666,89L222.92100444444446,89L222.98472,89L223.1041866666667,89L223.87673777777778,89L224.05593777777776,89L224.24708444444445,89L224.2789422222222,89L224.70902222222222,89L224.78866666666664,89L225.5585422222222,89L226.1080888888889,89L227.26293333333334,89L227.47797333333332,89L227.57752888888888,89L228.0792888888889,89L228.4018488888889,89L228.64476444444443,89L228.72042666666664,89L228.95537777777776,89L229.41731555555558,89L229.73191111111112,89L230.18588444444444,89L230.38499555555555,89L230.5323377777778,89L230.75534222222223,89L230.81905777777777,89L230.93852444444445,89L231.22922666666668,89L231.6832,89L232.03363555555555,89L232.30442666666667,89L232.66680888888888,89L232.67477333333335,89L232.69866666666667,89L233.42075555555556,89L234.0579111111111,89L234.2012711111111,89L234.65922666666668,89L234.67515555555556,89L235.04550222222224,89L235.26452444444442,89L235.50345777777778,89L235.88176888888887,89L236.69414222222224,89L237.12820444444446,89L237.30342222222222,89L237.3193511111111,89L237.3512088888889,89L237.94057777777778,89L238.1277422222222,89L238.3905688888889,89L238.39853333333332,89L239.06754666666666,89L239.2865688888889,89L239.3980711111111,89L239.52948444444445,89L239.62505777777778,89L239.66487999999998,89L240.15469333333334,89L240.22637333333333,89L240.52504,89L240.67636444444443,89L240.83963555555556,89L241.24184,89L241.31750222222223,89L241.72897777777777,89L241.86039111111108,89L242.11525333333333,89L242.15507555555556,89L242.46967111111113,89L242.52940444444442,89L242.67674666666665,89L243.70017777777778,89L243.73203555555557,89L243.96698666666666,89L244.0227377777778,89L244.68378666666666,89L244.91475555555556,89L244.9426311111111,89L244.95855999999998,89L244.97448888888889,89L245.3846577777778,89L245.53598222222223,89L245.66739555555557,89L245.7112,89L246.17712,89L246.37224888888886,89L246.43198222222222,89L246.5156088888889,89L246.57534222222222,89L246.81427555555555,89L247.04524444444445,89L247.5509866666667,89L247.94124444444444,89L248.4310577777778,89L248.57441777777777,89L248.66202666666666,89L248.83724444444442,89L248.94874666666666,89L249.29918222222224,89L249.51951111111111,89L249.81419555555556,89L249.99339555555557,89L250.83364444444445,89L251.25575999999998,89L251.26770666666667,89L251.37124444444444,89L251.49469333333334,89L252.2075111111111,89L252.22742222222223,89L252.25928,89L252.90439999999998,89L253.1154577777778,89L253.23094222222224,89L253.5296088888889,89L253.89995555555555,89L253.91190222222224,89L254.40968,89L255.25789333333333,89L255.38930666666667,89L255.55656,89L255.6839911111111,89L255.76761777777776,89L256.0184977777778,89L256.0662844444444,89L256.12203555555556,89L256.1499111111111,89L256.4684888888889,89L257.18130666666667,89L257.31272,89L257.45608,89L258.0228622222222,89L258.17020444444444,89L258.9706311111111,89L259.06620444444445,89L259.21752888888886,89L259.24142222222224,89L259.3290311111111,89L259.6117688888889,89L259.89450666666664,89L259.95424,89L260.08963555555556,89L260.31662222222224,89L260.7586488888889,89L261.05333333333334,89L261.4913777777778,89L262.36746666666664,89L263.1838222222222,89L263.38691555555556,89L263.76124444444446,89L264.2231822222222,89L264.4422044444444,89L264.5616711111111,89L264.5776,89L264.7448533333333,89L264.8722844444444,89L264.9798044444444,89L265.04750222222225,89L265.1072355555555,89L265.1470577777778,89L265.4815644444445,89L266.04436444444445,89L266.10808,89L266.12002666666666,89L266.13197333333335,89L266.21958222222224,89L266.6775377777778,89L267.03992,89L267.2270844444444,89L267.70893333333333,89L268.28237333333334,89L268.47352,89L268.5372355555555,89L268.65670222222224,89L268.8518311111111,89L268.9235111111111,89L268.97926222222225,89L269.2460711111111,89L269.42128888888885,89L269.5288088888889,89L270.0026933333333,89L270.3133066666667,89L270.6836533333333,89L270.70754666666664,89L270.79515555555554,89L271.15355555555556,89L271.55576,89L271.7946933333333,89L271.8623911111111,89L271.90619555555554,89L271.9738933333333,89L272.34424,89L272.51149333333336,89L272.64290666666665,89L272.8300711111111,89L272.9017511111111,89L273.43935111111114,89L273.6676444444444,89" style="fill: none;" fill="none"></path></g><g><path stroke="rgb(255, 112, 67)" stroke-width="2px" d="M31.282346666666665,89L31.294293333333332,89L31.397831111111113,89L31.489422222222224,89L31.780124444444446,89L32.02702222222222,89L32.046933333333335,89L32.13056,89L32.20224,89L32.34161777777778,89L32.349582222222224,89L32.38144,89L33.00266666666666,89L33.249564444444445,89L33.4208,89L33.44867555555555,89L33.63982222222222,89L33.69159111111111,89L33.9584,89L33.99025777777778,89L34.308835555555554,89L34.33272888888889,89L34.444231111111115,89L34.98183111111111,89L35.15306666666667,89L35.36014222222222,89L35.51146666666667,89L35.81411555555555,89L36.136675555555556,89L36.35569777777778,89L36.367644444444444,89L36.42339555555556,89L36.439324444444445,89L36.63047111111111,89L36.65834666666667,89L36.83356444444444,89L36.95303111111111,89L37.29550222222222,89L37.42293333333334,89L37.84903111111111,89L38.020266666666664,89L38.03221333333333,89L38.458311111111115,89L38.58972444444444,89L38.74901333333334,89L38.86848,89L39.22022222222222,89L39.459155555555554,89L39.82153777777778,89L39.86932444444444,89L39.99675555555556,89L40.12020444444444,89L40.29940444444444,89L40.62594666666667,89L40.81311111111111,89L40.880808888888886,89L40.88877333333334,89L40.90868444444445,89L41.00824,89L41.01222222222222,89L41.06000888888889,89L41.07992,89L41.19540444444445,89L41.80468444444444,89L42.02370666666667,89L42.92767111111112,89L43.21040888888889,89L43.22235555555556,89L43.70022222222222,89L43.97499555555556,89L44.03871111111111,89L44.04269333333333,89L44.27366222222222,89L44.970551111111114,89L45.52009777777778,89L45.528062222222225,89L45.72717333333333,89L46.00991111111111,89L46.30061333333333,89L46.328488888888884,89L46.75458666666667,89L46.86608888888889,89L47.18466666666667,89L47.42888888888889,89L47.81914666666667,89L47.96250666666667,89L48.30099555555555,89L48.63152,89L48.997884444444445,89L49.065582222222226,89L49.149208888888886,89L49.682826666666664,89L49.69875555555555,89L49.73061333333334,89L50.17662222222223,89L50.232373333333335,89L50.383697777777776,89L50.59873777777778,89L50.90536888888889,89L51.21996444444444,89L51.22792888888889,89L51.442968888888885,89L51.554471111111106,89L52.39472000000001,89L52.45047111111111,89L52.69338666666667,89L53.20709333333333,89L53.724782222222224,89L53.9,89L54.238488888888895,89L54.46149333333334,89L54.48936888888889,89L54.63272888888889,89L54.96325333333333,89L55.52207111111111,89L55.796844444444446,89L55.872506666666666,89L56.15126222222222,89L56.242853333333336,89L56.49771555555555,89L57.071155555555556,89L57.28619555555556,89L57.40168,89L57.77202666666666,89L57.78397333333333,89L57.83176,89L58.40121777777778,89L58.84722666666667,89L59.436595555555556,89L59.599866666666664,89L60.221093333333336,89L60.50383111111111,89L60.77462222222223,89L60.81444444444444,89L60.82639111111111,89L60.88612444444445,89L61.017537777777775,89L61.74230222222222,89L62.12061333333333,89L62.16043555555556,89L62.29981333333333,89L62.929004444444445,89L63.22767111111111,89L63.67896888888889,89L63.84224,89L64.40771555555555,89L64.42762666666667,89L64.46346666666666,89L64.83381333333334,89L64.94531555555555,89L64.98513777777778,89L65.35548444444444,89L65.49088,89L66.45856,89L66.57404444444444,89L66.65767111111111,89L66.68554666666667,89L66.91651555555556,89L67.16341333333332,89L67.97976888888888,89L68.20277333333334,89L68.33020444444445,89L68.67665777777778,89L68.8080711111111,89L69.15054222222223,89L69.2023111111111,89L69.5607111111111,89L69.65230222222222,89L69.72398222222222,89L70.30140444444444,89L70.55626666666667,89L71.15758222222222,89L71.26112,89L72.02303111111111,89L72.05090666666666,89L72.51284444444444,89L72.83142222222223,89L73.00265777777778,89L73.34114666666666,89L73.46459555555556,89L73.52831111111111,89L73.75529777777778,89L73.93848000000001,89L73.94246222222222,89L74.03007111111111,89L74.27298666666665,89L74.30882666666666,89L74.51590222222222,89L74.5278488888889,89L74.67917333333334,89L74.77076444444445,89L74.80262222222223,89L74.98580444444445,89L75.31234666666667,89L75.38800888888888,89L75.69464,89L75.94153777777778,89L76.57471111111111,89L76.78576888888888,89L76.86541333333334,89L76.98886222222222,89L77.02470222222223,89L77.16009777777778,89L77.48664,89L77.63398222222223,89L77.92866666666666,89L78.38264000000001,89L78.76493333333333,89L78.78484444444445,89L78.92820444444445,89L79.05165333333333,89L79.43792888888889,89L79.54146666666666,89L79.62111111111112,89L80.04055111111111,89L80.49850666666667,89L80.70956444444444,89L81.55777777777779,89L82.37811555555555,89L82.62501333333333,89L82.93562666666666,89L83.00332444444444,89L83.11084444444444,89L83.19447111111111,89L83.24225777777778,89L83.3019911111111,89L83.81968,89L84.46878222222223,89L84.48471111111111,89L84.87496888888889,89L85.04222222222222,89L85.24531555555556,89L85.33690666666668,89L85.57185777777778,89L86.0935288888889,89L86.38821333333333,89L87.16872888888888,89L87.72754666666667,89L87.99037333333334,89L88.01824888888889,89L88.12178666666667,89L88.19346666666667,89L88.42841777777777,89L88.62752888888889,89L89.36424,89L89.38813333333333,89L89.5076,89L89.54344,89L89.58326222222223,89L89.94962666666667,89L89.98546666666667,89L90.06909333333333,89L90.32395555555556,89L90.39961777777778,89L91.18809777777778,89L91.54649777777777,89L91.8889688888889,89L92.11993777777778,89L92.7132888888889,89L92.72125333333334,89L92.84868444444444,89L92.97213333333335,89L93.77654222222222,89L93.87211555555555,89L93.90795555555556,89L94.12697777777778,89L94.78404444444445,89L95.1902311111111,89L95.27385777777778,89L95.80081777777778,89L96.08753777777778,89L96.17514666666666,89L96.24284444444444,89L96.42602666666667,89L96.82026666666667,89L97.58485333333334,89L98.02688,89L98.03086222222223,89L98.22200888888888,89L98.38926222222221,89L99.05429333333333,89L99.17774222222222,89L99.31313777777777,89L99.74321777777777,89L99.87463111111111,89L99.95427555555555,89L100.04984888888889,89L100.05383111111111,89L100.14144,89L100.40426666666667,89L100.55957333333333,89L100.59939555555556,89L100.95381333333333,89L101.00956444444444,89L101.12504888888888,89L101.15690666666667,89L101.27239111111112,89L101.6666311111111,89L102.58652444444445,89L102.69802666666666,89L102.8453688888889,89L102.98474666666667,89L103.03253333333333,89L103.28739555555556,89L103.82499555555556,89L104.03736,89L104.56699555555555,89L104.57097777777778,89L105.1284888888889,89L105.61033777777777,89L105.63821333333334,89L106.13599111111111,89L106.58598222222223,89L106.77314666666666,89L106.94438222222223,89L107.21517333333333,89L107.42623111111112,89L107.83241777777778,89L108.84390222222221,89L108.86779555555556,89L109.30185777777777,89L109.35760888888889,89L109.66424,89L109.68813333333333,89L110.03060444444445,89L110.12219555555556,89L110.40095111111111,89L110.48856,89L110.61997333333333,89L110.71554666666667,89L110.87483555555555,89L110.94651555555556,89L110.97040888888888,89L110.98235555555556,89L111.28500444444444,89L111.28898666666667,89L111.47615111111111,89L111.5996,89L111.70711999999999,89L111.71906666666666,89L111.73897777777779,89L112.01903999999999,89L112.25797333333334,89L112.48496,89L112.66416,89L112.82743111111111,89L112.8792,89L112.88318222222223,89L112.97079111111111,89L113.03450666666666,89L113.47653333333334,89L113.56016,89L113.83493333333332,89L113.84688,89L113.85086222222222,89L114.04200888888889,89L114.13758222222222,89L114.66323555555556,89L115.03358222222222,89L115.28844444444445,89L115.54728888888889,89L115.63887999999999,89L115.97338666666666,89L115.98533333333333,89L116.00524444444444,89L116.27205333333333,89L116.34373333333333,89L116.6424,89L116.79770666666667,89L117.42689777777778,89L117.59813333333334,89L117.8808711111111,89L117.9844088888889,89L118.06803555555557,89L118.09192888888889,89L118.72112,89L119.67287111111112,89L119.72464000000001,89L119.86003555555556,89L120.01136,89L120.12018666666665,89L120.57416,89L120.71353777777777,89L120.86088,89L121.22326222222222,89L121.74095111111112,89L122.03961777777778,89L122.39801777777778,89L122.40996444444444,89L123.01128,89L123.22632,89L123.26614222222221,89L123.40153777777778,89L123.44135999999999,89L123.54489777777778,89L123.72409777777777,89L123.81568888888889,89L124.11435555555556,89L124.19001777777777,89L124.37718222222222,89L124.82717333333333,89L125.02230222222221,89L125.34486222222223,89L125.38866666666667,89L125.4683111111111,89L125.75901333333333,89L126.41209777777779,89L126.9735911111111,89L127.12889777777777,89L127.24438222222223,89L127.59083555555556,89L127.78198222222223,89L127.78994666666667,89L127.94127111111112,89L128.03286222222224,89L128.31292444444446,89L128.87441777777778,89L129.12928,89L129.51953777777777,89L129.55139555555556,89L130.24430222222222,89L130.37571555555556,89L130.6704,89L130.82570666666666,89L131.16817777777777,89L131.55843555555555,89L131.61020444444443,89L131.64604444444444,89L131.96063999999998,89L132.1955911111111,89L132.64956444444445,89L132.70929777777778,89L133.02389333333335,89L133.37034666666668,89L133.87210666666667,89L134.01148444444445,89L134.3061688888889,89L134.79996444444444,89L134.88359111111112,89L134.98314666666667,89L135.23800888888888,89L135.29376,89L135.78357333333332,89L135.82737777777777,89L136.22292444444446,89L136.48973333333333,89L137.28617777777777,89L137.79192,89L137.79590222222222,89L137.91138666666666,89L137.91935111111113,89L138.3135911111111,89L139.16578666666666,89L139.18968,89L139.21357333333333,89L139.2295022222222,89L139.23348444444446,89L139.69144,89L140.61133333333333,89L141.0015911111111,89L141.0414133333333,89L141.0692888888889,89L141.1409688888889,89L141.54317333333333,89L141.88564444444447,89L142.24802666666668,89L142.2559911111111,89L142.38342222222224,89L142.45510222222222,89L143.58207111111113,89L143.68560888888888,89L143.86082666666667,89L144.3240711111111,89L144.37583999999998,89L144.74220444444444,89L144.85768888888887,89L145.01299555555556,89L146.44261333333333,89L146.54615111111113,89L146.63376000000002,89L146.70942222222223,89L146.80897777777778,89L146.87269333333333,89L146.92048,89L147.36250666666666,89L147.60940444444444,89L148.43770666666666,89L148.46558222222222,89L148.5014222222222,89L148.7005333333333,89L148.71248,89L148.79610666666667,89L148.91955555555555,89L148.99521777777778,89L149.5368,89L149.85936,89L149.86334222222223,89L149.99873777777776,89L150.54430222222223,89L150.56421333333333,89L150.6677511111111,89L150.85093333333333,89L150.91066666666669,89L151.2372088888889,89L151.51198222222223,89L151.67525333333333,89L151.84648888888887,89L152.37214222222224,89L152.41327111111113,89L152.81945777777779,89L152.97874666666667,89L153.35307555555556,89L153.40882666666667,89L153.48050666666666,89L154.73092444444444,89L154.94198222222224,89L156.14063111111113,89L156.28797333333333,89L157.29547555555556,89L157.39901333333333,89L157.74148444444447,89L158.0003288888889,89L158.02820444444444,89L158.0600622222222,89L158.2512088888889,89L158.2870488888889,89L158.52200000000002,89L158.5737688888889,89L159.19897777777777,89L159.3303911111111,89L159.49764444444443,89L160.2383377777778,89L160.6099911111111,89L160.66176,89L160.93653333333333,89L161.11971555555556,89L161.31484444444445,89L161.5378488888889,89L162.0635022222222,89L162.09536,89L162.49358222222222,89L162.54136888888888,89L162.62101333333334,89L163.09091555555554,89L163.19843555555556,89L163.20639999999997,89L163.5648,89L163.84355555555555,89L163.95107555555558,89L163.97895111111112,89L164.09045333333333,89L164.63203555555558,89L164.9984,89L165.38467555555556,89L165.42051555555554,89L165.46830222222223,89L165.54396444444444,89L165.61166222222224,89L165.82670222222222,89L165.8744888888889,89L165.97404444444444,89L166.12138666666667,89L166.53553777777776,89L166.6112,89L166.63907555555554,89L166.82225777777776,89L167.02933333333334,89L167.04128,89L167.18065777777778,89L167.90542222222223,89L167.90940444444445,89L167.99303111111112,89L168.21205333333333,89L168.55850666666666,89L168.55981333333332,89L168.7111377777778,89L168.85051555555557,89L168.88635555555555,89L169.58324444444446,89L169.96155555555555,89L170.76198222222223,89L170.90534222222223,89L171.15223999999998,89L171.4588711111111,89L171.77346666666668,89L171.85709333333332,89L171.8889511111111,89L171.94072,89L171.94868444444444,89L172.36283555555556,89L172.3708,89L172.71725333333333,89L172.72920000000002,89L173.51767999999998,89L173.54555555555558,89L173.80838222222224,89L173.82829333333333,89L174.24244444444446,89L174.31014222222223,89L174.57695111111113,89L174.65659555555555,89L175.08269333333334,89L175.3495022222222,89L175.40923555555557,89L175.47295111111112,89L175.52472,89L175.66409777777778,89L175.76763555555556,89L176.69281777777778,89L176.9317511111111,89L177.05121777777777,89L177.12688,89L177.48129777777777,89L177.63660444444446,89L177.65253333333334,89L177.68837333333335,89L177.81182222222222,89L178.0388088888889,89L178.62021333333334,89L179.0821511111111,89L179.21356444444444,89L179.64762666666667,89L180.22106666666667,89L180.35646222222223,89L181.45157333333333,89L181.62280888888887,89L181.8975822222222,89L183.15596444444444,89L183.37498666666667,89L183.43472,89L183.84488888888887,89L184.13957333333332,89L184.20328888888886,89L184.24709333333334,89L184.3824888888889,89L184.7010666666667,89L184.94130666666666,89L184.94528888888888,89L185.17625777777778,89L185.2559022222222,89L185.42713777777777,89L185.7337688888889,89L186.29526222222222,89L186.38685333333336,89L186.39083555555555,89L186.9324177777778,89L187.3147111111111,89L187.54966222222222,89L187.59346666666667,89L188.72441777777777,89L189.16644444444447,89L189.27794666666668,89L189.48104,89L189.86731555555554,89L189.99076444444444,89L190.01067555555557,89L190.07837333333333,89L190.4327911111111,89L191.24516444444447,89L191.53188444444444,89L192.2964711111111,89L192.34425777777778,89L192.47168888888888,89L192.5831911111111,89L192.9269688888889,89L192.9667911111111,89L192.99068444444444,89L193.00661333333332,89L193.13006222222222,89L193.13802666666666,89L193.1937777777778,89L193.2176711111111,89L193.50837333333334,89L194.49198222222222,89L194.8424177777778,89L194.94595555555557,89L195.30435555555556,89L195.41187555555558,89L195.69063111111112,89L195.96142222222224,89L196.28796444444444,89L196.4791111111111,89L196.54282666666668,89L196.75786666666667,89L197.4069688888889,89L197.43882666666667,89L197.6936888888889,89L197.80120888888888,89L198.3388088888889,89L198.36668444444445,89L198.84853333333334,89L198.94410666666664,89L198.9839288888889,89L199.03968,89L199.28657777777778,89L199.6648888888889,89L200.10691555555553,89L200.17859555555555,89L200.21841777777777,89L200.30204444444445,89L200.73610666666667,89L201.01218666666665,89L201.40244444444446,89L202.0196888888889,89L202.15110222222222,89L202.21880000000002,89L202.37410666666668,89L203.40152,89L204.18203555555556,89L204.35725333333332,89L204.4966311111111,89L204.61609777777778,89L204.71167111111112,89L204.8391022222222,89L205.1258222222222,89L205.23334222222223,89L205.2492711111111,89L205.30900444444444,89L205.4125422222222,89L205.5001511111111,89L206.1811111111111,89L206.19704000000002,89L206.2488088888889,89L206.5673866666667,89L206.58331555555557,89L206.72667555555554,89L207.07312888888887,89L207.10100444444447,89L207.27622222222223,89L207.48728,89L207.64258666666666,89L207.88550222222221,89L208.27177777777777,89L208.4231022222222,89L208.60628444444444,89L208.61026666666666,89L208.84521777777778,89L209.1770488888889,89L209.27262222222222,89L209.4677511111111,89L209.52350222222222,89L210.1128711111111,89L210.2323377777778,89L210.4672888888889,89L210.6703822222222,89L211.49072,89L211.52656000000002,89L211.73761777777776,89L212.27521777777778,89L212.41857777777776,89L212.8287466666667,89L212.87653333333333,89L213.32652444444446,89L213.59731555555555,89L213.73669333333333,89L214.33402666666666,89L214.36986666666667,89L214.4773866666667,89L214.5968533333333,89L214.73224888888888,89L214.9114488888889,89L214.94330666666667,89L215.05480888888889,89L215.5048,89L215.56851555555556,89L215.81541333333334,89L215.8831111111111,89L216.22558222222224,89L216.26142222222222,89L217.01008,89L217.21447999999998,89L218.36136000000002,89L218.44498666666667,89L219.00648,89L219.17771555555555,89L219.38877333333335,89L219.4166488888889,89L219.4962933333333,89L219.59983111111111,89L219.95823111111113,89L220.16530666666665,89L220.40424000000002,89L220.43211555555555,89L220.5476,89L220.75865777777776,89L220.7745866666667,89L220.82635555555555,89L220.88210666666666,89L220.97768,89L221.02546666666666,89L221.15289777777778,89L221.18077333333332,89L221.23652444444446,89L221.68651555555556,89L221.73032,89L221.75421333333335,89L221.91748444444445,89L221.93341333333333,89L221.98916444444447,89L222.08075555555556,89L222.50287111111112,89L222.67410666666666,89L222.92100444444446,89L222.98472,89L223.1041866666667,89L223.87673777777778,89L224.05593777777776,89L224.24708444444445,89L224.2789422222222,89L224.70902222222222,89L224.78866666666664,89L225.5585422222222,89L226.1080888888889,89L227.26293333333334,89L227.47797333333332,89L227.57752888888888,89L228.0792888888889,89L228.4018488888889,89L228.64476444444443,89L228.72042666666664,89L228.95537777777776,89L229.41731555555558,89L229.73191111111112,89L230.18588444444444,89L230.38499555555555,89L230.5323377777778,89L230.75534222222223,89L230.81905777777777,89L230.93852444444445,89L231.22922666666668,89L231.6832,89L232.03363555555555,89L232.30442666666667,89L232.66680888888888,89L232.67477333333335,89L232.69866666666667,89L233.42075555555556,89L234.0579111111111,89L234.2012711111111,89L234.65922666666668,89L234.67515555555556,89L235.04550222222224,89L235.26452444444442,89L235.50345777777778,89L235.88176888888887,89L236.69414222222224,89L237.12820444444446,89L237.30342222222222,89L237.3193511111111,89L237.3512088888889,89L237.94057777777778,89L238.1277422222222,89L238.3905688888889,89L238.39853333333332,89L239.06754666666666,89L239.2865688888889,89L239.3980711111111,89L239.52948444444445,89L239.62505777777778,89L239.66487999999998,89L240.15469333333334,89L240.22637333333333,89L240.52504,89L240.67636444444443,89L240.83963555555556,89L241.24184,89L241.31750222222223,89L241.72897777777777,89L241.86039111111108,89L242.11525333333333,89L242.15507555555556,89L242.46967111111113,89L242.52940444444442,89L242.67674666666665,89L243.70017777777778,89L243.73203555555557,89L243.96698666666666,89L244.0227377777778,89L244.68378666666666,89L244.91475555555556,89L244.9426311111111,89L244.95855999999998,89L244.97448888888889,89L245.3846577777778,89L245.53598222222223,89L245.66739555555557,89L245.7112,89L246.17712,89L246.37224888888886,89L246.43198222222222,89L246.5156088888889,89L246.57534222222222,89L246.81427555555555,89L247.04524444444445,89L247.5509866666667,89L247.94124444444444,89L248.4310577777778,89L248.57441777777777,89L248.66202666666666,89L248.83724444444442,89L248.94874666666666,89L249.29918222222224,89L249.51951111111111,89L249.81419555555556,89L249.99339555555557,89L250.83364444444445,89L251.25575999999998,89L251.26770666666667,89L251.37124444444444,89L251.49469333333334,89L252.2075111111111,89L252.22742222222223,89L252.25928,89L252.90439999999998,89L253.1154577777778,89L253.23094222222224,89L253.5296088888889,89L253.89995555555555,89L253.91190222222224,89L254.40968,89L255.25789333333333,89L255.38930666666667,89L255.55656,89L255.6839911111111,89L255.76761777777776,89L256.0184977777778,89L256.0662844444444,89L256.12203555555556,89L256.1499111111111,89L256.4684888888889,89L257.18130666666667,89L257.31272,89L257.45608,89L258.0228622222222,89L258.17020444444444,89L258.9706311111111,89L259.06620444444445,89L259.21752888888886,89L259.24142222222224,89L259.3290311111111,89L259.6117688888889,89L259.89450666666664,89L259.95424,89L260.08963555555556,89L260.31662222222224,89L260.7586488888889,89L261.05333333333334,89L261.4913777777778,89L262.36746666666664,89L263.1838222222222,89L263.38691555555556,89L263.76124444444446,89L264.2231822222222,89L264.4422044444444,89L264.5616711111111,89L264.5776,89L264.7448533333333,89L264.8722844444444,89L264.9798044444444,89L265.04750222222225,89L265.1072355555555,89L265.1470577777778,89L265.4815644444445,89L266.04436444444445,89L266.10808,89L266.12002666666666,89L266.13197333333335,89L266.21958222222224,89L266.6775377777778,89L267.03992,89L267.2270844444444,89L267.70893333333333,89L268.28237333333334,89L268.47352,89L268.5372355555555,89L268.65670222222224,89L268.8518311111111,89L268.9235111111111,89L268.97926222222225,89L269.2460711111111,89L269.42128888888885,89L269.5288088888889,89L270.0026933333333,89L270.3133066666667,89L270.6836533333333,89L270.70754666666664,89L270.79515555555554,89L271.15355555555556,89L271.55576,89L271.7946933333333,89L271.8623911111111,89L271.90619555555554,89L271.9738933333333,89L272.34424,89L272.51149333333336,89L272.64290666666665,89L272.8300711111111,89L272.9017511111111,89L273.43935111111114,89L273.6676444444444,89" style="fill: none;" fill="none"></path></g></g></g></g><g opacity="0.2"><g><g><g><path stroke="rgb(204, 51, 17)" stroke-width="2px" d="M31.282346666666665,89L31.294293333333332,89L31.397831111111113,89L31.489422222222224,89L31.780124444444446,89L32.02702222222222,89L32.046933333333335,89L32.13056,89L32.20224,89L32.34161777777778,89L32.349582222222224,89L32.38144,89L33.00266666666666,89L33.249564444444445,89L33.4208,89L33.44867555555555,89L33.63982222222222,89L33.69159111111111,89L33.9584,89L33.99025777777778,89L34.308835555555554,89L34.33272888888889,89L34.444231111111115,89L34.98183111111111,89L35.15306666666667,89L35.36014222222222,89L35.51146666666667,89L35.81411555555555,89L36.136675555555556,89L36.35569777777778,89L36.367644444444444,89L36.42339555555556,89L36.439324444444445,89L36.63047111111111,89L36.65834666666667,89L36.83356444444444,89L36.95303111111111,89L37.29550222222222,89L37.42293333333334,89L37.84903111111111,89L38.020266666666664,89L38.03221333333333,89L38.458311111111115,89L38.58972444444444,89L38.74901333333334,89L38.86848,89L39.22022222222222,89L39.459155555555554,89L39.82153777777778,89L39.86932444444444,89L39.99675555555556,89L40.12020444444444,89L40.29940444444444,89L40.62594666666667,89L40.81311111111111,89L40.880808888888886,89L40.88877333333334,89L40.90868444444445,89L41.00824,89L41.01222222222222,89L41.06000888888889,89L41.07992,89L41.19540444444445,89L41.80468444444444,89L42.02370666666667,89L42.92767111111112,89L43.21040888888889,89L43.22235555555556,89L43.70022222222222,89L43.97499555555556,89L44.03871111111111,89L44.04269333333333,89L44.27366222222222,89L44.970551111111114,89L45.52009777777778,89L45.528062222222225,89L45.72717333333333,89L46.00991111111111,89L46.30061333333333,89L46.328488888888884,89L46.75458666666667,89L46.86608888888889,89L47.18466666666667,89L47.42888888888889,89L47.81914666666667,89L47.96250666666667,89L48.30099555555555,89L48.63152,89L48.997884444444445,89L49.065582222222226,89L49.149208888888886,89L49.682826666666664,89L49.69875555555555,89L49.73061333333334,89L50.17662222222223,89L50.232373333333335,89L50.383697777777776,89L50.59873777777778,89L50.90536888888889,89L51.21996444444444,89L51.22792888888889,89L51.442968888888885,89L51.554471111111106,89L52.39472000000001,89L52.45047111111111,89L52.69338666666667,89L53.20709333333333,89L53.724782222222224,89L53.9,89L54.238488888888895,89L54.46149333333334,89L54.48936888888889,89L54.63272888888889,89L54.96325333333333,89L55.52207111111111,89L55.796844444444446,89L55.872506666666666,89L56.15126222222222,89L56.242853333333336,89L56.49771555555555,89L57.071155555555556,89L57.28619555555556,89L57.40168,89L57.77202666666666,89L57.78397333333333,89L57.83176,89L58.40121777777778,89L58.84722666666667,89L59.436595555555556,89L59.599866666666664,89L60.221093333333336,89L60.50383111111111,89L60.77462222222223,89L60.81444444444444,89L60.82639111111111,89L60.88612444444445,89L61.017537777777775,89L61.74230222222222,89L62.12061333333333,89L62.16043555555556,89L62.29981333333333,89L62.929004444444445,89L63.22767111111111,89L63.67896888888889,89L63.84224,89L64.40771555555555,89L64.42762666666667,89L64.46346666666666,89L64.83381333333334,89L64.94531555555555,89L64.98513777777778,89L65.35548444444444,89L65.49088,89L66.45856,89L66.57404444444444,89L66.65767111111111,89L66.68554666666667,89L66.91651555555556,89L67.16341333333332,89L67.97976888888888,89L68.20277333333334,89L68.33020444444445,89L68.67665777777778,89L68.8080711111111,89L69.15054222222223,89L69.2023111111111,89L69.5607111111111,89L69.65230222222222,89L69.72398222222222,89L70.30140444444444,89L70.55626666666667,89L71.15758222222222,89L71.26112,89L72.02303111111111,89L72.05090666666666,89L72.51284444444444,89L72.83142222222223,89L73.00265777777778,89L73.34114666666666,89L73.46459555555556,89L73.52831111111111,89L73.75529777777778,89L73.93848000000001,89L73.94246222222222,89L74.03007111111111,89L74.27298666666665,89L74.30882666666666,89L74.51590222222222,89L74.5278488888889,89L74.67917333333334,89L74.77076444444445,89L74.80262222222223,89L74.98580444444445,89L75.31234666666667,89L75.38800888888888,89L75.69464,89L75.94153777777778,89L76.57471111111111,89L76.78576888888888,89L76.86541333333334,89L76.98886222222222,89L77.02470222222223,89L77.16009777777778,89L77.48664,89L77.63398222222223,89L77.92866666666666,89L78.38264000000001,89L78.76493333333333,89L78.78484444444445,89L78.92820444444445,89L79.05165333333333,89L79.43792888888889,89L79.54146666666666,89L79.62111111111112,89L80.04055111111111,89L80.49850666666667,89L80.70956444444444,89L81.55777777777779,89L82.37811555555555,89L82.62501333333333,89L82.93562666666666,89L83.00332444444444,89L83.11084444444444,89L83.19447111111111,89L83.24225777777778,89L83.3019911111111,89L83.81968,89L84.46878222222223,89L84.48471111111111,89L84.87496888888889,89L85.04222222222222,89L85.24531555555556,89L85.33690666666668,89L85.57185777777778,89L86.0935288888889,89L86.38821333333333,89L87.16872888888888,89L87.72754666666667,89L87.99037333333334,89L88.01824888888889,89L88.12178666666667,89L88.19346666666667,89L88.42841777777777,89L88.62752888888889,89L89.36424,89L89.38813333333333,89L89.5076,89L89.54344,89L89.58326222222223,89L89.94962666666667,89L89.98546666666667,89L90.06909333333333,89L90.32395555555556,89L90.39961777777778,89L91.18809777777778,89L91.54649777777777,89L91.8889688888889,89L92.11993777777778,89L92.7132888888889,89L92.72125333333334,89L92.84868444444444,89L92.97213333333335,89L93.77654222222222,89L93.87211555555555,89L93.90795555555556,89L94.12697777777778,89L94.78404444444445,89L95.1902311111111,89L95.27385777777778,89L95.80081777777778,89L96.08753777777778,89L96.17514666666666,89L96.24284444444444,89L96.42602666666667,89L96.82026666666667,89L97.58485333333334,89L98.02688,89L98.03086222222223,89L98.22200888888888,89L98.38926222222221,89L99.05429333333333,89L99.17774222222222,89L99.31313777777777,89L99.74321777777777,89L99.87463111111111,89L99.95427555555555,89L100.04984888888889,89L100.05383111111111,89L100.14144,89L100.40426666666667,89L100.55957333333333,89L100.59939555555556,89L100.95381333333333,89L101.00956444444444,89L101.12504888888888,89L101.15690666666667,89L101.27239111111112,89L101.6666311111111,89L102.58652444444445,89L102.69802666666666,89L102.8453688888889,89L102.98474666666667,89L103.03253333333333,89L103.28739555555556,89L103.82499555555556,89L104.03736,89L104.56699555555555,89L104.57097777777778,89L105.1284888888889,89L105.61033777777777,89L105.63821333333334,89L106.13599111111111,89L106.58598222222223,89L106.77314666666666,89L106.94438222222223,89L107.21517333333333,89L107.42623111111112,89L107.83241777777778,89L108.84390222222221,89L108.86779555555556,89L109.30185777777777,89L109.35760888888889,89L109.66424,89L109.68813333333333,89L110.03060444444445,89L110.12219555555556,89L110.40095111111111,89L110.48856,89L110.61997333333333,89L110.71554666666667,89L110.87483555555555,89L110.94651555555556,89L110.97040888888888,89L110.98235555555556,89L111.28500444444444,89L111.28898666666667,89L111.47615111111111,89L111.5996,89L111.70711999999999,89L111.71906666666666,89L111.73897777777779,89L112.01903999999999,89L112.25797333333334,89L112.48496,89L112.66416,89L112.82743111111111,89L112.8792,89L112.88318222222223,89L112.97079111111111,89L113.03450666666666,89L113.47653333333334,89L113.56016,89L113.83493333333332,89L113.84688,89L113.85086222222222,89L114.04200888888889,89L114.13758222222222,89L114.66323555555556,89L115.03358222222222,89L115.28844444444445,89L115.54728888888889,89L115.63887999999999,89L115.97338666666666,89L115.98533333333333,89L116.00524444444444,89L116.27205333333333,89L116.34373333333333,89L116.6424,89L116.79770666666667,89L117.42689777777778,89L117.59813333333334,89L117.8808711111111,89L117.9844088888889,89L118.06803555555557,89L118.09192888888889,89L118.72112,89L119.67287111111112,89L119.72464000000001,89L119.86003555555556,89L120.01136,89L120.12018666666665,89L120.57416,89L120.71353777777777,89L120.86088,89L121.22326222222222,89L121.74095111111112,89L122.03961777777778,89L122.39801777777778,89L122.40996444444444,89L123.01128,89L123.22632,89L123.26614222222221,89L123.40153777777778,89L123.44135999999999,89L123.54489777777778,89L123.72409777777777,89L123.81568888888889,89L124.11435555555556,89L124.19001777777777,89L124.37718222222222,89L124.82717333333333,89L125.02230222222221,89L125.34486222222223,89L125.38866666666667,89L125.4683111111111,89L125.75901333333333,89L126.41209777777779,89L126.9735911111111,89L127.12889777777777,89L127.24438222222223,89L127.59083555555556,89L127.78198222222223,89L127.78994666666667,89L127.94127111111112,89L128.03286222222224,89L128.31292444444446,89L128.87441777777778,89L129.12928,89L129.51953777777777,89L129.55139555555556,89L130.24430222222222,89L130.37571555555556,89L130.6704,89L130.82570666666666,89L131.16817777777777,89L131.55843555555555,89L131.61020444444443,89L131.64604444444444,89L131.96063999999998,89L132.1955911111111,89L132.64956444444445,89L132.70929777777778,89L133.02389333333335,89L133.37034666666668,89L133.87210666666667,89L134.01148444444445,89L134.3061688888889,89L134.79996444444444,89L134.88359111111112,89L134.98314666666667,89L135.23800888888888,89L135.29376,89L135.78357333333332,89L135.82737777777777,89L136.22292444444446,89L136.48973333333333,89L137.28617777777777,89L137.79192,89L137.79590222222222,89L137.91138666666666,89L137.91935111111113,89L138.3135911111111,89L139.16578666666666,89L139.18968,89L139.21357333333333,89L139.2295022222222,89L139.23348444444446,89L139.69144,89L140.61133333333333,89L141.0015911111111,89L141.0414133333333,89L141.0692888888889,89L141.1409688888889,89L141.54317333333333,89L141.88564444444447,89L142.24802666666668,89L142.2559911111111,89L142.38342222222224,89L142.45510222222222,89L143.58207111111113,89L143.68560888888888,89L143.86082666666667,89L144.3240711111111,89L144.37583999999998,89L144.74220444444444,89L144.85768888888887,89L145.01299555555556,89L146.44261333333333,89L146.54615111111113,89L146.63376000000002,89L146.70942222222223,89L146.80897777777778,89L146.87269333333333,89L146.92048,89L147.36250666666666,89L147.60940444444444,89L148.43770666666666,89L148.46558222222222,89L148.5014222222222,89L148.7005333333333,89L148.71248,89L148.79610666666667,89L148.91955555555555,89L148.99521777777778,89L149.5368,89L149.85936,89L149.86334222222223,89L149.99873777777776,89L150.54430222222223,89L150.56421333333333,89L150.6677511111111,89L150.85093333333333,89L150.91066666666669,89L151.2372088888889,89L151.51198222222223,89L151.67525333333333,89L151.84648888888887,89L152.37214222222224,89L152.41327111111113,89L152.81945777777779,89L152.97874666666667,89L153.35307555555556,89L153.40882666666667,89L153.48050666666666,89L154.73092444444444,89L154.94198222222224,89L156.14063111111113,89L156.28797333333333,89L157.29547555555556,89L157.39901333333333,89L157.74148444444447,89L158.0003288888889,89L158.02820444444444,89L158.0600622222222,89L158.2512088888889,89L158.2870488888889,89L158.52200000000002,89L158.5737688888889,89L159.19897777777777,89L159.3303911111111,89L159.49764444444443,89L160.2383377777778,89L160.6099911111111,89L160.66176,89L160.93653333333333,89L161.11971555555556,89L161.31484444444445,89L161.5378488888889,89L162.0635022222222,89L162.09536,89L162.49358222222222,89L162.54136888888888,89L162.62101333333334,89L163.09091555555554,89L163.19843555555556,89L163.20639999999997,89L163.5648,89L163.84355555555555,89L163.95107555555558,89L163.97895111111112,89L164.09045333333333,89L164.63203555555558,89L164.9984,89L165.38467555555556,89L165.42051555555554,89L165.46830222222223,89L165.54396444444444,89L165.61166222222224,89L165.82670222222222,89L165.8744888888889,89L165.97404444444444,89L166.12138666666667,89L166.53553777777776,89L166.6112,89L166.63907555555554,89L166.82225777777776,89L167.02933333333334,89L167.04128,89L167.18065777777778,89L167.90542222222223,89L167.90940444444445,89L167.99303111111112,89L168.21205333333333,89L168.55850666666666,89L168.55981333333332,89L168.7111377777778,89L168.85051555555557,89L168.88635555555555,89L169.58324444444446,89L169.96155555555555,89L170.76198222222223,89L170.90534222222223,89L171.15223999999998,89L171.4588711111111,89L171.77346666666668,89L171.85709333333332,89L171.8889511111111,89L171.94072,89L171.94868444444444,89L172.36283555555556,89L172.3708,89L172.71725333333333,89L172.72920000000002,89L173.51767999999998,89L173.54555555555558,89L173.80838222222224,89L173.82829333333333,89L174.24244444444446,89L174.31014222222223,89L174.57695111111113,89L174.65659555555555,89L175.08269333333334,89L175.3495022222222,89L175.40923555555557,89L175.47295111111112,89L175.52472,89L175.66409777777778,89L175.76763555555556,89L176.69281777777778,89L176.9317511111111,89L177.05121777777777,89L177.12688,89L177.48129777777777,89L177.63660444444446,89L177.65253333333334,89L177.68837333333335,89L177.81182222222222,89L178.0388088888889,89L178.62021333333334,89L179.0821511111111,89L179.21356444444444,89L179.64762666666667,89L180.22106666666667,89L180.35646222222223,89L181.45157333333333,89L181.62280888888887,89L181.8975822222222,89L183.15596444444444,89L183.37498666666667,89L183.43472,89L183.84488888888887,89L184.13957333333332,89L184.20328888888886,89L184.24709333333334,89L184.3824888888889,89L184.7010666666667,89L184.94130666666666,89L184.94528888888888,89L185.17625777777778,89L185.2559022222222,89L185.42713777777777,89L185.7337688888889,89L186.29526222222222,89L186.38685333333336,89L186.39083555555555,89L186.9324177777778,89L187.3147111111111,89L187.54966222222222,89L187.59346666666667,89L188.72441777777777,89L189.16644444444447,89L189.27794666666668,89L189.48104,89L189.86731555555554,89L189.99076444444444,89L190.01067555555557,89L190.07837333333333,89L190.4327911111111,89L191.24516444444447,89L191.53188444444444,89L192.2964711111111,89L192.34425777777778,89L192.47168888888888,89L192.5831911111111,89L192.9269688888889,89L192.9667911111111,89L192.99068444444444,89L193.00661333333332,89L193.13006222222222,89L193.13802666666666,89L193.1937777777778,89L193.2176711111111,89L193.50837333333334,89L194.49198222222222,89L194.8424177777778,89L194.94595555555557,89L195.30435555555556,89L195.41187555555558,89L195.69063111111112,89L195.96142222222224,89L196.28796444444444,89L196.4791111111111,89L196.54282666666668,89L196.75786666666667,89L197.4069688888889,89L197.43882666666667,89L197.6936888888889,89L197.80120888888888,89L198.3388088888889,89L198.36668444444445,89L198.84853333333334,89L198.94410666666664,89L198.9839288888889,89L199.03968,89L199.28657777777778,89L199.6648888888889,89L200.10691555555553,89L200.17859555555555,89L200.21841777777777,89L200.30204444444445,89L200.73610666666667,89L201.01218666666665,89L201.40244444444446,89L202.0196888888889,89L202.15110222222222,89L202.21880000000002,89L202.37410666666668,89L203.40152,89L204.18203555555556,89L204.35725333333332,89L204.4966311111111,89L204.61609777777778,89L204.71167111111112,89L204.8391022222222,89L205.1258222222222,89L205.23334222222223,89L205.2492711111111,89L205.30900444444444,89L205.4125422222222,89L205.5001511111111,89L206.1811111111111,89L206.19704000000002,89L206.2488088888889,89L206.5673866666667,89L206.58331555555557,89L206.72667555555554,89L207.07312888888887,89L207.10100444444447,89L207.27622222222223,89L207.48728,89L207.64258666666666,89L207.88550222222221,89L208.27177777777777,89L208.4231022222222,89L208.60628444444444,89L208.61026666666666,89L208.84521777777778,89L209.1770488888889,89L209.27262222222222,89L209.4677511111111,89L209.52350222222222,89L210.1128711111111,89L210.2323377777778,89L210.4672888888889,89L210.6703822222222,89L211.49072,89L211.52656000000002,89L211.73761777777776,89L212.27521777777778,89L212.41857777777776,89L212.8287466666667,89L212.87653333333333,89L213.32652444444446,89L213.59731555555555,89L213.73669333333333,89L214.33402666666666,89L214.36986666666667,89L214.4773866666667,89L214.5968533333333,89L214.73224888888888,89L214.9114488888889,89L214.94330666666667,89L215.05480888888889,89L215.5048,89L215.56851555555556,89L215.81541333333334,89L215.8831111111111,89L216.22558222222224,89L216.26142222222222,89L217.01008,89L217.21447999999998,89L218.36136000000002,89L218.44498666666667,89L219.00648,89L219.17771555555555,89L219.38877333333335,89L219.4166488888889,89L219.4962933333333,89L219.59983111111111,89L219.95823111111113,89L220.16530666666665,89L220.40424000000002,89L220.43211555555555,89L220.5476,89L220.75865777777776,89L220.7745866666667,89L220.82635555555555,89L220.88210666666666,89L220.97768,89L221.02546666666666,89L221.15289777777778,89L221.18077333333332,89L221.23652444444446,89L221.68651555555556,89L221.73032,89L221.75421333333335,89L221.91748444444445,89L221.93341333333333,89L221.98916444444447,89L222.08075555555556,89L222.50287111111112,89L222.67410666666666,89L222.92100444444446,89L222.98472,89L223.1041866666667,89L223.87673777777778,89L224.05593777777776,89L224.24708444444445,89L224.2789422222222,89L224.70902222222222,89L224.78866666666664,89L225.5585422222222,89L226.1080888888889,89L227.26293333333334,89L227.47797333333332,89L227.57752888888888,89L228.0792888888889,89L228.4018488888889,89L228.64476444444443,89L228.72042666666664,89L228.95537777777776,89L229.41731555555558,89L229.73191111111112,89L230.18588444444444,89L230.38499555555555,89L230.5323377777778,89L230.75534222222223,89L230.81905777777777,89L230.93852444444445,89L231.22922666666668,89L231.6832,89L232.03363555555555,89L232.30442666666667,89L232.66680888888888,89L232.67477333333335,89L232.69866666666667,89L233.42075555555556,89L234.0579111111111,89L234.2012711111111,89L234.65922666666668,89L234.67515555555556,89L235.04550222222224,89L235.26452444444442,89L235.50345777777778,89L235.88176888888887,89L236.69414222222224,89L237.12820444444446,89L237.30342222222222,89L237.3193511111111,89L237.3512088888889,89L237.94057777777778,89L238.1277422222222,89L238.3905688888889,89L238.39853333333332,89L239.06754666666666,89L239.2865688888889,89L239.3980711111111,89L239.52948444444445,89L239.62505777777778,89L239.66487999999998,89L240.15469333333334,89L240.22637333333333,89L240.52504,89L240.67636444444443,89L240.83963555555556,89L241.24184,89L241.31750222222223,89L241.72897777777777,89L241.86039111111108,89L242.11525333333333,89L242.15507555555556,89L242.46967111111113,89L242.52940444444442,89L242.67674666666665,89L243.70017777777778,89L243.73203555555557,89L243.96698666666666,89L244.0227377777778,89L244.68378666666666,89L244.91475555555556,89L244.9426311111111,89L244.95855999999998,89L244.97448888888889,89L245.3846577777778,89L245.53598222222223,89L245.66739555555557,89L245.7112,89L246.17712,89L246.37224888888886,89L246.43198222222222,89L246.5156088888889,89L246.57534222222222,89L246.81427555555555,89L247.04524444444445,89L247.5509866666667,89L247.94124444444444,89L248.4310577777778,89L248.57441777777777,89L248.66202666666666,89L248.83724444444442,89L248.94874666666666,89L249.29918222222224,89L249.51951111111111,89L249.81419555555556,89L249.99339555555557,89L250.83364444444445,89L251.25575999999998,89L251.26770666666667,89L251.37124444444444,89L251.49469333333334,89L252.2075111111111,89L252.22742222222223,89L252.25928,89L252.90439999999998,89L253.1154577777778,89L253.23094222222224,89L253.5296088888889,89L253.89995555555555,89L253.91190222222224,89L254.40968,89L255.25789333333333,89L255.38930666666667,89L255.55656,89L255.6839911111111,89L255.76761777777776,89L256.0184977777778,89L256.0662844444444,89L256.12203555555556,89L256.1499111111111,89L256.4684888888889,89L257.18130666666667,89L257.31272,89L257.45608,89L258.0228622222222,89L258.17020444444444,89L258.9706311111111,89L259.06620444444445,89L259.21752888888886,89L259.24142222222224,89L259.3290311111111,89L259.6117688888889,89L259.89450666666664,89L259.95424,89L260.08963555555556,89L260.31662222222224,89L260.7586488888889,89L261.05333333333334,89L261.4913777777778,89L262.36746666666664,89L263.1838222222222,89L263.38691555555556,89L263.76124444444446,89L264.2231822222222,89L264.4422044444444,89L264.5616711111111,89L264.5776,89L264.7448533333333,89L264.8722844444444,89L264.9798044444444,89L265.04750222222225,89L265.1072355555555,89L265.1470577777778,89L265.4815644444445,89L266.04436444444445,89L266.10808,89L266.12002666666666,89L266.13197333333335,89L266.21958222222224,89L266.6775377777778,89L267.03992,89L267.2270844444444,89L267.70893333333333,89L268.28237333333334,89L268.47352,89L268.5372355555555,89L268.65670222222224,89L268.8518311111111,89L268.9235111111111,89L268.97926222222225,89L269.2460711111111,89L269.42128888888885,89L269.5288088888889,89L270.0026933333333,89L270.3133066666667,89L270.6836533333333,89L270.70754666666664,89L270.79515555555554,89L271.15355555555556,89L271.55576,89L271.7946933333333,89L271.8623911111111,89L271.90619555555554,89L271.9738933333333,89L272.34424,89L272.51149333333336,89L272.64290666666665,89L272.8300711111111,89L272.9017511111111,89L273.43935111111114,89L273.6676444444444,89" style="fill: none;" fill="none"></path></g><g><path stroke="rgb(255, 112, 67)" stroke-width="2px" d="M31.282346666666665,89L31.294293333333332,89L31.397831111111113,89L31.489422222222224,89L31.780124444444446,89L32.02702222222222,89L32.046933333333335,89L32.13056,89L32.20224,89L32.34161777777778,89L32.349582222222224,89L32.38144,89L33.00266666666666,89L33.249564444444445,89L33.4208,89L33.44867555555555,89L33.63982222222222,89L33.69159111111111,89L33.9584,89L33.99025777777778,89L34.308835555555554,89L34.33272888888889,89L34.444231111111115,89L34.98183111111111,89L35.15306666666667,89L35.36014222222222,89L35.51146666666667,89L35.81411555555555,89L36.136675555555556,89L36.35569777777778,89L36.367644444444444,89L36.42339555555556,89L36.439324444444445,89L36.63047111111111,89L36.65834666666667,89L36.83356444444444,89L36.95303111111111,89L37.29550222222222,89L37.42293333333334,89L37.84903111111111,89L38.020266666666664,89L38.03221333333333,89L38.458311111111115,89L38.58972444444444,89L38.74901333333334,89L38.86848,89L39.22022222222222,89L39.459155555555554,89L39.82153777777778,89L39.86932444444444,89L39.99675555555556,89L40.12020444444444,89L40.29940444444444,89L40.62594666666667,89L40.81311111111111,89L40.880808888888886,89L40.88877333333334,89L40.90868444444445,89L41.00824,89L41.01222222222222,89L41.06000888888889,89L41.07992,89L41.19540444444445,89L41.80468444444444,89L42.02370666666667,89L42.92767111111112,89L43.21040888888889,89L43.22235555555556,89L43.70022222222222,89L43.97499555555556,89L44.03871111111111,89L44.04269333333333,89L44.27366222222222,89L44.970551111111114,89L45.52009777777778,89L45.528062222222225,89L45.72717333333333,89L46.00991111111111,89L46.30061333333333,89L46.328488888888884,89L46.75458666666667,89L46.86608888888889,89L47.18466666666667,89L47.42888888888889,89L47.81914666666667,89L47.96250666666667,89L48.30099555555555,89L48.63152,89L48.997884444444445,89L49.065582222222226,89L49.149208888888886,89L49.682826666666664,89L49.69875555555555,89L49.73061333333334,89L50.17662222222223,89L50.232373333333335,89L50.383697777777776,89L50.59873777777778,89L50.90536888888889,89L51.21996444444444,89L51.22792888888889,89L51.442968888888885,89L51.554471111111106,89L52.39472000000001,89L52.45047111111111,89L52.69338666666667,89L53.20709333333333,89L53.724782222222224,89L53.9,89L54.238488888888895,89L54.46149333333334,89L54.48936888888889,89L54.63272888888889,89L54.96325333333333,89L55.52207111111111,89L55.796844444444446,89L55.872506666666666,89L56.15126222222222,89L56.242853333333336,89L56.49771555555555,89L57.071155555555556,89L57.28619555555556,89L57.40168,89L57.77202666666666,89L57.78397333333333,89L57.83176,89L58.40121777777778,89L58.84722666666667,89L59.436595555555556,89L59.599866666666664,89L60.221093333333336,89L60.50383111111111,89L60.77462222222223,89L60.81444444444444,89L60.82639111111111,89L60.88612444444445,89L61.017537777777775,89L61.74230222222222,89L62.12061333333333,89L62.16043555555556,89L62.29981333333333,89L62.929004444444445,89L63.22767111111111,89L63.67896888888889,89L63.84224,89L64.40771555555555,89L64.42762666666667,89L64.46346666666666,89L64.83381333333334,89L64.94531555555555,89L64.98513777777778,89L65.35548444444444,89L65.49088,89L66.45856,89L66.57404444444444,89L66.65767111111111,89L66.68554666666667,89L66.91651555555556,89L67.16341333333332,89L67.97976888888888,89L68.20277333333334,89L68.33020444444445,89L68.67665777777778,89L68.8080711111111,89L69.15054222222223,89L69.2023111111111,89L69.5607111111111,89L69.65230222222222,89L69.72398222222222,89L70.30140444444444,89L70.55626666666667,89L71.15758222222222,89L71.26112,89L72.02303111111111,89L72.05090666666666,89L72.51284444444444,89L72.83142222222223,89L73.00265777777778,89L73.34114666666666,89L73.46459555555556,89L73.52831111111111,89L73.75529777777778,89L73.93848000000001,89L73.94246222222222,89L74.03007111111111,89L74.27298666666665,89L74.30882666666666,89L74.51590222222222,89L74.5278488888889,89L74.67917333333334,89L74.77076444444445,89L74.80262222222223,89L74.98580444444445,89L75.31234666666667,89L75.38800888888888,89L75.69464,89L75.94153777777778,89L76.57471111111111,89L76.78576888888888,89L76.86541333333334,89L76.98886222222222,89L77.02470222222223,89L77.16009777777778,89L77.48664,89L77.63398222222223,89L77.92866666666666,89L78.38264000000001,89L78.76493333333333,89L78.78484444444445,89L78.92820444444445,89L79.05165333333333,89L79.43792888888889,89L79.54146666666666,89L79.62111111111112,89L80.04055111111111,89L80.49850666666667,89L80.70956444444444,89L81.55777777777779,89L82.37811555555555,89L82.62501333333333,89L82.93562666666666,89L83.00332444444444,89L83.11084444444444,89L83.19447111111111,89L83.24225777777778,89L83.3019911111111,89L83.81968,89L84.46878222222223,89L84.48471111111111,89L84.87496888888889,89L85.04222222222222,89L85.24531555555556,89L85.33690666666668,89L85.57185777777778,89L86.0935288888889,89L86.38821333333333,89L87.16872888888888,89L87.72754666666667,89L87.99037333333334,89L88.01824888888889,89L88.12178666666667,89L88.19346666666667,89L88.42841777777777,89L88.62752888888889,89L89.36424,89L89.38813333333333,89L89.5076,89L89.54344,89L89.58326222222223,89L89.94962666666667,89L89.98546666666667,89L90.06909333333333,89L90.32395555555556,89L90.39961777777778,89L91.18809777777778,89L91.54649777777777,89L91.8889688888889,89L92.11993777777778,89L92.7132888888889,89L92.72125333333334,89L92.84868444444444,89L92.97213333333335,89L93.77654222222222,89L93.87211555555555,89L93.90795555555556,89L94.12697777777778,89L94.78404444444445,89L95.1902311111111,89L95.27385777777778,89L95.80081777777778,89L96.08753777777778,89L96.17514666666666,89L96.24284444444444,89L96.42602666666667,89L96.82026666666667,89L97.58485333333334,89L98.02688,89L98.03086222222223,89L98.22200888888888,89L98.38926222222221,89L99.05429333333333,89L99.17774222222222,89L99.31313777777777,89L99.74321777777777,89L99.87463111111111,89L99.95427555555555,89L100.04984888888889,89L100.05383111111111,89L100.14144,89L100.40426666666667,89L100.55957333333333,89L100.59939555555556,89L100.95381333333333,89L101.00956444444444,89L101.12504888888888,89L101.15690666666667,89L101.27239111111112,89L101.6666311111111,89L102.58652444444445,89L102.69802666666666,89L102.8453688888889,89L102.98474666666667,89L103.03253333333333,89L103.28739555555556,89L103.82499555555556,89L104.03736,89L104.56699555555555,89L104.57097777777778,89L105.1284888888889,89L105.61033777777777,89L105.63821333333334,89L106.13599111111111,89L106.58598222222223,89L106.77314666666666,89L106.94438222222223,89L107.21517333333333,89L107.42623111111112,89L107.83241777777778,89L108.84390222222221,89L108.86779555555556,89L109.30185777777777,89L109.35760888888889,89L109.66424,89L109.68813333333333,89L110.03060444444445,89L110.12219555555556,89L110.40095111111111,89L110.48856,89L110.61997333333333,89L110.71554666666667,89L110.87483555555555,89L110.94651555555556,89L110.97040888888888,89L110.98235555555556,89L111.28500444444444,89L111.28898666666667,89L111.47615111111111,89L111.5996,89L111.70711999999999,89L111.71906666666666,89L111.73897777777779,89L112.01903999999999,89L112.25797333333334,89L112.48496,89L112.66416,89L112.82743111111111,89L112.8792,89L112.88318222222223,89L112.97079111111111,89L113.03450666666666,89L113.47653333333334,89L113.56016,89L113.83493333333332,89L113.84688,89L113.85086222222222,89L114.04200888888889,89L114.13758222222222,89L114.66323555555556,89L115.03358222222222,89L115.28844444444445,89L115.54728888888889,89L115.63887999999999,89L115.97338666666666,89L115.98533333333333,89L116.00524444444444,89L116.27205333333333,89L116.34373333333333,89L116.6424,89L116.79770666666667,89L117.42689777777778,89L117.59813333333334,89L117.8808711111111,89L117.9844088888889,89L118.06803555555557,89L118.09192888888889,89L118.72112,89L119.67287111111112,89L119.72464000000001,89L119.86003555555556,89L120.01136,89L120.12018666666665,89L120.57416,89L120.71353777777777,89L120.86088,89L121.22326222222222,89L121.74095111111112,89L122.03961777777778,89L122.39801777777778,89L122.40996444444444,89L123.01128,89L123.22632,89L123.26614222222221,89L123.40153777777778,89L123.44135999999999,89L123.54489777777778,89L123.72409777777777,89L123.81568888888889,89L124.11435555555556,89L124.19001777777777,89L124.37718222222222,89L124.82717333333333,89L125.02230222222221,89L125.34486222222223,89L125.38866666666667,89L125.4683111111111,89L125.75901333333333,89L126.41209777777779,89L126.9735911111111,89L127.12889777777777,89L127.24438222222223,89L127.59083555555556,89L127.78198222222223,89L127.78994666666667,89L127.94127111111112,89L128.03286222222224,89L128.31292444444446,89L128.87441777777778,89L129.12928,89L129.51953777777777,89L129.55139555555556,89L130.24430222222222,89L130.37571555555556,89L130.6704,89L130.82570666666666,89L131.16817777777777,89L131.55843555555555,89L131.61020444444443,89L131.64604444444444,89L131.96063999999998,89L132.1955911111111,89L132.64956444444445,89L132.70929777777778,89L133.02389333333335,89L133.37034666666668,89L133.87210666666667,89L134.01148444444445,89L134.3061688888889,89L134.79996444444444,89L134.88359111111112,89L134.98314666666667,89L135.23800888888888,89L135.29376,89L135.78357333333332,89L135.82737777777777,89L136.22292444444446,89L136.48973333333333,89L137.28617777777777,89L137.79192,89L137.79590222222222,89L137.91138666666666,89L137.91935111111113,89L138.3135911111111,89L139.16578666666666,89L139.18968,89L139.21357333333333,89L139.2295022222222,89L139.23348444444446,89L139.69144,89L140.61133333333333,89L141.0015911111111,89L141.0414133333333,89L141.0692888888889,89L141.1409688888889,89L141.54317333333333,89L141.88564444444447,89L142.24802666666668,89L142.2559911111111,89L142.38342222222224,89L142.45510222222222,89L143.58207111111113,89L143.68560888888888,89L143.86082666666667,89L144.3240711111111,89L144.37583999999998,89L144.74220444444444,89L144.85768888888887,89L145.01299555555556,89L146.44261333333333,89L146.54615111111113,89L146.63376000000002,89L146.70942222222223,89L146.80897777777778,89L146.87269333333333,89L146.92048,89L147.36250666666666,89L147.60940444444444,89L148.43770666666666,89L148.46558222222222,89L148.5014222222222,89L148.7005333333333,89L148.71248,89L148.79610666666667,89L148.91955555555555,89L148.99521777777778,89L149.5368,89L149.85936,89L149.86334222222223,89L149.99873777777776,89L150.54430222222223,89L150.56421333333333,89L150.6677511111111,89L150.85093333333333,89L150.91066666666669,89L151.2372088888889,89L151.51198222222223,89L151.67525333333333,89L151.84648888888887,89L152.37214222222224,89L152.41327111111113,89L152.81945777777779,89L152.97874666666667,89L153.35307555555556,89L153.40882666666667,89L153.48050666666666,89L154.73092444444444,89L154.94198222222224,89L156.14063111111113,89L156.28797333333333,89L157.29547555555556,89L157.39901333333333,89L157.74148444444447,89L158.0003288888889,89L158.02820444444444,89L158.0600622222222,89L158.2512088888889,89L158.2870488888889,89L158.52200000000002,89L158.5737688888889,89L159.19897777777777,89L159.3303911111111,89L159.49764444444443,89L160.2383377777778,89L160.6099911111111,89L160.66176,89L160.93653333333333,89L161.11971555555556,89L161.31484444444445,89L161.5378488888889,89L162.0635022222222,89L162.09536,89L162.49358222222222,89L162.54136888888888,89L162.62101333333334,89L163.09091555555554,89L163.19843555555556,89L163.20639999999997,89L163.5648,89L163.84355555555555,89L163.95107555555558,89L163.97895111111112,89L164.09045333333333,89L164.63203555555558,89L164.9984,89L165.38467555555556,89L165.42051555555554,89L165.46830222222223,89L165.54396444444444,89L165.61166222222224,89L165.82670222222222,89L165.8744888888889,89L165.97404444444444,89L166.12138666666667,89L166.53553777777776,89L166.6112,89L166.63907555555554,89L166.82225777777776,89L167.02933333333334,89L167.04128,89L167.18065777777778,89L167.90542222222223,89L167.90940444444445,89L167.99303111111112,89L168.21205333333333,89L168.55850666666666,89L168.55981333333332,89L168.7111377777778,89L168.85051555555557,89L168.88635555555555,89L169.58324444444446,89L169.96155555555555,89L170.76198222222223,89L170.90534222222223,89L171.15223999999998,89L171.4588711111111,89L171.77346666666668,89L171.85709333333332,89L171.8889511111111,89L171.94072,89L171.94868444444444,89L172.36283555555556,89L172.3708,89L172.71725333333333,89L172.72920000000002,89L173.51767999999998,89L173.54555555555558,89L173.80838222222224,89L173.82829333333333,89L174.24244444444446,89L174.31014222222223,89L174.57695111111113,89L174.65659555555555,89L175.08269333333334,89L175.3495022222222,89L175.40923555555557,89L175.47295111111112,89L175.52472,89L175.66409777777778,89L175.76763555555556,89L176.69281777777778,89L176.9317511111111,89L177.05121777777777,89L177.12688,89L177.48129777777777,89L177.63660444444446,89L177.65253333333334,89L177.68837333333335,89L177.81182222222222,89L178.0388088888889,89L178.62021333333334,89L179.0821511111111,89L179.21356444444444,89L179.64762666666667,89L180.22106666666667,89L180.35646222222223,89L181.45157333333333,89L181.62280888888887,89L181.8975822222222,89L183.15596444444444,89L183.37498666666667,89L183.43472,89L183.84488888888887,89L184.13957333333332,89L184.20328888888886,89L184.24709333333334,89L184.3824888888889,89L184.7010666666667,89L184.94130666666666,89L184.94528888888888,89L185.17625777777778,89L185.2559022222222,89L185.42713777777777,89L185.7337688888889,89L186.29526222222222,89L186.38685333333336,89L186.39083555555555,89L186.9324177777778,89L187.3147111111111,89L187.54966222222222,89L187.59346666666667,89L188.72441777777777,89L189.16644444444447,89L189.27794666666668,89L189.48104,89L189.86731555555554,89L189.99076444444444,89L190.01067555555557,89L190.07837333333333,89L190.4327911111111,89L191.24516444444447,89L191.53188444444444,89L192.2964711111111,89L192.34425777777778,89L192.47168888888888,89L192.5831911111111,89L192.9269688888889,89L192.9667911111111,89L192.99068444444444,89L193.00661333333332,89L193.13006222222222,89L193.13802666666666,89L193.1937777777778,89L193.2176711111111,89L193.50837333333334,89L194.49198222222222,89L194.8424177777778,89L194.94595555555557,89L195.30435555555556,89L195.41187555555558,89L195.69063111111112,89L195.96142222222224,89L196.28796444444444,89L196.4791111111111,89L196.54282666666668,89L196.75786666666667,89L197.4069688888889,89L197.43882666666667,89L197.6936888888889,89L197.80120888888888,89L198.3388088888889,89L198.36668444444445,89L198.84853333333334,89L198.94410666666664,89L198.9839288888889,89L199.03968,89L199.28657777777778,89L199.6648888888889,89L200.10691555555553,89L200.17859555555555,89L200.21841777777777,89L200.30204444444445,89L200.73610666666667,89L201.01218666666665,89L201.40244444444446,89L202.0196888888889,89L202.15110222222222,89L202.21880000000002,89L202.37410666666668,89L203.40152,89L204.18203555555556,89L204.35725333333332,89L204.4966311111111,89L204.61609777777778,89L204.71167111111112,89L204.8391022222222,89L205.1258222222222,89L205.23334222222223,89L205.2492711111111,89L205.30900444444444,89L205.4125422222222,89L205.5001511111111,89L206.1811111111111,89L206.19704000000002,89L206.2488088888889,89L206.5673866666667,89L206.58331555555557,89L206.72667555555554,89L207.07312888888887,89L207.10100444444447,89L207.27622222222223,89L207.48728,89L207.64258666666666,89L207.88550222222221,89L208.27177777777777,89L208.4231022222222,89L208.60628444444444,89L208.61026666666666,89L208.84521777777778,89L209.1770488888889,89L209.27262222222222,89L209.4677511111111,89L209.52350222222222,89L210.1128711111111,89L210.2323377777778,89L210.4672888888889,89L210.6703822222222,89L211.49072,89L211.52656000000002,89L211.73761777777776,89L212.27521777777778,89L212.41857777777776,89L212.8287466666667,89L212.87653333333333,89L213.32652444444446,89L213.59731555555555,89L213.73669333333333,89L214.33402666666666,89L214.36986666666667,89L214.4773866666667,89L214.5968533333333,89L214.73224888888888,89L214.9114488888889,89L214.94330666666667,89L215.05480888888889,89L215.5048,89L215.56851555555556,89L215.81541333333334,89L215.8831111111111,89L216.22558222222224,89L216.26142222222222,89L217.01008,89L217.21447999999998,89L218.36136000000002,89L218.44498666666667,89L219.00648,89L219.17771555555555,89L219.38877333333335,89L219.4166488888889,89L219.4962933333333,89L219.59983111111111,89L219.95823111111113,89L220.16530666666665,89L220.40424000000002,89L220.43211555555555,89L220.5476,89L220.75865777777776,89L220.7745866666667,89L220.82635555555555,89L220.88210666666666,89L220.97768,89L221.02546666666666,89L221.15289777777778,89L221.18077333333332,89L221.23652444444446,89L221.68651555555556,89L221.73032,89L221.75421333333335,89L221.91748444444445,89L221.93341333333333,89L221.98916444444447,89L222.08075555555556,89L222.50287111111112,89L222.67410666666666,89L222.92100444444446,89L222.98472,89L223.1041866666667,89L223.87673777777778,89L224.05593777777776,89L224.24708444444445,89L224.2789422222222,89L224.70902222222222,89L224.78866666666664,89L225.5585422222222,89L226.1080888888889,89L227.26293333333334,89L227.47797333333332,89L227.57752888888888,89L228.0792888888889,89L228.4018488888889,89L228.64476444444443,89L228.72042666666664,89L228.95537777777776,89L229.41731555555558,89L229.73191111111112,89L230.18588444444444,89L230.38499555555555,89L230.5323377777778,89L230.75534222222223,89L230.81905777777777,89L230.93852444444445,89L231.22922666666668,89L231.6832,89L232.03363555555555,89L232.30442666666667,89L232.66680888888888,89L232.67477333333335,89L232.69866666666667,89L233.42075555555556,89L234.0579111111111,89L234.2012711111111,89L234.65922666666668,89L234.67515555555556,89L235.04550222222224,89L235.26452444444442,89L235.50345777777778,89L235.88176888888887,89L236.69414222222224,89L237.12820444444446,89L237.30342222222222,89L237.3193511111111,89L237.3512088888889,89L237.94057777777778,89L238.1277422222222,89L238.3905688888889,89L238.39853333333332,89L239.06754666666666,89L239.2865688888889,89L239.3980711111111,89L239.52948444444445,89L239.62505777777778,89L239.66487999999998,89L240.15469333333334,89L240.22637333333333,89L240.52504,89L240.67636444444443,89L240.83963555555556,89L241.24184,89L241.31750222222223,89L241.72897777777777,89L241.86039111111108,89L242.11525333333333,89L242.15507555555556,89L242.46967111111113,89L242.52940444444442,89L242.67674666666665,89L243.70017777777778,89L243.73203555555557,89L243.96698666666666,89L244.0227377777778,89L244.68378666666666,89L244.91475555555556,89L244.9426311111111,89L244.95855999999998,89L244.97448888888889,89L245.3846577777778,89L245.53598222222223,89L245.66739555555557,89L245.7112,89L246.17712,89L246.37224888888886,89L246.43198222222222,89L246.5156088888889,89L246.57534222222222,89L246.81427555555555,89L247.04524444444445,89L247.5509866666667,89L247.94124444444444,89L248.4310577777778,89L248.57441777777777,89L248.66202666666666,89L248.83724444444442,89L248.94874666666666,89L249.29918222222224,89L249.51951111111111,89L249.81419555555556,89L249.99339555555557,89L250.83364444444445,89L251.25575999999998,89L251.26770666666667,89L251.37124444444444,89L251.49469333333334,89L252.2075111111111,89L252.22742222222223,89L252.25928,89L252.90439999999998,89L253.1154577777778,89L253.23094222222224,89L253.5296088888889,89L253.89995555555555,89L253.91190222222224,89L254.40968,89L255.25789333333333,89L255.38930666666667,89L255.55656,89L255.6839911111111,89L255.76761777777776,89L256.0184977777778,89L256.0662844444444,89L256.12203555555556,89L256.1499111111111,89L256.4684888888889,89L257.18130666666667,89L257.31272,89L257.45608,89L258.0228622222222,89L258.17020444444444,89L258.9706311111111,89L259.06620444444445,89L259.21752888888886,89L259.24142222222224,89L259.3290311111111,89L259.6117688888889,89L259.89450666666664,89L259.95424,89L260.08963555555556,89L260.31662222222224,89L260.7586488888889,89L261.05333333333334,89L261.4913777777778,89L262.36746666666664,89L263.1838222222222,89L263.38691555555556,89L263.76124444444446,89L264.2231822222222,89L264.4422044444444,89L264.5616711111111,89L264.5776,89L264.7448533333333,89L264.8722844444444,89L264.9798044444444,89L265.04750222222225,89L265.1072355555555,89L265.1470577777778,89L265.4815644444445,89L266.04436444444445,89L266.10808,89L266.12002666666666,89L266.13197333333335,89L266.21958222222224,89L266.6775377777778,89L267.03992,89L267.2270844444444,89L267.70893333333333,89L268.28237333333334,89L268.47352,89L268.5372355555555,89L268.65670222222224,89L268.8518311111111,89L268.9235111111111,89L268.97926222222225,89L269.2460711111111,89L269.42128888888885,89L269.5288088888889,89L270.0026933333333,89L270.3133066666667,89L270.6836533333333,89L270.70754666666664,89L270.79515555555554,89L271.15355555555556,89L271.55576,89L271.7946933333333,89L271.8623911111111,89L271.90619555555554,89L271.9738933333333,89L272.34424,89L272.51149333333336,89L272.64290666666665,89L272.8300711111111,89L272.9017511111111,89L273.43935111111114,89L273.6676444444444,89" style="fill: none;" fill="none"></path></g></g></g></g></g></g><g transform="translate(50, 178)" clip-path="url(#clip_1)"><clipPath id="clip_1"><rect width="280" height="22"></rect></clipPath><g><g><line x1="0" y1="0" x2="0" y2="5" style="visibility: inherit;" fill="rgb(0, 0, 0)" stroke="rgb(204, 204, 204)" stroke-width="1px"></line><line x1="31.11111111111111" y1="0" x2="31.11111111111111" y2="5" style="visibility: inherit;" fill="rgb(0, 0, 0)" stroke="rgb(204, 204, 204)" stroke-width="1px"></line><line x1="62.22222222222222" y1="0" x2="62.22222222222222" y2="5" style="visibility: inherit;" fill="rgb(0, 0, 0)" stroke="rgb(204, 204, 204)" stroke-width="1px"></line><line x1="93.33333333333333" y1="0" x2="93.33333333333333" y2="5" style="visibility: inherit;" fill="rgb(0, 0, 0)" stroke="rgb(204, 204, 204)" stroke-width="1px"></line><line x1="124.44444444444444" y1="0" x2="124.44444444444444" y2="5" style="visibility: inherit;" fill="rgb(0, 0, 0)" stroke="rgb(204, 204, 204)" stroke-width="1px"></line><line x1="155.55555555555557" y1="0" x2="155.55555555555557" y2="5" style="visibility: inherit;" fill="rgb(0, 0, 0)" stroke="rgb(204, 204, 204)" stroke-width="1px"></line><line x1="186.66666666666666" y1="0" x2="186.66666666666666" y2="5" style="visibility: inherit;" fill="rgb(0, 0, 0)" stroke="rgb(204, 204, 204)" stroke-width="1px"></line><line x1="217.77777777777777" y1="0" x2="217.77777777777777" y2="5" style="visibility: inherit;" fill="rgb(0, 0, 0)" stroke="rgb(204, 204, 204)" stroke-width="1px"></line><line x1="248.88888888888889" y1="0" x2="248.88888888888889" y2="5" style="visibility: inherit;" fill="rgb(0, 0, 0)" stroke="rgb(204, 204, 204)" stroke-width="1px"></line><line x1="280" y1="0" x2="280" y2="5" style="visibility: inherit;" fill="rgb(0, 0, 0)" stroke="rgb(204, 204, 204)" stroke-width="1px"></line></g><g transform="translate(0, 8)"><text x="0" y="0" dx="0em" dy="0.95em" style="text-anchor: middle; visibility: hidden; font-family: &quot;Helvetica Neue&quot;, sans-serif; font-size: 12px; font-weight: 200;" fill="rgb(50, 49, 63)" stroke="none" stroke-width="1px">-500k</text><text x="31.11111111111111" y="0" dx="0em" dy="0.95em" style="text-anchor: middle; visibility: inherit; font-family: &quot;Helvetica Neue&quot;, sans-serif; font-size: 12px; font-weight: 200;" fill="rgb(50, 49, 63)" stroke="none" stroke-width="1px">0</text><text x="62.22222222222222" y="0" dx="0em" dy="0.95em" style="text-anchor: middle; visibility: inherit; font-family: &quot;Helvetica Neue&quot;, sans-serif; font-size: 12px; font-weight: 200;" fill="rgb(50, 49, 63)" stroke="none" stroke-width="1px">500k</text><text x="93.33333333333333" y="0" dx="0em" dy="0.95em" style="text-anchor: middle; visibility: inherit; font-family: &quot;Helvetica Neue&quot;, sans-serif; font-size: 12px; font-weight: 200;" fill="rgb(50, 49, 63)" stroke="none" stroke-width="1px">1M</text><text x="124.44444444444444" y="0" dx="0em" dy="0.95em" style="text-anchor: middle; visibility: inherit; font-family: &quot;Helvetica Neue&quot;, sans-serif; font-size: 12px; font-weight: 200;" fill="rgb(50, 49, 63)" stroke="none" stroke-width="1px">1.5M</text><text x="155.55555555555557" y="0" dx="0em" dy="0.95em" style="text-anchor: middle; visibility: inherit; font-family: &quot;Helvetica Neue&quot;, sans-serif; font-size: 12px; font-weight: 200;" fill="rgb(50, 49, 63)" stroke="none" stroke-width="1px">2M</text><text x="186.66666666666666" y="0" dx="0em" dy="0.95em" style="text-anchor: middle; visibility: inherit; font-family: &quot;Helvetica Neue&quot;, sans-serif; font-size: 12px; font-weight: 200;" fill="rgb(50, 49, 63)" stroke="none" stroke-width="1px">2.5M</text><text x="217.77777777777777" y="0" dx="0em" dy="0.95em" style="text-anchor: middle; visibility: inherit; font-family: &quot;Helvetica Neue&quot;, sans-serif; font-size: 12px; font-weight: 200;" fill="rgb(50, 49, 63)" stroke="none" stroke-width="1px">3M</text><text x="248.88888888888889" y="0" dx="0em" dy="0.95em" style="text-anchor: middle; visibility: inherit; font-family: &quot;Helvetica Neue&quot;, sans-serif; font-size: 12px; font-weight: 200;" fill="rgb(50, 49, 63)" stroke="none" stroke-width="1px">3.5M</text><text x="280" y="0" dx="0em" dy="0.95em" style="text-anchor: middle; visibility: hidden; font-family: &quot;Helvetica Neue&quot;, sans-serif; font-size: 12px; font-weight: 200;" fill="rgb(50, 49, 63)" stroke="none" stroke-width="1px">4M</text></g><line x1="0" y1="0" x2="280" y2="0" fill="rgb(0, 0, 0)" stroke="rgb(204, 204, 204)" stroke-width="1px"></line></g></g></g></g></svg>